<svg width="150" height="150" viewBox="0 0 150 150" fill="none" xmlns="http://www.w3.org/2000/svg">
<g filter="url(#filter0_d_253_1626)">
<rect x="45" y="45" width="60" height="60" rx="8" fill="white"/>
</g>
<path d="M75 92C84.3888 92 92 84.3888 92 75C92 65.6112 84.3888 58 75 58C65.6112 58 58 65.6112 58 75C58 84.3888 65.6112 92 75 92Z" fill="url(#paint0_linear_253_1626)"/>
<path d="M75 92C84.3888 92 92 84.3888 92 75C92 65.6112 84.3888 58 75 58C65.6112 58 58 65.6112 58 75C58 84.3888 65.6112 92 75 92Z" fill="black" fill-opacity="0.2"/>
<path d="M80.2791 68.5697C80.0491 68.5697 79.8243 68.6379 79.633 68.7657C79.4418 68.8934 79.2928 69.075 79.2048 69.2875C79.1168 69.5 79.0938 69.7338 79.1386 69.9593C79.1835 70.1849 79.2942 70.3921 79.4568 70.5547C79.6195 70.7173 79.8267 70.8281 80.0522 70.8729C80.2778 70.9178 80.5116 70.8948 80.724 70.8068C80.9365 70.7188 81.1181 70.5697 81.2459 70.3785C81.3737 70.1873 81.4419 69.9625 81.4419 69.7325C81.4419 69.4241 81.3193 69.1283 81.1013 68.9103C80.8832 68.6922 80.5875 68.5697 80.2791 68.5697Z" fill="white"/>
<path d="M75.0814 70.093C74.1066 70.0908 73.1531 70.3782 72.342 70.9188C71.5308 71.4594 70.8986 72.2288 70.5256 73.1294C70.1526 74.03 70.0556 75.0211 70.2469 75.977C70.4382 76.9328 70.9092 77.8102 71.6001 78.4979C72.2911 79.1855 73.1707 79.6523 74.1274 79.8391C75.0842 80.0259 76.0748 79.9242 76.9736 79.5469C77.8724 79.1696 78.6388 78.5337 79.1756 77.72C79.7124 76.9063 79.9952 75.9515 79.9883 74.9767C79.9791 73.6803 79.4585 72.4399 78.5396 71.5254C77.6207 70.6108 76.3778 70.0961 75.0814 70.093V70.093ZM75.0814 78.1512C74.4576 78.1535 73.8472 77.9706 73.3275 77.6258C72.8078 77.2809 72.4021 76.7896 72.1618 76.214C71.9215 75.6384 71.8574 75.0044 71.9777 74.3924C72.098 73.7804 72.3972 73.2178 72.8374 72.7759C73.2776 72.3341 73.8391 72.0328 74.4507 71.9103C75.0623 71.7877 75.6964 71.8495 76.2729 72.0876C76.8494 72.3258 77.3422 72.7297 77.689 73.2481C78.0358 73.7666 78.2209 74.3763 78.2209 75C78.2118 75.8288 77.8777 76.6208 77.2906 77.2058C76.7034 77.7907 75.9101 78.1219 75.0814 78.1279V78.1512Z" fill="white"/>
<path d="M78.9767 84.9535H71.0232C69.436 84.9504 67.9146 84.3185 66.7922 83.1961C65.6698 82.0737 65.0379 80.5524 65.0349 78.9651V71C65.0379 69.4127 65.6698 67.8913 66.7922 66.7689C67.9146 65.6466 69.436 65.0147 71.0232 65.0116H78.9767C80.564 65.0147 82.0854 65.6466 83.2077 66.7689C84.3301 67.8913 84.962 69.4127 84.9651 71V78.9651C84.962 80.5524 84.3301 82.0737 83.2077 83.1961C82.0854 84.3185 80.564 84.9504 78.9767 84.9535V84.9535ZM71.0232 66.8837C69.9325 66.8868 68.8873 67.3214 68.116 68.0927C67.3447 68.864 66.91 69.9092 66.9069 71V78.9651C66.91 80.0548 67.3451 81.0988 68.1167 81.8682C68.8883 82.6377 69.9335 83.0697 71.0232 83.0697H78.9767C80.0664 83.0697 81.1116 82.6377 81.8833 81.8682C82.6549 81.0988 83.0899 80.0548 83.093 78.9651V71C83.0899 69.9092 82.6553 68.864 81.884 68.0927C81.1127 67.3214 80.0675 66.8868 78.9767 66.8837H71.0232Z" fill="white"/>
<defs>
<filter id="filter0_d_253_1626" x="0" y="0" width="150" height="150" filterUnits="userSpaceOnUse" color-interpolation-filters="sRGB">
<feFlood flood-opacity="0" result="BackgroundImageFix"/>
<feColorMatrix in="SourceAlpha" type="matrix" values="0 0 0 0 0 0 0 0 0 0 0 0 0 0 0 0 0 0 127 0" result="hardAlpha"/>
<feMorphology radius="5" operator="dilate" in="SourceAlpha" result="effect1_dropShadow_253_1626"/>
<feOffset/>
<feGaussianBlur stdDeviation="20"/>
<feComposite in2="hardAlpha" operator="out"/>
<feColorMatrix type="matrix" values="0 0 0 0 0 0 0 0 0 0 0 0 0 0 0 0 0 0 0.2 0"/>
<feBlend mode="normal" in2="BackgroundImageFix" result="effect1_dropShadow_253_1626"/>
<feBlend mode="normal" in="SourceGraphic" in2="effect1_dropShadow_253_1626" result="shape"/>
</filter>
<linearGradient id="paint0_linear_253_1626" x1="87.0233" y1="62.9767" x2="62.9767" y2="87.0233" gradientUnits="userSpaceOnUse">
<stop stop-color="#FBE18A"/>
<stop offset="0.21" stop-color="#FCBB45"/>
<stop offset="0.38" stop-color="#F75274"/>
<stop offset="0.52" stop-color="#D53692"/>
<stop offset="0.74" stop-color="#8F39CE"/>
<stop offset="1" stop-color="#5B4FE9"/>
</linearGradient>
</defs>
</svg>
