<svg width="18" height="13" viewBox="0 0 18 13" fill="none" xmlns="http://www.w3.org/2000/svg">
<path d="M0.287109 11.6188C0.287109 8.96535 0.287109 6.31191 0.287109 3.65394C0.314486 3.663 0.341863 3.67205 0.364677 3.68564C2.73279 5.24782 5.09633 6.81 7.46444 8.37218C8.52302 9.07402 9.57703 9.07402 10.6402 8.37218C12.7573 6.97753 14.8699 5.57837 16.9825 4.18372C17.2563 4.0026 17.5346 3.82601 17.8129 3.64941C17.8129 6.30285 17.8129 8.96082 17.8129 11.6143C17.8084 11.6233 17.7947 11.6324 17.7947 11.6414C17.562 12.5606 17.0008 12.9998 16.0426 12.9998C13.6881 12.9998 11.3337 12.9998 8.9793 12.9998C6.65226 12.9998 4.32521 12.9998 1.99817 12.9998C1.53276 12.9998 1.12667 12.864 0.784458 12.5425C0.506125 12.2935 0.36924 11.972 0.287109 11.6188Z" fill="#FF772C"/>
<path d="M0.287109 1.82481C0.287109 1.67991 0.287109 1.53048 0.287109 1.38558C0.314486 1.2905 0.341863 1.19088 0.373803 1.09579C0.606507 0.407525 1.21336 0 2.0073 0C6.70245 0 11.393 0 16.0882 0C16.1384 0 16.1931 0 16.2433 0.00452805C16.9414 0.0407525 17.5118 0.461862 17.7262 1.09579C17.7582 1.19088 17.781 1.2905 17.8129 1.38558C17.8129 1.53048 17.8129 1.67991 17.8129 1.82481C17.7034 2.27308 17.4798 2.63986 17.0829 2.90248C14.7148 4.46013 12.3558 6.02231 9.99225 7.57996C9.36258 7.99654 8.71922 7.98749 8.08955 7.57091C5.73056 6.01326 3.37614 4.45561 1.02172 2.90248C0.647573 2.65344 0.40118 2.32289 0.314486 1.88367C0.309924 1.86103 0.296235 1.84292 0.287109 1.82481Z" fill="#FF772C"/>
</svg>
