<svg width="18" height="18" viewBox="0 0 18 18" fill="none" xmlns="http://www.w3.org/2000/svg">
<path d="M9.31885 18.0001C10.6958 17.8041 11.9028 16.3646 12.6624 14.2387C11.5644 13.9924 10.4439 13.8602 9.31885 13.8445V18.0001Z" fill="#FF772C"/>
<path d="M11.5187 17.6619C11.6001 17.6383 11.6812 17.6145 11.7616 17.5884C11.8295 17.5665 11.8964 17.5429 11.9634 17.5195C12.0426 17.4921 12.1215 17.4639 12.2 17.434C12.267 17.4085 12.3333 17.3814 12.3997 17.3544C12.4764 17.3221 12.5529 17.29 12.6287 17.2577C12.6948 17.2286 12.7605 17.1981 12.8262 17.1674C12.9005 17.1323 12.9745 17.0966 13.0479 17.0594C13.1123 17.0265 13.1766 16.993 13.241 16.9585C13.3131 16.9198 13.3848 16.8803 13.456 16.8397C13.5204 16.8032 13.5825 16.7665 13.6451 16.7287C13.7149 16.6858 13.7844 16.6428 13.8533 16.5998C13.9151 16.5605 13.9767 16.5205 14.0375 16.4793C14.1054 16.4335 14.1723 16.3858 14.2389 16.3381C14.2988 16.2951 14.3584 16.2523 14.4168 16.2092C14.4812 16.1595 14.5472 16.108 14.6118 16.0564C14.6692 16.0106 14.7264 15.9651 14.7828 15.918C14.847 15.8645 14.9086 15.8091 14.971 15.7537C15.0257 15.7051 15.0807 15.6569 15.1341 15.607C15.1955 15.5496 15.2554 15.4901 15.3153 15.4311C15.3671 15.3797 15.4196 15.3292 15.4704 15.2767C15.4798 15.2669 15.4887 15.2563 15.4985 15.2463C14.7966 14.8832 14.0573 14.5981 13.2935 14.3964C12.8963 15.6653 12.1893 16.8152 11.2368 17.7416C11.2629 17.7348 11.289 17.7293 11.3151 17.7225C11.3839 17.7032 11.4515 17.6819 11.5187 17.6619Z" fill="#FF772C"/>
<path d="M17.9999 9.32227H14.1414C14.1268 10.8313 13.9083 12.3314 13.4917 13.7818C14.3411 14.0091 15.1609 14.3358 15.934 14.7553C17.2033 13.2229 17.9298 11.3123 17.9999 9.32227Z" fill="#FF772C"/>
<path d="M9.31885 8.67771H13.498C13.4817 7.222 13.2685 5.77525 12.8645 4.37683C11.7008 4.64267 10.5122 4.78463 9.31885 4.80037V8.67771Z" fill="#FF772C"/>
<path d="M9.31885 0V4.15561C10.4439 4.13971 11.5644 4.00766 12.6624 3.76134C11.9028 1.63545 10.6958 0.195952 9.31885 0Z" fill="#FF772C"/>
<path d="M9.31885 13.1996C10.5122 13.2155 11.7008 13.3575 12.8645 13.6233C13.2685 12.2249 13.4817 10.778 13.498 9.32227H9.31885V13.1996Z" fill="#FF772C"/>
<path d="M15.934 3.24463C15.1609 3.66408 14.3411 3.99082 13.4917 4.21809C13.9083 5.66846 14.1268 7.16855 14.1414 8.67762H17.9999C17.9297 6.68772 17.2031 4.77715 15.934 3.24463Z" fill="#FF772C"/>
<path d="M15.4993 2.75561C15.4899 2.746 15.4809 2.73562 15.4716 2.7257C15.4207 2.67313 15.3679 2.62245 15.3161 2.5713C15.2564 2.51228 15.1968 2.45263 15.1352 2.39534C15.082 2.3456 15.0268 2.29854 14.9721 2.24896C14.9097 2.19356 14.8474 2.13769 14.7833 2.08417C14.7276 2.03711 14.6706 1.9921 14.614 1.94693C14.5496 1.89467 14.4836 1.84273 14.4173 1.79284C14.3592 1.74893 14.3002 1.70643 14.241 1.66394C14.1737 1.61546 14.1062 1.56714 14.0377 1.52103C13.9775 1.48042 13.9164 1.44076 13.8552 1.40188C13.7856 1.35702 13.7162 1.31311 13.6453 1.27062C13.5833 1.23332 13.5206 1.19649 13.4577 1.16076C13.3857 1.11952 13.3136 1.07954 13.2409 1.04051C13.1764 1.00825 13.1122 0.973147 13.0478 0.940882C12.9737 0.903423 12.8991 0.86738 12.8226 0.831967C12.7582 0.801276 12.6928 0.771371 12.6265 0.742254C12.5503 0.708415 12.4733 0.677881 12.3965 0.645616C12.3301 0.618544 12.2642 0.591788 12.1972 0.56629C12.1191 0.536386 12.0399 0.50837 11.9607 0.480984C11.8938 0.457376 11.8269 0.433924 11.759 0.411889C11.6785 0.385762 11.5981 0.361996 11.5154 0.338073C11.4485 0.318399 11.3812 0.29841 11.3135 0.280468C11.2876 0.273385 11.2612 0.267876 11.2351 0.261108C12.1876 1.18751 12.8944 2.33726 13.2918 3.60631C14.0564 3.40453 14.7968 3.11934 15.4993 2.75561Z" fill="#FF772C"/>
<path d="M-0.00610352 8.67762H3.85238C3.86699 7.16855 4.08556 5.66846 4.50195 4.21809C3.65267 3.99098 2.83292 3.66423 2.05984 3.24463C0.790545 4.77699 0.0639764 6.68772 -0.00610352 8.67762Z" fill="#FF772C"/>
<path d="M8.67535 18.0001V13.8445C7.5503 13.8604 6.42981 13.9924 5.33179 14.2387C6.0912 16.3646 7.29842 17.8041 8.67535 18.0001Z" fill="#FF772C"/>
<path d="M8.67503 9.32227H4.49585C4.51219 10.778 4.72526 12.2249 5.1294 13.6233C6.2931 13.3573 7.48147 13.2153 8.67503 13.1996V9.32227Z" fill="#FF772C"/>
<path d="M8.67535 0C7.29842 0.195952 6.0912 1.63545 5.33179 3.76134C6.42981 4.00782 7.5503 4.13987 8.67535 4.15561V0Z" fill="#FF772C"/>
<path d="M8.67503 4.80037C7.48163 4.78463 6.2931 4.64267 5.1294 4.37683C4.72526 5.77525 4.51219 7.222 4.49585 8.67771H8.67503V4.80037Z" fill="#FF772C"/>
<path d="M6.75609 0.260742C6.73001 0.26751 6.70393 0.273019 6.67784 0.279787C6.60965 0.298044 6.5424 0.318347 6.47452 0.338021C6.39375 0.36163 6.31362 0.385396 6.23254 0.411208C6.16419 0.433401 6.09693 0.457009 6.02968 0.480461C5.95096 0.508319 5.87208 0.53602 5.79415 0.565609C5.72689 0.591422 5.66058 0.618178 5.59396 0.645564C5.51744 0.677829 5.44076 0.710095 5.36518 0.742202C5.29887 0.77132 5.23335 0.801854 5.16767 0.832545C5.09335 0.867643 5.01934 0.903371 4.94596 0.940516C4.88154 0.97341 4.81711 1.00709 4.75285 1.0414C4.68072 1.08012 4.60923 1.11978 4.53821 1.16039C4.47378 1.19643 4.41046 1.23342 4.34839 1.2712C4.27847 1.31338 4.20933 1.35697 4.14051 1.4001C4.0786 1.43976 4.01716 1.47974 3.95635 1.52098C3.88847 1.56678 3.82154 1.61447 3.75491 1.66216C3.69505 1.70512 3.6355 1.74793 3.57689 1.79122C3.51105 1.84079 3.4482 1.89242 3.38189 1.94389C3.32469 1.98969 3.26703 2.03517 3.21109 2.08255C3.14666 2.13575 3.08554 2.19083 3.02347 2.24592C2.96848 2.29503 2.91301 2.34272 2.85927 2.39355C2.79815 2.45069 2.7386 2.51002 2.67889 2.56889C2.62704 2.6202 2.57424 2.67088 2.52333 2.7236C2.51406 2.73336 2.5051 2.74406 2.49536 2.75398C3.1971 3.11724 3.93656 3.40227 4.70036 3.60405C5.09759 2.33579 5.80404 1.18668 6.75609 0.260742Z" fill="#FF772C"/>
<path d="M2.67786 15.4285C2.73772 15.4876 2.79728 15.5472 2.85871 15.6047C2.91214 15.6542 2.96713 15.7013 3.02197 15.7509C3.08435 15.8064 3.14673 15.8622 3.21084 15.9157C3.26646 15.9624 3.32319 16.0076 3.38007 16.0529C3.44449 16.1052 3.50876 16.1571 3.57695 16.2073C3.63493 16.2509 3.69386 16.2931 3.75278 16.3364C3.82003 16.3847 3.88791 16.433 3.95642 16.4794C4.0166 16.5201 4.07773 16.5597 4.13885 16.5987C4.20846 16.6434 4.27791 16.6874 4.34878 16.7299C4.41084 16.7673 4.47354 16.804 4.53639 16.8399C4.60835 16.8811 4.68048 16.9211 4.75323 16.96C4.81749 16.9922 4.88192 17.0273 4.94634 17.0596C5.02035 17.097 5.09498 17.1331 5.17151 17.1687C5.23593 17.199 5.3013 17.2289 5.36761 17.2582C5.44381 17.2921 5.52065 17.3226 5.59764 17.3549C5.66395 17.3819 5.72995 17.4087 5.79688 17.4342C5.87498 17.4642 5.95417 17.4923 6.03336 17.5196C6.1003 17.5431 6.16724 17.5667 6.23512 17.5886C6.31557 17.6147 6.39602 17.6386 6.47867 17.6624C6.54561 17.6821 6.61286 17.7021 6.68042 17.7202C6.70651 17.7272 6.73291 17.7328 6.75899 17.7395C5.80647 16.813 5.0997 15.6632 4.70232 14.3942C3.93851 14.5961 3.19906 14.8811 2.49731 15.2446C2.50674 15.2542 2.5157 15.2645 2.52513 15.2745C2.57337 15.3267 2.62538 15.3774 2.67786 15.4285Z" fill="#FF772C"/>
<path d="M2.05984 14.7553C2.83292 14.3358 3.65267 14.0091 4.50195 13.7818C4.08556 12.3314 3.86699 10.8313 3.85238 9.32227H-0.00610352C0.0641335 11.3122 0.790545 13.2227 2.05984 14.7553Z" fill="#FF772C"/>
</svg>
