<svg width="13" height="11" viewBox="0 0 13 11" fill="none" xmlns="http://www.w3.org/2000/svg">
<path d="M4.17233 6.25586C4.52039 5.86423 4.85298 5.47972 5.20103 5.10232C6.77888 3.38625 8.49982 1.80548 10.4721 0.473923C10.6771 0.335071 10.8898 0.203339 11.1064 0.0751683C11.176 0.0360049 11.2649 0.0039621 11.3461 0.0039621C11.7909 -0.00315851 12.2356 0.000401796 12.6765 0.000401796C12.8157 0.000401796 12.9279 0.0431255 12.9781 0.167736C13.0284 0.288787 12.9897 0.392036 12.8853 0.481043C11.0793 1.99773 9.5904 3.76365 8.17497 5.58652C6.8717 7.26343 5.66511 9.00086 4.53199 10.7846C4.49332 10.8487 4.44304 10.9163 4.3773 10.9555C4.23808 11.0445 4.07952 10.9946 3.9751 10.8415C3.80108 10.5852 3.63865 10.3217 3.45302 10.0725C2.36631 8.63059 1.27187 7.18866 0.181301 5.7503C0.138761 5.69689 0.0923536 5.64349 0.0536808 5.58652C-0.0236648 5.47259 -0.0197975 5.34798 0.0807518 5.25542C0.370798 4.98483 0.668578 4.71425 0.966359 4.44723C1.08238 4.34398 1.20613 4.3511 1.36082 4.44723C1.84036 4.75341 2.31991 5.06316 2.79558 5.36935C3.25192 5.66485 3.70826 5.9568 4.17233 6.25586Z" fill="white"/>
</svg>
