<svg width="11" height="11" viewBox="0 0 11 11" fill="none" xmlns="http://www.w3.org/2000/svg">
<path d="M10.9992 2.83675C10.9992 3.43866 11.001 4.04013 10.9984 4.64203C10.9971 4.99792 10.8734 5.30727 10.6216 5.56061C10.253 5.93158 9.88231 6.29996 9.51201 6.66963C8.1817 7.99838 6.8514 9.32713 5.52152 10.6563C5.40297 10.7748 5.27925 10.8851 5.11717 10.9407C4.78523 11.0544 4.47658 11.007 4.21276 10.7774C3.99593 10.5882 3.79548 10.3797 3.59158 10.1763C2.52854 9.11472 1.46636 8.05181 0.405044 6.98889C0.330468 6.91435 0.257184 6.83723 0.192523 6.75408C-0.0816435 6.39991 -0.0622449 5.9096 0.245976 5.58302C0.471862 5.34346 0.708524 5.11382 0.941737 4.88072C2.27248 3.54982 3.60365 2.21934 4.93439 0.888864C5.11415 0.709198 5.29089 0.526085 5.47453 0.349866C5.70904 0.124529 5.99527 0.00475214 6.31815 0.00302872C7.545 -0.00214152 8.77142 0.000874455 9.99827 0.000874455C10.275 0.000874455 10.5255 0.0732579 10.7251 0.276621C10.8854 0.439914 10.982 0.635091 10.9885 0.865167C10.9971 1.19994 10.9975 1.53471 10.9992 1.86949C11.001 2.19177 10.9992 2.51404 10.9992 2.83632V2.83675ZM9.16327 2.75748C9.1706 2.26243 8.77271 1.85268 8.28603 1.83545C7.76571 1.81692 7.3355 2.2271 7.33075 2.74671C7.32644 3.23788 7.72562 3.64978 8.21059 3.66916C8.72616 3.68984 9.17318 3.26718 9.16327 2.75748Z" fill="url(#paint0_linear_634_14225)"/>
<defs>
<linearGradient id="paint0_linear_634_14225" x1="5.5" y1="0" x2="5.5" y2="11" gradientUnits="userSpaceOnUse">
<stop stop-color="#885DF1"/>
<stop offset="1" stop-color="#6610F2"/>
</linearGradient>
</defs>
</svg>
