<svg width="14" height="14" viewBox="0 0 14 14" fill="none" xmlns="http://www.w3.org/2000/svg">
<path d="M0 3.53581C0.0698925 3.31589 0.108016 3.08004 0.212854 2.87606C0.571847 2.15893 1.16593 1.77646 1.9697 1.73184C2.19526 1.71909 2.424 1.72865 2.66544 1.72865C2.66544 1.5661 2.66544 1.41312 2.66544 1.26332C2.66544 0.941404 2.87512 0.715111 3.17058 0.711923C3.46603 0.711923 3.67571 0.938217 3.67889 1.26013C3.67889 1.41312 3.67889 1.56292 3.67889 1.72228C4.44135 1.72228 5.1911 1.72228 5.9631 1.72228C5.9631 1.55335 5.95674 1.38124 5.9631 1.20913C5.97581 0.858536 6.30621 0.629055 6.63343 0.740608C6.83358 0.80754 6.97018 0.9924 6.97654 1.21232C6.98289 1.37806 6.97654 1.54379 6.97654 1.71909C7.74536 1.71909 8.50782 1.71909 9.28617 1.71909C9.28617 1.55017 9.27981 1.37806 9.28617 1.20594C9.30523 0.80754 9.72776 0.581247 10.0613 0.791604C10.217 0.890409 10.2933 1.03383 10.2996 1.21551C10.3028 1.38124 10.2996 1.54379 10.2996 1.72865C10.4489 1.72865 10.5919 1.73184 10.7317 1.72865C11.0494 1.72228 11.3639 1.74459 11.6657 1.85933C12.4218 2.1398 12.9682 2.87606 12.9809 3.68561C12.9968 4.67684 12.9873 5.67126 12.9841 6.66249C12.9841 6.95572 12.7586 7.17564 12.479 7.17564C12.1931 7.17564 11.9738 6.95253 11.9738 6.65293C11.9707 5.7127 11.9738 4.76927 11.9738 3.82904C11.9738 3.39239 11.7959 3.05773 11.3988 2.86012C11.2845 2.80275 11.151 2.76769 11.0239 2.76132C10.7889 2.74538 10.5506 2.75813 10.2996 2.75813C10.2996 2.91112 10.2996 3.0641 10.2996 3.2139C10.2964 3.54538 10.0868 3.77486 9.78494 3.77167C9.48949 3.76848 9.28617 3.54219 9.28299 3.21709C9.28299 3.07048 9.28299 2.92068 9.28299 2.7645C8.51417 2.7645 7.75171 2.7645 6.97336 2.7645C6.97336 2.90474 6.97336 3.04179 6.97336 3.18203C6.97336 3.539 6.77639 3.77167 6.46823 3.77167C6.16007 3.77486 5.95992 3.54219 5.95674 3.18522C5.95674 3.04498 5.95674 2.90793 5.95674 2.76132C5.19428 2.76132 4.44453 2.76132 3.67253 2.76132C3.67253 2.93024 3.67889 3.10235 3.67253 3.27127C3.65982 3.62187 3.32942 3.85135 3.00538 3.74298C2.80205 3.67605 2.66544 3.48801 2.66227 3.25852C2.65909 3.09598 2.66227 2.93024 2.66227 2.74219C2.36364 2.75813 2.07136 2.73901 1.79497 2.79319C1.34066 2.86968 1.04203 3.26809 1.01662 3.74298C1.01344 3.77804 1.01662 3.80992 1.01662 3.84498C1.01662 6.43939 1.01662 9.03698 1.01662 11.6314C1.01662 12.0712 1.18817 12.4186 1.59164 12.6099C1.74731 12.6832 1.93157 12.7151 2.1063 12.7182C3.35484 12.7278 4.6002 12.7246 5.84873 12.7214C6.01393 12.7214 6.16007 12.7565 6.27761 12.8776C6.52224 13.1262 6.44599 13.5405 6.13148 13.6903C6.09335 13.7095 6.05523 13.7254 6.01711 13.7413C4.6129 13.7413 3.2087 13.7413 1.8045 13.7413C1.78543 13.735 1.76637 13.7222 1.74731 13.719C1.0325 13.6043 0.514663 13.2186 0.203324 12.5684C0.108016 12.3708 0.0698925 12.1477 0.00317693 11.9342C0 9.13579 0 6.33739 0 3.53581Z" fill="#1778F2"/>
<path d="M9.6676 13.7417C9.3785 13.6684 9.07987 13.6237 8.8003 13.5217C7.48188 13.0373 6.64952 11.5743 6.89414 10.1911C7.11018 8.97037 7.80592 8.12576 8.97821 7.74647C10.1823 7.35444 11.2688 7.6413 12.1456 8.55603C12.9526 9.40065 13.194 10.4301 12.8541 11.5457C12.4919 12.7345 11.6595 13.4516 10.4364 13.6939C10.3506 13.7098 10.2617 13.7257 10.1759 13.7417C10.0044 13.7417 9.83598 13.7417 9.6676 13.7417ZM11.9741 10.6596C11.9741 9.52495 11.0432 8.59747 9.91541 8.60065C8.78759 8.60384 7.86946 9.52814 7.86628 10.6564C7.86311 11.7911 8.78759 12.7217 9.91858 12.7217C11.0496 12.7249 11.9772 11.7943 11.9741 10.6596Z" fill="#1778F2"/>
<path d="M3.67754 6.05757C3.67754 6.33804 3.44562 6.56752 3.16605 6.56434C2.88648 6.56115 2.66092 6.32848 2.6641 6.048C2.66727 5.7739 2.89601 5.54761 3.16923 5.54761C3.4488 5.54761 3.67754 5.77709 3.67754 6.05757Z" fill="#1778F2"/>
<path d="M5.38258 6.56411C5.10301 6.5673 4.87427 6.33463 4.87109 6.05734C4.87109 5.77686 5.10301 5.54738 5.3794 5.55057C5.65262 5.55376 5.87818 5.77686 5.88453 6.05097C5.89089 6.32826 5.66215 6.56411 5.38258 6.56411Z" fill="#1778F2"/>
<path d="M8.0916 6.06053C8.0916 6.341 7.85968 6.57048 7.58011 6.5673C7.30054 6.56411 7.07498 6.33144 7.07816 6.05097C7.08451 5.77686 7.31007 5.55057 7.58329 5.55057C7.86604 5.54738 8.09478 5.78005 8.0916 6.06053Z" fill="#1778F2"/>
<path d="M9.79737 6.56388C9.5178 6.56388 9.28906 6.3344 9.28906 6.05392C9.28906 5.77345 9.52098 5.54396 9.80055 5.54715C10.0738 5.55034 10.2993 5.77663 10.3025 6.05074C10.3057 6.33121 10.0769 6.56388 9.79737 6.56388Z" fill="#1778F2"/>
<path d="M3.16615 7.76248C3.44572 7.7593 3.67763 7.98878 3.67763 8.26925C3.67763 8.54973 3.44889 8.77921 3.16932 8.77921C2.89611 8.77921 2.66737 8.55292 2.66419 8.27882C2.65784 7.99834 2.88658 7.76567 3.16615 7.76248Z" fill="#1778F2"/>
<path d="M5.38331 8.77895C5.10374 8.78214 4.875 8.54947 4.875 8.27218C4.875 7.99171 5.10692 7.76223 5.38649 7.76541C5.6597 7.7686 5.88526 7.99171 5.88844 8.26581C5.89162 8.5431 5.66288 8.77577 5.38331 8.77895Z" fill="#1778F2"/>
<path d="M3.6778 10.4942C3.67144 10.7746 3.43635 10.9977 3.15678 10.9914C2.87721 10.985 2.65483 10.746 2.66436 10.4655C2.67389 10.1914 2.9058 9.97146 3.17902 9.97464C3.45541 9.98102 3.68415 10.2169 3.6778 10.4942Z" fill="#1778F2"/>
<path d="M5.3794 10.9943C5.09983 10.9943 4.87109 10.7648 4.87109 10.4843C4.87109 10.2039 5.10301 9.97438 5.38258 9.97757C5.6558 9.98076 5.88136 10.2071 5.88453 10.4812C5.88771 10.7616 5.65897 10.9911 5.3794 10.9943Z" fill="#1778F2"/>
<path d="M10.4276 10.1558C10.5292 10.1558 10.6087 10.1526 10.6881 10.1558C10.9613 10.1749 11.1678 10.398 11.1646 10.6689C11.1614 10.9335 10.9549 11.1566 10.6849 11.1661C10.418 11.1757 10.1512 11.1757 9.88749 11.1661C9.63016 11.1566 9.42366 10.9494 9.4173 10.688C9.40777 10.3247 9.40777 9.95816 9.4173 9.59481C9.42366 9.31752 9.64922 9.11035 9.91926 9.11035C10.1893 9.11035 10.4117 9.32071 10.4244 9.59481C10.4339 9.77648 10.4276 9.95816 10.4276 10.1558Z" fill="#1778F2"/>
</svg>
