<svg width="319" height="21" viewBox="0 0 319 21" fill="none" xmlns="http://www.w3.org/2000/svg">
<path d="M315 0.998291H315.5V0.498291H315V0.998291ZM314.646 20.3536C314.842 20.5488 315.158 20.5488 315.354 20.3536L318.536 17.1716C318.731 16.9763 318.731 16.6597 318.536 16.4645C318.34 16.2692 318.024 16.2692 317.828 16.4645L315 19.2929L312.172 16.4645C311.976 16.2692 311.66 16.2692 311.464 16.4645C311.269 16.6597 311.269 16.9763 311.464 17.1716L314.646 20.3536ZM0 1.49829H0.996835V0.498291H0V1.49829ZM2.99051 1.49829H4.98418V0.498291H2.99051V1.49829ZM6.97785 1.49829H8.97152V0.498291H6.97785V1.49829ZM10.9652 1.49829H12.9589V0.498291H10.9652V1.49829ZM14.9525 1.49829H16.9462V0.498291H14.9525V1.49829ZM18.9399 1.49829H20.9335V0.498291H18.9399V1.49829ZM22.9272 1.49829H24.9209V0.498291H22.9272V1.49829ZM26.9146 1.49829H28.9082V0.498291H26.9146V1.49829ZM30.9019 1.49829H32.8956V0.498291H30.9019V1.49829ZM34.8892 1.49829H36.8829V0.498291H34.8892V1.49829ZM38.8766 1.49829H40.8703V0.498291H38.8766V1.49829ZM42.8639 1.49829H44.8576V0.498291H42.8639V1.49829ZM46.8513 1.49829H48.8449V0.498291H46.8513V1.49829ZM50.8386 1.49829H52.8323V0.498291H50.8386V1.49829ZM54.826 1.49829H56.8196V0.498291H54.826V1.49829ZM58.8133 1.49829H60.807V0.498291H58.8133V1.49829ZM62.8006 1.49829H64.7943V0.498291H62.8006V1.49829ZM66.788 1.49829H68.7817V0.498291H66.788V1.49829ZM70.7753 1.49829H72.769V0.498291H70.7753V1.49829ZM74.7627 1.49829H76.7563V0.498291H74.7627V1.49829ZM78.75 1.49829H80.7437V0.498291H78.75V1.49829ZM82.7373 1.49829H84.731V0.498291H82.7373V1.49829ZM86.7247 1.49829H88.7183V0.498291H86.7247V1.49829ZM90.712 1.49829H92.7057V0.498291H90.712V1.49829ZM94.6993 1.49829H96.693V0.498291H94.6993V1.49829ZM98.6867 1.49829H100.68V0.498291H98.6867V1.49829ZM102.674 1.49829H104.668V0.498291H102.674V1.49829ZM106.661 1.49829H108.655V0.498291H106.661V1.49829ZM110.649 1.49829H112.642V0.498291H110.649V1.49829ZM114.636 1.49829H116.63V0.498291H114.636V1.49829ZM118.623 1.49829H120.617V0.498291H118.623V1.49829ZM122.611 1.49829H124.604V0.498291H122.611V1.49829ZM126.598 1.49829H128.592V0.498291H126.598V1.49829ZM130.585 1.49829H132.579V0.498291H130.585V1.49829ZM134.573 1.49829H136.566V0.498291H134.573V1.49829ZM138.56 1.49829H140.554V0.498291H138.56V1.49829ZM142.547 1.49829H144.541V0.498291H142.547V1.49829ZM146.535 1.49829H148.528V0.498291H146.535V1.49829ZM150.522 1.49829H152.516V0.498291H150.522V1.49829ZM154.509 1.49829H156.503V0.498291H154.509V1.49829ZM158.497 1.49829H160.49V0.498291H158.497V1.49829ZM162.484 1.49829H164.478V0.498291H162.484V1.49829ZM166.471 1.49829H168.465V0.498291H166.471V1.49829ZM170.459 1.49829H172.452V0.498291H170.459V1.49829ZM174.446 1.49829H176.44V0.498291H174.446V1.49829ZM178.433 1.49829H180.427V0.498291H178.433V1.49829ZM182.421 1.49829H184.414V0.498291H182.421V1.49829ZM186.408 1.49829H188.402V0.498291H186.408V1.49829ZM190.395 1.49829H192.389V0.498291H190.395V1.49829ZM194.383 1.49829H196.376V0.498291H194.383V1.49829ZM198.37 1.49829H200.364V0.498291H198.37V1.49829ZM202.357 1.49829H204.351V0.498291H202.357V1.49829ZM206.345 1.49829H208.338V0.498291H206.345V1.49829ZM210.332 1.49829H212.326V0.498291H210.332V1.49829ZM214.319 1.49829H216.313V0.498291H214.319V1.49829ZM218.307 1.49829H220.3V0.498291H218.307V1.49829ZM222.294 1.49829H224.288V0.498291H222.294V1.49829ZM226.281 1.49829H228.275V0.498291H226.281V1.49829ZM230.269 1.49829H232.262V0.498291H230.269V1.49829ZM234.256 1.49829H236.25V0.498291H234.256V1.49829ZM238.243 1.49829H240.237V0.498291H238.243V1.49829ZM242.231 1.49829H244.224V0.498291H242.231V1.49829ZM246.218 1.49829H248.212V0.498291H246.218V1.49829ZM250.205 1.49829H252.199V0.498291H250.205V1.49829ZM254.193 1.49829H256.186V0.498291H254.193V1.49829ZM258.18 1.49829H260.174V0.498291H258.18V1.49829ZM262.167 1.49829H264.161V0.498291H262.167V1.49829ZM266.155 1.49829H268.149V0.498291H266.155V1.49829ZM270.142 1.49829H272.136V0.498291H270.142V1.49829ZM274.13 1.49829H276.123V0.498291H274.13V1.49829ZM278.117 1.49829H280.111V0.498291H278.117V1.49829ZM282.104 1.49829H284.098V0.498291H282.104V1.49829ZM286.092 1.49829H288.085V0.498291H286.092V1.49829ZM290.079 1.49829H292.073V0.498291H290.079V1.49829ZM294.066 1.49829H296.06V0.498291H294.066V1.49829ZM298.054 1.49829H300.047V0.498291H298.054V1.49829ZM302.041 1.49829H304.035V0.498291H302.041V1.49829ZM306.029 1.49829H308.022V0.498291H306.029V1.49829ZM310.016 1.49829H312.01V0.498291H310.016V1.49829ZM314.003 1.49829H315V0.498291H314.003V1.49829ZM314.5 0.998291V1.94838H315.5V0.998291H314.5ZM314.5 3.84855V5.74872H315.5V3.84855H314.5ZM314.5 7.64889V9.54906H315.5V7.64889H314.5ZM314.5 11.4492V13.3494H315.5V11.4492H314.5ZM314.5 15.2496V17.1497H315.5V15.2496H314.5ZM314.5 19.0499V20H315.5V19.0499H314.5Z" fill="#1778F2"/>
</svg>
