<svg width="158" height="21" viewBox="0 0 158 21" fill="none" xmlns="http://www.w3.org/2000/svg">
<path d="M154 0.999512H154.5V0.499512H154V0.999512ZM153.646 20.3531C153.842 20.5483 154.158 20.5483 154.354 20.3531L157.536 17.1711C157.731 16.9758 157.731 16.6592 157.536 16.464C157.34 16.2687 157.024 16.2687 156.828 16.464L154 19.2924L151.172 16.464C150.976 16.2687 150.66 16.2687 150.464 16.464C150.269 16.6592 150.269 16.9758 150.464 17.1711L153.646 20.3531ZM0 1.49951H0.987179V0.499512H0V1.49951ZM2.96154 1.49951H4.9359V0.499512H2.96154V1.49951ZM6.91026 1.49951H8.88461V0.499512H6.91026V1.49951ZM10.859 1.49951H12.8333V0.499512H10.859V1.49951ZM14.8077 1.49951H16.782V0.499512H14.8077V1.49951ZM18.7564 1.49951H20.7308V0.499512H18.7564V1.49951ZM22.7051 1.49951H24.6795V0.499512H22.7051V1.49951ZM26.6538 1.49951H28.6282V0.499512H26.6538V1.49951ZM30.6026 1.49951H32.5769V0.499512H30.6026V1.49951ZM34.5513 1.49951H36.5256V0.499512H34.5513V1.49951ZM38.5 1.49951H40.4744V0.499512H38.5V1.49951ZM42.4487 1.49951H44.4231V0.499512H42.4487V1.49951ZM46.3974 1.49951H48.3718V0.499512H46.3974V1.49951ZM50.3461 1.49951H52.3205V0.499512H50.3461V1.49951ZM54.2949 1.49951H56.2692V0.499512H54.2949V1.49951ZM58.2436 1.49951H60.2179V0.499512H58.2436V1.49951ZM62.1923 1.49951H64.1666V0.499512H62.1923V1.49951ZM66.141 1.49951H68.1154V0.499512H66.141V1.49951ZM70.0897 1.49951H72.0641V0.499512H70.0897V1.49951ZM74.0384 1.49951H76.0128V0.499512H74.0384V1.49951ZM77.9872 1.49951H79.9615V0.499512H77.9872V1.49951ZM81.9359 1.49951H83.9102V0.499512H81.9359V1.49951ZM85.8846 1.49951H87.8589V0.499512H85.8846V1.49951ZM89.8333 1.49951H91.8077V0.499512H89.8333V1.49951ZM93.782 1.49951H95.7564V0.499512H93.782V1.49951ZM97.7307 1.49951H99.7051V0.499512H97.7307V1.49951ZM101.679 1.49951H103.654V0.499512H101.679V1.49951ZM105.628 1.49951H107.603V0.499512H105.628V1.49951ZM109.577 1.49951H111.551V0.499512H109.577V1.49951ZM113.526 1.49951H115.5V0.499512H113.526V1.49951ZM117.474 1.49951H119.449V0.499512H117.474V1.49951ZM121.423 1.49951H123.397V0.499512H121.423V1.49951ZM125.372 1.49951H127.346V0.499512H125.372V1.49951ZM129.32 1.49951H131.295V0.499512H129.32V1.49951ZM133.269 1.49951H135.244V0.499512H133.269V1.49951ZM137.218 1.49951H139.192V0.499512H137.218V1.49951ZM141.167 1.49951H143.141V0.499512H141.167V1.49951ZM145.115 1.49951H147.09V0.499512H145.115V1.49951ZM149.064 1.49951H151.038V0.499512H149.064V1.49951ZM153.013 1.49951H154V0.499512H153.013V1.49951ZM153.5 0.999512V1.94951H154.5V0.999512H153.5ZM153.5 3.84951V5.74951H154.5V3.84951H153.5ZM153.5 7.64951V9.54951H154.5V7.64951H153.5ZM153.5 11.4495V13.3495H154.5V11.4495H153.5ZM153.5 15.2495V17.1495H154.5V15.2495H153.5ZM153.5 19.0495V19.9995H154.5V19.0495H153.5Z" fill="#1778F2"/>
</svg>
