<svg width="34" height="33" viewBox="0 0 34 33" fill="none" xmlns="http://www.w3.org/2000/svg">
<path d="M22.8873 0H10.5542C4.87837 0 0.277222 4.61695 0.277222 10.3122V22.6878C0.277222 28.3831 4.87837 33 10.5542 33H22.8873C28.5631 33 33.1643 28.3831 33.1643 22.6878V10.3122C33.1643 4.61695 28.5631 0 22.8873 0Z" fill="white"/>
<path d="M22.8873 0H10.5542C4.87837 0 0.277222 4.61695 0.277222 10.3122V22.6878C0.277222 28.3831 4.87837 33 10.5542 33H22.8873C28.5631 33 33.1643 28.3831 33.1643 22.6878V10.3122C33.1643 4.61695 28.5631 0 22.8873 0Z" fill="url(#paint0_radial_534_33268)"/>
<g style="mix-blend-mode:color">
<path d="M22.8873 0H10.5542C4.87837 0 0.277222 4.61695 0.277222 10.3122V22.6878C0.277222 28.3831 4.87837 33 10.5542 33H22.8873C28.5631 33 33.1643 28.3831 33.1643 22.6878V10.3122C33.1643 4.61695 28.5631 0 22.8873 0Z" fill="#1DA1F2"/>
</g>
<g style="mix-blend-mode:soft-light" opacity="0.6">
<path d="M22.8873 0H10.5542C4.87837 0 0.277222 4.61695 0.277222 10.3122V22.6878C0.277222 28.3831 4.87837 33 10.5542 33H22.8873C28.5631 33 33.1643 28.3831 33.1643 22.6878V10.3122C33.1643 4.61695 28.5631 0 22.8873 0Z" fill="#1DA1F2"/>
</g>
<path d="M13.1359 24.3778C20.4273 24.3778 24.4147 18.3165 24.4147 13.0604C24.4147 12.8882 24.4111 12.7166 24.4035 12.5461C25.1777 11.9846 25.8501 11.2839 26.3813 10.4864C25.671 10.8032 24.9065 11.0164 24.105 11.1123C24.9232 10.6199 25.5516 9.84057 25.8481 8.912C25.082 9.3674 24.2341 9.69892 23.3309 9.87763C22.6074 9.10442 21.5773 8.62109 20.4374 8.62109C18.2481 8.62109 16.4727 10.4026 16.4727 12.5984C16.4727 12.9106 16.5076 13.2142 16.5754 13.5051C13.2812 13.3391 10.3598 11.7561 8.40476 9.34912C8.06375 9.93703 7.86795 10.6199 7.86795 11.3484C7.86795 12.7283 8.56768 13.9468 9.6317 14.6596C8.98155 14.6393 8.37036 14.4601 7.83658 14.162C7.83556 14.1788 7.83556 14.1956 7.83556 14.2128C7.83556 16.1395 9.20215 17.7479 11.016 18.1124C10.6831 18.2033 10.333 18.2525 9.9712 18.2525C9.71569 18.2525 9.46727 18.2271 9.22593 18.1809C9.73036 19.7614 11.1941 20.9113 12.929 20.9438C11.572 22.0105 9.86292 22.6466 8.00557 22.6466C7.6858 22.6466 7.37009 22.6283 7.05994 22.5913C8.81459 23.7194 10.8971 24.3778 13.1365 24.3778" fill="white"/>
<defs>
<radialGradient id="paint0_radial_534_33268" cx="0" cy="0" r="1" gradientUnits="userSpaceOnUse" gradientTransform="translate(30.1043 3.07205) scale(37.8854 38.0155)">
<stop stop-color="#D7D7D7"/>
<stop offset="1" stop-color="#393939"/>
</radialGradient>
</defs>
</svg>
