<svg width="174" height="174" viewBox="0 0 174 174" fill="none" xmlns="http://www.w3.org/2000/svg">
<g filter="url(#filter0_d_253_1620)">
<rect x="57" y="57" width="60" height="60" rx="8" fill="white"/>
</g>
<g filter="url(#filter1_f_253_1620)">
<path d="M104 86.9804C103.996 83.7347 103.063 80.558 101.312 77.8255C99.5603 75.0931 97.063 72.9192 94.1154 71.5607C91.1677 70.2022 87.8927 69.716 84.6774 70.1594C81.4622 70.6028 78.4411 71.9574 75.9712 74.0631C73.5012 76.1687 71.6857 78.9374 70.7391 82.042C69.7925 85.1465 69.7544 88.4572 70.6293 91.5827C71.5043 94.7082 73.2557 97.518 75.6765 99.6799C78.0974 101.842 81.0865 103.265 84.2907 103.783V91.899H79.9767V86.9804H84.2907V83.2595C84.2907 79.0037 86.8372 76.6432 90.7209 76.6432C91.995 76.6611 93.2659 76.7738 94.5233 76.9804V81.1664H92.3721C92.0068 81.1182 91.6353 81.1525 91.285 81.2667C90.9347 81.381 90.6145 81.5724 90.3478 81.8267C90.0812 82.081 89.875 82.3919 89.7444 82.7365C89.6138 83.081 89.562 83.4505 89.593 83.8176V86.9804H94.314L93.5349 91.899H89.6046V103.783C93.6125 103.157 97.2651 101.12 99.9043 98.0392C102.544 94.9587 103.996 91.0369 104 86.9804Z" fill="url(#paint0_linear_253_1620)"/>
<path d="M83.7907 103.185C80.9005 102.612 78.2126 101.274 76.0096 99.3069C73.6599 97.2086 71.96 94.4815 71.1108 91.4479C70.2616 88.4143 70.2986 85.2011 71.2173 82.1878C72.1361 79.1745 73.8982 76.4873 76.2955 74.4436C78.6928 72.3998 81.6251 71.0851 84.7458 70.6547C87.8664 70.2243 91.0451 70.6963 93.9061 72.0148C96.7671 73.3333 99.1908 75.4433 100.891 78.0954C102.591 80.7473 103.496 83.8305 103.5 86.9805C103.496 90.9176 102.086 94.724 99.5246 97.7139C97.0902 100.555 93.7675 102.482 90.1046 103.188V92.399H93.5349H93.9619L94.0287 91.9772L94.8078 87.0586L94.8994 86.4804H94.314H90.093V83.8176V83.7966L90.0913 83.7756C90.0666 83.4829 90.1078 83.1884 90.2119 82.9137C90.3161 82.6391 90.4804 82.3912 90.693 82.1885C90.9055 81.9857 91.1608 81.8332 91.4401 81.7421C91.7193 81.651 92.0154 81.6237 92.3066 81.6621L92.3392 81.6664H92.3721H94.5233H95.0233V81.1664V76.9804V76.5559L94.6043 76.487C93.3225 76.2764 92.0268 76.1615 90.728 76.1432L90.728 76.1432H90.7209C88.6777 76.1432 86.9317 76.766 85.6959 78.0019C84.4594 79.2383 83.7907 81.0312 83.7907 83.2595V86.4804H79.9767H79.4767V86.9804V91.899V92.399H79.9767H83.7907V103.185Z" stroke="black"/>
</g>
<circle cx="87" cy="87" r="17" fill="white"/>
<path d="M104 86.9804C103.996 83.7347 103.063 80.558 101.312 77.8255C99.5603 75.0931 97.063 72.9192 94.1154 71.5607C91.1677 70.2022 87.8927 69.716 84.6774 70.1594C81.4622 70.6028 78.4411 71.9574 75.9712 74.0631C73.5012 76.1687 71.6857 78.9374 70.7391 82.042C69.7925 85.1465 69.7544 88.4572 70.6293 91.5827C71.5043 94.7082 73.2557 97.518 75.6765 99.6799C78.0974 101.842 81.0865 103.265 84.2907 103.783V91.899H79.9767V86.9804H84.2907V83.2595C84.2907 79.0037 86.8372 76.6432 90.7209 76.6432C91.995 76.6611 93.2659 76.7738 94.5233 76.9804V81.1664H92.3721C92.0068 81.1182 91.6353 81.1525 91.285 81.2667C90.9347 81.381 90.6145 81.5724 90.3478 81.8267C90.0812 82.081 89.875 82.3919 89.7444 82.7365C89.6138 83.081 89.562 83.4505 89.593 83.8176V86.9804H94.314L93.5349 91.899H89.6046V103.783C93.6125 103.157 97.2651 101.12 99.9043 98.0392C102.544 94.9587 103.996 91.0369 104 86.9804Z" fill="url(#paint1_linear_253_1620)"/>
<defs>
<filter id="filter0_d_253_1620" x="12" y="12" width="150" height="150" filterUnits="userSpaceOnUse" color-interpolation-filters="sRGB">
<feFlood flood-opacity="0" result="BackgroundImageFix"/>
<feColorMatrix in="SourceAlpha" type="matrix" values="0 0 0 0 0 0 0 0 0 0 0 0 0 0 0 0 0 0 127 0" result="hardAlpha"/>
<feMorphology radius="5" operator="dilate" in="SourceAlpha" result="effect1_dropShadow_253_1620"/>
<feOffset/>
<feGaussianBlur stdDeviation="20"/>
<feComposite in2="hardAlpha" operator="out"/>
<feColorMatrix type="matrix" values="0 0 0 0 0 0 0 0 0 0 0 0 0 0 0 0 0 0 0.2 0"/>
<feBlend mode="normal" in2="BackgroundImageFix" result="effect1_dropShadow_253_1620"/>
<feBlend mode="normal" in="SourceGraphic" in2="effect1_dropShadow_253_1620" result="shape"/>
</filter>
<filter id="filter1_f_253_1620" x="0" y="0" width="174" height="173.783" filterUnits="userSpaceOnUse" color-interpolation-filters="sRGB">
<feFlood flood-opacity="0" result="BackgroundImageFix"/>
<feBlend mode="normal" in="SourceGraphic" in2="BackgroundImageFix" result="shape"/>
<feGaussianBlur stdDeviation="35" result="effect1_foregroundBlur_253_1620"/>
</filter>
<linearGradient id="paint0_linear_253_1620" x1="74.9302" y1="74.9688" x2="98.9767" y2="99.0037" gradientUnits="userSpaceOnUse">
<stop stop-color="#4676ED"/>
<stop offset="0.19" stop-color="#436DE4"/>
<stop offset="0.49" stop-color="#3C55CD"/>
<stop offset="0.87" stop-color="#302EA8"/>
<stop offset="1" stop-color="#2B1E99"/>
</linearGradient>
<linearGradient id="paint1_linear_253_1620" x1="74.9302" y1="74.9688" x2="98.9767" y2="99.0037" gradientUnits="userSpaceOnUse">
<stop stop-color="#4676ED"/>
<stop offset="0.19" stop-color="#436DE4"/>
<stop offset="0.49" stop-color="#3C55CD"/>
<stop offset="0.87" stop-color="#302EA8"/>
<stop offset="1" stop-color="#2B1E99"/>
</linearGradient>
</defs>
</svg>
