<svg width="150" height="150" viewBox="0 0 150 150" fill="none" xmlns="http://www.w3.org/2000/svg">
<g filter="url(#filter0_d_253_1633)">
<rect x="45" y="45" width="60" height="60" rx="8" fill="white"/>
</g>
<path d="M75 92C84.3888 92 92 84.3888 92 75C92 65.6112 84.3888 58 75 58C65.6112 58 58 65.6112 58 75C58 84.3888 65.6112 92 75 92Z" fill="url(#paint0_linear_253_1633)"/>
<path d="M84.3954 69.1744C83.7967 69.4318 83.1676 69.6116 82.5233 69.7093C82.8256 69.7093 83.2675 69.1163 83.4419 68.8953C83.7234 68.5513 83.9365 68.1566 84.0698 67.7325C84.0698 67.7325 84.0698 67.6628 84.0698 67.6395C84.0556 67.6313 84.0396 67.627 84.0233 67.627C84.0069 67.627 83.9909 67.6313 83.9767 67.6395C83.2716 68.0161 82.5214 68.3013 81.7442 68.4884C81.7212 68.5016 81.6951 68.5086 81.6686 68.5086C81.6421 68.5086 81.616 68.5016 81.593 68.4884C81.5371 68.417 81.4749 68.3508 81.407 68.2907C81.082 68.0195 80.7173 67.7998 80.3256 67.6395C79.8032 67.4242 79.2381 67.3327 78.6744 67.3721C78.126 67.4076 77.5911 67.5582 77.1047 67.8139C76.6066 68.0712 76.1687 68.4312 75.8199 68.8702C75.4712 69.3092 75.2195 69.8171 75.0814 70.3604C74.9768 70.8863 74.9768 71.4276 75.0814 71.9535C75.0814 72.0465 75.0814 72.0581 75 72.0465C72.0571 71.7452 69.3327 70.3561 67.3605 68.1511C67.2791 68.0581 67.2326 68.0581 67.1512 68.1511C66.7553 68.8848 66.6061 69.7263 66.7254 70.5514C66.8448 71.3764 67.2264 72.1411 67.814 72.7325C67.9651 72.8721 68.1163 73.0116 68.2791 73.1395C67.7691 73.0994 67.2716 72.9612 66.814 72.7325C66.7209 72.7325 66.6744 72.7325 66.6628 72.8023C66.6517 72.9494 66.6517 73.0971 66.6628 73.2442C66.751 73.9306 67.0205 74.5811 67.4435 75.1288C67.8666 75.6765 68.4279 76.1017 69.0698 76.3604C69.2247 76.4335 69.3891 76.4844 69.5582 76.5116C69.0813 76.5972 68.5931 76.5972 68.1163 76.5116C68.0116 76.5116 67.9651 76.5116 68.0116 76.6511C68.2594 77.2974 68.6683 77.8696 69.1994 78.3132C69.7306 78.7569 70.3665 79.0574 71.0465 79.186C71.1861 79.186 71.3256 79.186 71.4651 79.186C71.6047 79.186 71.4651 79.186 71.4651 79.186C70.8722 79.719 70.1575 80.0983 69.3837 80.2907C68.3749 80.6516 67.3 80.7904 66.2326 80.6977C66.0698 80.6977 66.0349 80.6977 65.9884 80.6977C65.9419 80.6977 65.9884 80.7674 65.9884 80.8023C66.1986 80.9451 66.4159 81.077 66.6395 81.1977C67.3092 81.5511 68.0147 81.8318 68.7442 82.0349C70.6242 82.6019 72.6202 82.6652 74.5323 82.2183C76.4445 81.7713 78.2056 80.83 79.6395 79.4884C80.6622 78.3838 81.456 77.0876 81.9749 75.6746C82.4938 74.2615 82.7276 72.7597 82.6628 71.2558C82.6628 71.1395 82.8023 71.0697 82.8954 71.0116C83.4594 70.5698 83.9568 70.0489 84.3721 69.4651C84.4418 69.3845 84.4791 69.2809 84.4768 69.1744V69.1744C84.4768 69.1744 84.4768 69.1395 84.3954 69.1744Z" fill="white"/>
<defs>
<filter id="filter0_d_253_1633" x="0" y="0" width="150" height="150" filterUnits="userSpaceOnUse" color-interpolation-filters="sRGB">
<feFlood flood-opacity="0" result="BackgroundImageFix"/>
<feColorMatrix in="SourceAlpha" type="matrix" values="0 0 0 0 0 0 0 0 0 0 0 0 0 0 0 0 0 0 127 0" result="hardAlpha"/>
<feMorphology radius="5" operator="dilate" in="SourceAlpha" result="effect1_dropShadow_253_1633"/>
<feOffset/>
<feGaussianBlur stdDeviation="20"/>
<feComposite in2="hardAlpha" operator="out"/>
<feColorMatrix type="matrix" values="0 0 0 0 0 0 0 0 0 0 0 0 0 0 0 0 0 0 0.2 0"/>
<feBlend mode="normal" in2="BackgroundImageFix" result="effect1_dropShadow_253_1633"/>
<feBlend mode="normal" in="SourceGraphic" in2="effect1_dropShadow_253_1633" result="shape"/>
</filter>
<linearGradient id="paint0_linear_253_1633" x1="87.0233" y1="62.9767" x2="62.9767" y2="87.0233" gradientUnits="userSpaceOnUse">
<stop stop-color="#33CCFF"/>
<stop offset="1" stop-color="#337FFF"/>
</linearGradient>
</defs>
</svg>
