<svg width="34" height="34" viewBox="0 0 34 34" fill="none" xmlns="http://www.w3.org/2000/svg">
<path d="M23.2329 0L10.8008 0C5.07955 0 0.441528 4.65396 0.441528 10.3949L0.441528 22.8696C0.441528 28.6105 5.07955 33.2645 10.8008 33.2645H23.2329C28.9541 33.2645 33.5922 28.6105 33.5922 22.8696V10.3949C33.5922 4.65396 28.9541 0 23.2329 0Z" fill="white"/>
<path d="M23.2329 0L10.8008 0C5.07955 0 0.441528 4.65396 0.441528 10.3949L0.441528 22.8696C0.441528 28.6105 5.07955 33.2645 10.8008 33.2645H23.2329C28.9541 33.2645 33.5922 28.6105 33.5922 22.8696V10.3949C33.5922 4.65396 28.9541 0 23.2329 0Z" fill="url(#paint0_radial_534_33261)"/>
<g style="mix-blend-mode:overlay" opacity="0.9">
<path d="M23.2329 0L10.8008 0C5.07955 0 0.441528 4.65396 0.441528 10.3949L0.441528 22.8696C0.441528 28.6105 5.07955 33.2645 10.8008 33.2645H23.2329C28.9541 33.2645 33.5922 28.6105 33.5922 22.8696V10.3949C33.5922 4.65396 28.9541 0 23.2329 0Z" fill="#333333"/>
</g>
<path d="M25.5484 11.3959V14.7249H25.5454C25.3827 14.7407 25.219 14.7489 25.0552 14.75C23.26 14.75 21.5856 13.8421 20.6018 12.335V20.5585C20.6018 23.9151 17.8901 26.6366 14.5444 26.6366C11.1988 26.6366 8.48706 23.9156 8.48706 20.5585C8.48706 17.2013 11.1988 14.4803 14.5444 14.4803C14.6709 14.4803 14.7944 14.4915 14.9188 14.4997V17.495C14.7944 17.4802 14.6725 17.4572 14.5444 17.4572C12.8369 17.4572 11.4528 18.8461 11.4528 20.5595C11.4528 22.2729 12.8369 23.6618 14.5444 23.6618C16.252 23.6618 17.7601 22.3117 17.7601 20.5979L17.7902 6.63086H20.6457C20.915 9.20041 22.98 11.2075 25.5479 11.3959H25.5484Z" fill="white"/>
<defs>
<radialGradient id="paint0_radial_534_33261" cx="0" cy="0" r="1" gradientUnits="userSpaceOnUse" gradientTransform="translate(30.8728 3.09667) scale(38.5756 38.7081)">
<stop stop-color="#D1D1D1"/>
<stop offset="1" stop-color="#3F3F3F"/>
</radialGradient>
</defs>
</svg>
