<svg width="57" height="49" viewBox="0 0 57 49" fill="none" xmlns="http://www.w3.org/2000/svg">
<path d="M4.31107 48.9531C4.44502 48.8289 4.54549 48.7395 4.63925 48.6479C5.53004 47.778 6.43199 46.9146 7.31161 46.0316C8.77617 44.5599 9.57765 42.7699 9.89021 40.7597C9.9036 40.6747 9.79867 40.5351 9.70937 40.4763C8.39217 39.6063 7.13747 38.6579 6.0212 37.5547C3.25507 34.8185 1.29713 31.6353 0.448758 27.8416C0.0290392 25.9622 -0.109379 24.0654 0.089318 22.1511C0.549223 17.7056 2.31294 13.7876 5.12818 10.2927C7.53933 7.30132 10.551 5.04257 13.9981 3.30925C16.6258 1.98801 19.4098 1.09628 22.3054 0.551217C24.7233 0.0955407 27.1746 -0.0418161 29.6393 0.0105103C33.0417 0.0824591 36.3794 0.570839 39.63 1.54106C43.019 2.5527 46.1245 4.10723 48.8772 6.3202C52.2617 9.04118 54.6193 12.4402 55.9901 16.489C56.8206 18.944 57.1175 21.4774 56.959 24.0632C56.8429 25.9797 56.4612 27.8438 55.8338 29.6621C54.885 32.4115 53.3468 34.8207 51.3978 36.9966C49.5559 39.0526 47.3501 40.655 44.9167 41.9719C42.0478 43.5243 38.9647 44.4836 35.7498 45.0875C32.4233 45.7111 29.07 45.8441 25.6989 45.6195C23.5311 45.4756 21.4012 45.0897 19.2959 44.573C19.0838 44.5207 18.9432 44.5512 18.7802 44.7082C16.4986 46.9342 13.7525 48.2838 10.5734 48.7744C9.68035 48.9117 8.76723 48.9553 7.86305 48.9837C6.74231 49.0164 5.61934 48.9902 4.49637 48.988C4.45395 48.988 4.41376 48.9749 4.31107 48.9553V48.9531Z" fill="url(#paint0_linear_269_10413)"/>
<path d="M39.9512 22.4552C39.9268 22.9182 39.878 23.3812 39.8536 23.8685C39.756 25.3062 39.5608 26.7195 39.146 28.084C38.6092 29.8141 37.6088 31.2761 36.2668 32.5189C35.0712 33.6397 33.7047 34.4926 32.1919 35.1261C31.5331 35.3942 30.9231 35.1749 30.6059 34.5413C30.2887 33.9078 29.9715 33.2499 29.6787 32.6163C29.3859 31.9584 29.6299 31.3249 30.2887 31.0081C31.0939 30.6426 31.8503 30.2283 32.5335 29.6435C33.6071 28.7176 34.2171 27.5236 34.5099 26.1834C34.6319 25.6717 34.6807 25.16 34.7539 24.6483C34.7783 24.429 34.7539 24.2097 34.7539 23.966C34.6807 23.966 34.5831 23.966 34.5099 23.966C33.4363 23.966 32.3383 23.966 31.2647 23.966C30.4595 23.966 29.9715 23.503 29.9715 22.6745C29.9715 20.2134 29.9715 17.7524 29.9715 15.2913C29.9715 14.4628 30.4595 13.9998 31.2891 13.9998C33.7535 13.9998 36.218 13.9998 38.6824 13.9998C39.3656 13.9998 39.756 14.3166 40 14.9258C39.9512 17.4356 39.9512 19.9454 39.9512 22.4552Z" fill="white"/>
<path d="M21.0652 23.966C20.9188 23.966 20.8212 23.966 20.748 23.966C19.6255 23.966 18.5275 23.966 17.4051 23.966C16.6975 23.966 16.2095 23.4787 16.1851 22.772C16.1851 20.2622 16.1851 17.728 16.1851 15.2182C16.1851 14.5359 16.6243 14.0729 17.2831 13.9998C17.3563 13.9998 17.4295 13.9998 17.5271 13.9998C19.9671 13.9998 22.4072 13.9998 24.8472 13.9998C25.7256 13.9998 26.1892 14.4628 26.1892 15.34C26.1892 17.5574 26.1892 19.7992 26.1892 22.0166C26.1648 23.5274 26.0428 25.0382 25.7988 26.5246C25.3108 29.1075 24.0176 31.2274 22.0412 32.9087C20.9676 33.8103 19.7719 34.5413 18.4787 35.1018C17.7711 35.3942 17.1611 35.1749 16.8195 34.4926C16.5267 33.8834 16.2339 33.2986 15.9411 32.6894C15.5995 31.9584 15.8191 31.3249 16.5511 31.0081C17.4783 30.5939 18.3567 30.0822 19.0887 29.3511C20.0647 28.3765 20.5772 27.1581 20.7968 25.8423C20.9432 25.2087 20.992 24.5995 21.0652 23.966Z" fill="white"/>
<defs>
<linearGradient id="paint0_linear_269_10413" x1="28.5" y1="0" x2="28.5" y2="49" gradientUnits="userSpaceOnUse">
<stop stop-color="#885DF1"/>
<stop offset="1" stop-color="#6610F2"/>
</linearGradient>
</defs>
</svg>
