<svg width="21" height="15" viewBox="0 0 21 15" fill="none" xmlns="http://www.w3.org/2000/svg">
<path d="M9.98942 13.9994C8.88662 13.9658 7.67101 13.6271 6.51449 13.0499C5.64806 12.6167 4.82845 12.0995 4.06409 11.4919C3.09559 10.7217 2.21304 9.85461 1.40954 8.90108C1.15322 8.59685 0.916085 8.275 0.675879 7.95716C0.533137 7.76821 0.458696 7.55285 0.538509 7.31587C0.577648 7.19978 0.642879 7.08769 0.715785 6.98922C1.67277 5.69222 2.7702 4.53854 4.02188 3.55138C5.03565 2.75157 6.1162 2.06545 7.31262 1.59709C8.40544 1.16796 9.5328 0.948592 10.7008 1.01024C11.5036 1.05267 12.281 1.23681 13.0407 1.50982C14.1059 1.89331 15.0736 2.46575 15.9984 3.12866C17.2647 4.03656 18.3698 5.12619 19.3659 6.34152C19.5478 6.56329 19.7227 6.79307 19.8916 7.02524C20.1402 7.36711 20.141 7.63851 19.8916 7.97717C19.3321 8.73695 18.722 9.4487 18.0543 10.1092C17.5824 10.576 17.0997 11.0299 16.5793 11.4358C15.3906 12.3637 14.1282 13.1531 12.6954 13.6079C11.8735 13.8689 11.0347 14.0106 9.99019 13.9994H9.98942ZM1.96286 7.50561C2.15318 7.73219 2.3343 7.95876 2.52615 8.17572C3.12859 8.85865 3.77323 9.49594 4.45701 10.0908C5.13465 10.6792 5.85834 11.1956 6.64035 11.6232C7.60348 12.15 8.61111 12.5343 9.70547 12.6295C10.3601 12.6864 11.0109 12.6608 11.654 12.5142C12.5158 12.3189 13.3247 11.9794 14.0967 11.5391C14.7912 11.142 15.4405 10.6768 16.0529 10.1516C16.9539 9.37905 17.785 8.5344 18.5378 7.60569C18.6391 7.48079 18.6353 7.51602 18.5332 7.39112C17.7689 6.46001 16.9377 5.60095 16.0237 4.82836C15.2264 4.15425 14.3753 3.5698 13.4421 3.11985C12.6747 2.74997 11.8773 2.47936 11.0347 2.38329C10.0293 2.268 9.04548 2.38809 8.08619 2.72515C6.91816 3.13587 5.86448 3.76675 4.89214 4.54655C3.8423 5.38799 2.90066 6.34873 2.04421 7.40073C2.01812 7.43356 1.99356 7.46718 1.96439 7.50561H1.96286Z" fill="#1778F2" stroke="#27AE60" stroke-width="0.2"/>
<path d="M10.2906 3.46955C12.414 3.46955 14.1738 5.29575 14.1577 7.51665C14.1408 9.74636 12.4317 11.5261 10.2898 11.5293C8.21851 11.5325 6.42962 9.82241 6.42579 7.50544C6.42195 5.20368 8.20009 3.48636 10.2906 3.46875V3.46955ZM10.2906 10.1955C11.7134 10.2011 12.8684 9.00419 12.8745 7.51825C12.8806 6.00349 11.7356 4.80898 10.2652 4.80737C8.87159 4.80657 7.70049 6.00269 7.70433 7.50944C7.70893 8.99058 8.8524 10.1899 10.2906 10.1955Z" fill="#1778F2" stroke="#27AE60" stroke-width="0.2"/>
</svg>
