<svg width="15" height="17" viewBox="0 0 15 17" fill="none" xmlns="http://www.w3.org/2000/svg">
<path d="M1.37833 9.77904C1.37833 8.37734 1.37833 6.97565 1.37833 5.57467C1.37833 5.26287 1.50517 5.0191 1.78225 4.87099C2.21381 4.63997 2.71057 4.85327 2.84309 5.32523C2.86931 5.41735 2.87923 5.51656 2.87994 5.61223C2.88206 8.38868 2.88135 11.1658 2.88135 13.9423C2.88135 14.585 3.43764 15.2235 4.07541 15.3121C4.15407 15.3227 4.23344 15.3291 4.31281 15.3291C6.37354 15.3298 8.43426 15.322 10.495 15.3341C11.271 15.3383 11.9349 14.6247 11.9314 13.8998C11.9194 11.1262 11.9264 8.35254 11.9264 5.57892C11.9264 5.20122 12.166 4.87382 12.4948 4.79871C12.9667 4.6917 13.3976 5.01414 13.4252 5.49885C13.4337 5.64837 13.4337 5.79931 13.4344 5.94883C13.4344 8.546 13.4337 11.1432 13.4359 13.7396C13.4359 14.3951 13.2927 15.0095 12.9178 15.5516C12.4381 16.244 11.7691 16.6521 10.9407 16.791C10.7331 16.8258 10.5191 16.8336 10.3079 16.8343C8.32371 16.8371 6.33952 16.8406 4.35533 16.8343C3.59566 16.8314 2.91182 16.594 2.34845 16.0732C1.84036 15.6034 1.51013 15.0244 1.42084 14.3335C1.37407 13.9706 1.37691 13.6 1.37549 13.2322C1.37053 12.0807 1.37336 10.9299 1.37336 9.77833C1.37478 9.77833 1.37691 9.77833 1.37833 9.77833V9.77904Z" fill="#FE2C55" stroke="#FE2C55" stroke-width="0.2"/>
<path d="M4.38699 2.50578C4.38699 2.47177 4.38699 2.44555 4.38699 2.42004C4.38699 1.96367 4.38416 1.50731 4.38912 1.05094C4.39266 0.673944 4.601 0.386945 4.94327 0.288444C5.04603 0.258681 5.15799 0.251594 5.26571 0.250886C6.68795 0.249469 8.10948 0.250177 9.53172 0.250177C9.72873 0.250177 9.91935 0.271436 10.0866 0.389071C10.2758 0.522295 10.3828 0.703707 10.409 0.932598C10.4161 0.997085 10.4211 1.06157 10.4211 1.12606C10.4225 1.55266 10.4246 1.97997 10.4204 2.40657C10.4197 2.48948 10.4416 2.51074 10.5224 2.51074C11.3792 2.50862 12.2359 2.50932 13.0926 2.51074C13.2195 2.51074 13.3463 2.50862 13.4725 2.51499C13.8573 2.53413 14.1797 2.85372 14.184 3.24489C14.1882 3.62047 13.9629 3.92306 13.5526 4.00031C13.4838 4.01306 13.4122 4.01802 13.3421 4.01802C9.36803 4.01873 5.39326 4.01873 1.4192 4.01802C1.00819 4.01802 0.705603 3.76362 0.634738 3.3604C0.566 2.96852 0.889849 2.55043 1.29094 2.51641C1.36393 2.51003 1.43763 2.50932 1.51133 2.50932C2.42406 2.50932 3.33679 2.50932 4.24952 2.50932C4.29274 2.50932 4.33597 2.50578 4.3877 2.50366L4.38699 2.50578ZM8.91096 1.75817C8.64663 1.75817 8.39436 1.75817 8.14137 1.75817C7.42281 1.75817 6.70496 1.75958 5.98639 1.75675C5.90774 1.75675 5.88222 1.77801 5.88931 1.85667C5.89852 1.95588 5.89781 2.0565 5.89852 2.15642C5.89994 2.27051 5.89852 2.3846 5.89852 2.50507C5.94317 2.5072 5.97789 2.51003 6.01261 2.51003C6.88991 2.51003 7.76721 2.51074 8.64451 2.51074C8.71254 2.51074 8.78057 2.51499 8.84718 2.50862C8.86985 2.50649 8.9067 2.47602 8.90741 2.4583C8.91166 2.22941 8.91025 1.99981 8.91025 1.75817H8.91096Z" fill="#FE2C55" stroke="#FE2C55" stroke-width="0.2"/>
<path d="M8.16284 9.68923C8.16284 8.81194 8.1593 7.93464 8.16426 7.05734C8.16638 6.6605 8.40945 6.36854 8.77298 6.2991C9.18612 6.22044 9.56666 6.48193 9.64532 6.90002C9.65665 6.96026 9.66374 7.02262 9.66374 7.08356C9.66445 8.80556 9.66516 10.5283 9.66374 12.2503C9.66374 12.6797 9.42564 12.9752 9.02526 13.0482C8.60291 13.1247 8.19331 12.8101 8.16355 12.3821C8.15434 12.2474 8.15646 12.1114 8.15646 11.976C8.15646 11.2135 8.15646 10.451 8.15646 9.68853C8.15859 9.68853 8.16001 9.68853 8.16213 9.68853L8.16284 9.68923Z" fill="#FE2C55" stroke="#FE2C55" stroke-width="0.2"/>
<path d="M6.65173 9.69107C6.65173 10.518 6.65173 11.345 6.65173 12.1727C6.65173 12.2578 6.6496 12.3442 6.63614 12.4278C6.56032 12.9069 6.12592 13.0805 5.8538 13.0614C5.45342 13.033 5.15366 12.7042 5.14516 12.2946C5.14091 12.1004 5.14445 11.9063 5.14445 11.7121C5.14445 10.1637 5.14445 8.61535 5.14445 7.06697C5.14445 6.66588 5.40948 6.35691 5.80349 6.29384C6.18686 6.23219 6.56811 6.50572 6.62693 6.89335C6.6489 7.03791 6.65102 7.18673 6.65102 7.33342C6.65315 8.1193 6.65173 8.90518 6.65173 9.69107Z" fill="#FE2C55" stroke="#FE2C55" stroke-width="0.2"/>
</svg>
