<svg width="37" height="35" viewBox="0 0 37 35" fill="none" xmlns="http://www.w3.org/2000/svg">
<path d="M27.7439 34.0504C27.7439 33.7155 27.7439 33.4601 27.7439 33.2048C27.7439 26.8472 27.751 20.4881 27.7326 14.1305C27.7311 13.5843 27.9028 13.2083 28.2901 12.8394C29.6082 11.5838 30.8965 10.2983 32.1918 9.02001C32.5635 8.65396 32.9537 8.37162 33.5099 8.60005C34.0817 8.83415 34.2037 9.29951 34.2037 9.86419C34.1966 17.4746 34.2008 25.0864 34.198 32.6968C34.198 33.6914 33.8334 34.0475 32.8246 34.0504C31.1717 34.0532 29.5188 34.0504 27.7453 34.0504H27.7439Z" fill="#1778F2"/>
<path d="M13.9093 11.4731C13.6979 11.6731 13.5092 11.8434 13.3276 12.0236C9.67424 15.6585 6.02227 19.2949 2.37029 22.9298C2.30361 22.9965 2.23693 23.0632 2.16882 23.1299C1.43389 23.8549 0.840834 23.9641 0.332906 23.4676C-0.183535 22.9625 -0.0856382 22.3637 0.639365 21.643C2.81863 19.4765 5.00074 17.3128 7.18 15.1463C9.09112 13.2466 10.998 11.3411 12.9091 9.44136C13.6511 8.70359 14.1676 8.70075 14.8997 9.43001C16.5242 11.0489 18.143 12.6734 19.7647 14.2936C19.9279 14.4568 20.1024 14.61 20.2925 14.7888C24.4694 10.5466 28.6194 6.33278 32.758 2.13032C32.2827 2.13032 31.701 2.14025 31.1207 2.12748C30.4156 2.11187 29.9502 1.68482 29.946 1.07474C29.9431 0.464655 30.4071 0.0177349 31.108 0.010641C32.4558 -0.00354698 33.8022 -0.00354698 35.1501 0.010641C35.9233 0.0191537 36.3135 0.420672 36.3206 1.20668C36.3334 2.53042 36.332 3.85415 36.3206 5.17789C36.3149 5.92559 35.8652 6.40372 35.2296 6.38386C34.6209 6.364 34.2208 5.90005 34.2023 5.18356C34.1938 4.85866 34.2023 4.53234 34.2023 4.06413C33.9285 4.31242 33.7412 4.46991 33.5667 4.64158C29.5061 8.67238 25.4484 12.7032 21.3892 16.7354C20.5082 17.6108 20.0797 17.6122 19.2071 16.7396C17.6181 15.152 16.0319 13.563 14.4414 11.9767C14.2768 11.8136 14.1037 11.6589 13.9079 11.4759L13.9093 11.4731Z" fill="#1778F2"/>
<path d="M12.8169 15.538V34.005H8.62718C8.61583 33.7709 8.59171 33.5212 8.59171 33.2729C8.58887 28.9939 8.57894 24.7134 8.61016 20.4343C8.61299 20.0611 8.80311 19.6057 9.05991 19.3333C10.2403 18.0819 11.4775 16.8816 12.8169 15.538Z" fill="#1778F2"/>
<path d="M19.1829 34.0306H15.0344V15.5834C16.4333 16.9809 17.7556 18.2891 19.0566 19.6185C19.1829 19.7476 19.2226 20.0058 19.2241 20.2059C19.2326 24.6978 19.2297 29.1911 19.2269 33.683C19.2269 33.7752 19.2042 33.8674 19.1829 34.0306Z" fill="#1778F2"/>
<path d="M25.5633 15.5549V34.0063H21.3963C21.3849 33.7708 21.3622 33.5211 21.3622 33.2728C21.3594 28.9937 21.3495 24.7132 21.3807 20.4341C21.3835 20.061 21.5736 19.6055 21.8304 19.3331C23.0109 18.0803 24.2452 16.8786 25.5647 15.5549H25.5633Z" fill="#1778F2"/>
<path d="M6.41523 34.0503C4.59917 34.0503 2.85122 34.0631 1.10326 34.0446C0.417986 34.0375 0.0221421 33.6176 0.0136293 32.9139C-0.0033962 31.5433 -0.00907137 30.1713 0.0235609 28.8008C0.0306548 28.5213 0.155509 28.1751 0.348465 27.9807C2.29647 26.0185 4.27143 24.0805 6.2393 22.1381C6.26767 22.1098 6.323 22.1098 6.41381 22.08V34.0517L6.41523 34.0503Z" fill="#1778F2"/>
</svg>
