<svg width="40" height="40" viewBox="0 0 40 40" fill="none" xmlns="http://www.w3.org/2000/svg">
<path d="M19.6489 30.4723C19.9586 30.7959 20.222 31.0748 20.4886 31.349C20.7243 31.5924 20.9477 31.8528 21.205 32.07C21.8813 32.6386 22.8951 32.2904 23.0939 31.4322C23.1216 31.3151 23.1231 31.1903 23.1231 31.0701C23.1231 26.9519 23.1231 22.8351 23.1185 18.7169C23.1185 18.5536 23.1709 18.512 23.3281 18.512C25.9195 18.515 28.5125 18.512 31.1039 18.512C31.828 18.512 32.3072 18.9803 32.3257 19.706C32.3303 19.8601 32.3257 20.0126 32.3257 20.1667C32.3257 26.1415 32.3288 32.1163 32.3303 38.0911C32.3303 38.8059 31.8666 39.2851 31.1193 39.3344C31.0485 39.339 30.9791 39.3375 30.9083 39.3375C23.4082 39.3375 15.9065 39.3375 8.40647 39.3313C8.15687 39.3313 7.88879 39.2913 7.66231 39.1942C7.20473 38.9985 7.01214 38.601 6.99982 38.1142C6.99211 37.7875 6.99827 37.4609 6.99827 37.1343C6.99827 32.6586 6.99827 28.1813 6.99365 23.7056C6.99365 23.5439 7.04758 23.4514 7.18932 23.3713C8.45423 22.6472 9.71451 21.9138 10.9763 21.1851C12.4431 20.3377 13.9114 19.4934 15.3735 18.6383C15.6092 18.4996 15.8495 18.515 16.0976 18.5227C16.133 18.5227 16.1885 18.5875 16.1962 18.6291C16.2116 18.7153 16.2024 18.8078 16.2024 18.8971C16.2024 22.8999 16.1993 26.901 16.2054 30.9037C16.2054 31.1487 16.2224 31.4137 16.3118 31.6371C16.6106 32.389 17.5674 32.5846 18.1575 32.0238C18.6259 31.5786 19.0757 31.1133 19.5318 30.6557C19.5672 30.6203 19.5903 30.5709 19.6535 30.4754L19.6489 30.4723Z" fill="white"/>
<path d="M11.9318 8.41902C11.9318 7.92908 11.9395 7.44992 11.9302 6.97231C11.9148 6.22353 11.8963 5.47476 11.8609 4.72598C11.7731 2.88177 13.0272 0.828034 15.2027 0.185566C17.3504 -0.449199 19.6245 0.586145 20.6167 2.65529C20.8955 3.23767 21.0203 3.85087 21.045 4.49026C21.0481 4.55188 21.045 4.61351 21.045 4.71212C21.1883 4.632 21.3038 4.56729 21.4178 4.50258C22.4362 3.91404 23.4546 3.32549 24.4715 2.73541C24.7534 2.5721 25.0384 2.44114 25.3789 2.51047C25.7718 2.59058 26.0353 2.83093 26.2294 3.16988C26.9304 4.39627 27.636 5.61958 28.3324 6.85059C28.448 7.05397 28.5497 7.27583 28.599 7.50231C28.696 7.95065 28.4634 8.39591 28.0335 8.64396C26.972 9.25869 25.9074 9.87035 24.8443 10.4835C22.9616 11.5682 21.0773 12.6513 19.1961 13.739C17.0161 14.9993 14.8391 16.2658 12.659 17.5276C10.613 18.7124 8.56538 19.8956 6.51626 21.0773C5.73513 21.5272 4.954 21.9756 4.16824 22.4177C3.51653 22.786 2.91566 22.6319 2.52741 21.9879C1.74474 20.6906 0.96823 19.3887 0.196344 18.0853C-0.178044 17.4536 -0.0101084 16.8389 0.635441 16.4707C1.81253 15.8005 2.99424 15.138 4.17287 14.4709C4.18211 14.4647 4.18827 14.4508 4.2006 14.4354C4.00031 14.2921 3.78769 14.1643 3.60127 14.0056C2.48581 13.0611 1.84642 11.8732 1.88956 10.3926C1.96044 8.00765 3.59511 6.37606 5.54716 5.94005C6.70422 5.68121 7.81198 5.88304 8.82883 6.50702C9.81025 7.10943 10.784 7.72109 11.7623 8.32812C11.8209 8.36509 11.8825 8.39745 11.9318 8.42672V8.41902ZM14.2983 8.6039C14.3769 8.56384 14.4385 8.53457 14.4986 8.50067C15.5123 7.91675 16.5246 7.33129 17.5368 6.74737C18.4843 6.20042 18.8711 5.37307 18.7432 4.29767C18.5722 2.86945 17.0916 1.94503 15.7327 2.41032C14.7697 2.74003 14.1211 3.65982 14.1458 4.73677C14.1766 6.01708 14.2444 7.29431 14.2983 8.6039ZM10.9843 10.5375C10.9134 10.482 10.8687 10.4404 10.8194 10.4096C9.85493 9.80564 8.89508 9.19553 7.92445 8.60236C7.6764 8.45137 7.40678 8.31733 7.12791 8.23722C5.44085 7.75344 4.12202 9.1416 4.18211 10.5236C4.25915 12.2784 6.11722 13.2984 7.66253 12.431C8.63779 11.884 9.60534 11.3217 10.576 10.7655C10.7008 10.6931 10.8271 10.6237 10.9843 10.5359V10.5375Z" fill="white"/>
<path d="M37.0187 13.9023C37.4224 13.9023 37.7922 13.8977 38.1619 13.9023C38.7012 13.91 39.1387 14.2459 39.2836 14.7574C39.4838 15.4645 38.9384 16.1871 38.1866 16.2025C37.8045 16.2102 37.4224 16.2025 37.0187 16.2025C37.0187 16.5708 37.0234 16.9344 37.0187 17.298C37.011 17.734 36.8585 18.0976 36.4703 18.3333C35.8386 18.7154 35.0097 18.4042 34.7955 17.6955C34.7462 17.5322 34.7246 17.3581 34.7185 17.187C34.7062 16.8619 34.7154 16.5353 34.7154 16.201C34.3487 16.201 33.9928 16.2056 33.6385 16.201C33.1763 16.1933 32.8019 16.0069 32.5661 15.6063C32.1656 14.9268 32.5661 14.0733 33.3519 13.947C33.6708 13.8961 34.0021 13.9192 34.3271 13.91C34.4473 13.9069 34.569 13.91 34.7139 13.91C34.7139 13.5741 34.7015 13.249 34.7185 12.927C34.7293 12.7252 34.757 12.5172 34.8217 12.3277C34.9835 11.8562 35.475 11.5574 35.9664 11.6036C36.4903 11.6529 36.914 12.0334 36.9741 12.5526C37.0141 12.9008 37.0064 13.2537 37.0172 13.6049C37.0203 13.6989 37.0172 13.7944 37.0172 13.9069L37.0187 13.9023Z" fill="white"/>
<path d="M20.7907 28.3709C20.4749 27.9842 20.1359 27.7269 19.6522 27.7238C19.1699 27.7207 18.8495 27.9965 18.5336 28.3709C18.5259 28.2661 18.5182 28.2107 18.5182 28.1567C18.5167 25.006 18.5151 21.8553 18.5105 18.7061C18.5105 18.549 18.566 18.512 18.7123 18.5136C19.3332 18.5197 19.9541 18.5243 20.575 18.5136C20.7614 18.5105 20.8123 18.5644 20.8123 18.7493C20.8061 21.6304 20.8061 24.5115 20.8046 27.3941C20.8046 27.6498 20.8046 27.9056 20.8046 28.1629C20.8046 28.2168 20.7969 28.2723 20.7892 28.374L20.7907 28.3709Z" fill="white"/>
<path d="M33.492 6.98465C34.1237 6.98773 34.6429 7.52389 34.6352 8.16328C34.6275 8.76261 34.1052 9.28952 33.5197 9.28644C32.8896 9.2849 32.3288 8.72563 32.338 8.1109C32.3472 7.49616 32.8757 6.98003 33.4935 6.98465H33.492Z" fill="white"/>
<path d="M28.884 13.9005C29.5173 13.9036 30.0349 14.4382 30.0288 15.0776C30.0226 15.6769 29.5019 16.2023 28.9133 16.2023C28.2878 16.2023 27.7224 15.6399 27.7301 15.0267C27.7393 14.412 28.2662 13.8959 28.884 13.8989V13.9005Z" fill="white"/>
</svg>
