<svg width="13" height="13" viewBox="0 0 13 13" fill="none" xmlns="http://www.w3.org/2000/svg">
<path d="M3.55081 0C3.71183 0.0677524 3.88979 0.110098 4.03386 0.207492C4.31351 0.393811 4.45334 0.677524 4.46605 1.01629C4.48724 1.59642 4.52961 2.17231 4.66944 2.73974C4.72453 2.9684 4.79656 3.19707 4.85164 3.42573C4.94063 3.7772 4.85588 4.09055 4.63554 4.37427C4.27114 4.8443 3.91521 5.3228 3.55928 5.8013C3.5381 5.82671 3.5381 5.89023 3.55505 5.9241C4.3008 7.35114 5.35588 8.48599 6.76688 9.27362C6.88976 9.3456 7.02111 9.47264 7.14399 9.46417C7.26687 9.4557 7.37704 9.31596 7.49145 9.22704C7.89399 8.92215 8.28805 8.61303 8.69482 8.31238C8.94906 8.12606 9.24567 8.07524 9.55075 8.14723C9.89396 8.22769 10.2329 8.34202 10.5846 8.39707C11.0253 8.46482 11.4745 8.50293 11.9194 8.52834C12.4405 8.55798 12.8177 8.82899 12.9533 9.30749C12.9829 9.42182 12.9956 9.54039 12.9956 9.65896C12.9999 10.3958 12.9872 11.1326 12.9999 11.8694C13.0083 12.4707 12.6185 12.9153 12.1058 12.9873C12.0973 12.9873 12.0931 12.9958 12.0846 13C11.8728 13 11.6609 13 11.449 13C11.4067 12.9915 11.3685 12.9873 11.3262 12.9831C10.8558 12.928 10.3855 12.8984 9.91939 12.8221C8.61855 12.6104 7.39399 12.1785 6.24146 11.5433C4.41521 10.5355 2.94488 9.15081 1.83473 7.38502C0.86016 5.84788 0.279658 4.17524 0.0762704 2.3671C0.0466097 2.09609 0.0254235 1.82085 0 1.54984C0 1.33811 0 1.12638 0 0.914658C0.0720332 0.749511 0.127117 0.567427 0.220337 0.414984C0.381352 0.169381 0.635587 0.0635179 0.915245 0C1.79235 0 2.6737 0 3.55081 0Z" fill="#FF772C"/>
</svg>
