<svg width="14" height="15" viewBox="0 0 14 15" fill="none" xmlns="http://www.w3.org/2000/svg">
<path d="M6.94351 14.9981C5.4172 14.9981 3.89089 15.0003 2.36459 14.9974C0.891775 14.9952 -0.089369 13.8857 0.107006 12.4479C0.382518 10.433 1.69193 8.96422 3.60512 8.5302C3.93852 8.45474 4.27559 8.41019 4.61998 8.41091C6.18292 8.4145 7.74586 8.4066 9.3088 8.41379C11.7664 8.42528 13.7573 10.3216 13.8555 12.7353C13.9053 13.9741 12.9278 14.9909 11.6682 14.996C10.0936 15.0031 8.51817 14.9981 6.94351 14.9981Z" fill="#FF772C"/>
<path d="M6.96766 2.37324e-07C9.04938 0.000718814 10.7215 1.63692 10.72 3.67121C10.7178 5.68394 9.00395 7.36685 6.95886 7.36254C4.91084 7.35823 3.20575 5.67748 3.20648 3.66259C3.20721 1.63045 4.88227 -0.00071834 6.96766 2.37324e-07Z" fill="#FF772C"/>
</svg>
