<svg width="18" height="18" viewBox="0 0 18 18" fill="none" xmlns="http://www.w3.org/2000/svg">
<path d="M9.00001 0C7.21998 0 5.47992 0.527841 3.99987 1.51677C2.51983 2.50571 1.36628 3.91132 0.685089 5.55585C0.00389965 7.20039 -0.174331 9.00999 0.172937 10.7558C0.520204 12.5017 1.37737 14.1053 2.63604 15.364C3.89472 16.6226 5.49837 17.4798 7.2442 17.8271C8.99003 18.1743 10.7996 17.9961 12.4442 17.3149C14.0887 16.6337 15.4943 15.4802 16.4832 14.0001C17.4722 12.5201 18 10.78 18 9.00001C17.9971 6.61396 17.0479 4.32648 15.3607 2.63929C13.6735 0.952093 11.3861 0.00293736 9.00001 0ZM0.912005 6.732L1.248 7.224C1.26324 7.24572 1.26956 7.27246 1.26565 7.2987C1.26174 7.32493 1.24791 7.34867 1.227 7.365L0.885005 7.626C0.806099 7.68566 0.751692 7.77207 0.732005 7.869L0.624004 8.38501C0.66258 7.82553 0.759097 7.27156 0.912005 6.732ZM15.63 5.697C15.7109 5.70081 15.7888 5.72889 15.8536 5.77758C15.9183 5.82627 15.9669 5.89332 15.993 5.97L16.008 6.012C16.0381 6.10366 16.0963 6.18348 16.1744 6.24005C16.2526 6.29663 16.3466 6.32706 16.443 6.327H16.962C17.0335 6.53078 17.0945 6.73805 17.145 6.948L16.65 7.443C16.6413 7.45163 16.631 7.45845 16.6197 7.46308C16.6084 7.46772 16.5963 7.47007 16.584 7.47H15.846C15.8339 7.47001 15.822 7.46759 15.8109 7.46288C15.7997 7.45817 15.7897 7.45127 15.7813 7.44259C15.7729 7.43391 15.7663 7.42364 15.762 7.41237C15.7576 7.4011 15.7556 7.38907 15.756 7.377C15.7561 7.30269 15.735 7.2299 15.6952 7.16718C15.6553 7.10447 15.5983 7.05444 15.531 7.023C15.464 6.99027 15.389 6.97766 15.315 6.98671C15.2409 6.99576 15.1711 7.02609 15.114 7.074L13.74 8.19C13.4993 8.38437 13.3054 8.63031 13.1724 8.90966C13.0395 9.18901 12.971 9.49464 12.972 9.80401V10.881C12.972 10.9322 12.982 10.983 13.0016 11.0304C13.0211 11.0777 13.0498 11.1207 13.086 11.157L14.037 12.111C14.1118 12.1837 14.2118 12.2245 14.316 12.225H14.676C14.8451 12.2254 15.0106 12.1765 15.1523 12.0843C15.294 11.9922 15.4058 11.8607 15.474 11.706L16.407 12.963C15.6889 14.3032 14.6209 15.4236 13.3165 16.2049C12.0122 16.9862 10.5204 17.3992 9.00001 17.4C8.95801 17.4 8.91901 17.4 8.87701 17.397V17.319C8.87701 17.2633 8.89913 17.2099 8.93852 17.1705C8.9779 17.1311 9.03131 17.109 9.08701 17.109C9.25306 17.1082 9.41208 17.0419 9.5295 16.9245C9.64691 16.8071 9.71322 16.6481 9.71401 16.482V15.927C9.71392 15.8741 9.73408 15.8232 9.77034 15.7847C9.8066 15.7462 9.85622 15.7231 9.90901 15.72C10.0159 15.7127 10.1178 15.6715 10.1997 15.6025C10.2817 15.5335 10.3396 15.4401 10.365 15.336C10.3935 15.2323 10.3875 15.1221 10.348 15.022C10.3085 14.9219 10.2377 14.8374 10.146 14.781L8.54701 13.761C8.51723 13.7422 8.49277 13.716 8.47596 13.685C8.45916 13.654 8.45057 13.6193 8.45101 13.584V13.287C8.45022 13.1523 8.39614 13.0233 8.30058 12.9283C8.20502 12.8333 8.07575 12.78 7.94101 12.78H7.68301C7.52838 12.7792 7.38035 12.7172 7.27129 12.6076C7.16223 12.498 7.10101 12.3496 7.10101 12.195C7.10101 12.128 7.08782 12.0617 7.06219 11.9998C7.03656 11.938 6.99899 11.8817 6.95163 11.8344C6.90427 11.787 6.84805 11.7495 6.78618 11.7238C6.7243 11.6982 6.65798 11.685 6.59101 11.685H4.25101C4.11627 11.6858 3.98732 11.7399 3.89232 11.8354C3.79732 11.931 3.744 12.0603 3.74401 12.195V12.351C3.74402 12.4016 3.72593 12.4506 3.69301 12.489L3.16201 13.11C3.09158 13.1923 3.04948 13.295 3.04191 13.4031C3.03435 13.5111 3.06173 13.6187 3.12001 13.71L3.46801 14.271C3.49358 14.3149 3.52716 14.3535 3.56701 14.385L4.83901 15.495C4.86128 15.5152 4.87917 15.5397 4.89156 15.567C4.90394 15.5944 4.91057 15.624 4.91101 15.654V16.335C3.60447 15.6069 2.51603 14.5432 1.75816 13.2537C1.00029 11.9642 0.600464 10.4957 0.600004 9.00001C0.600004 8.96101 0.600005 8.91901 0.603005 8.88001C0.705797 9.42782 1.02059 9.91295 1.479 10.23L3.47701 11.73C3.50333 11.7488 3.53468 11.7592 3.56701 11.76C3.59345 11.7595 3.61931 11.7521 3.64204 11.7386C3.66476 11.7251 3.68357 11.7059 3.69659 11.6828C3.70962 11.6598 3.71641 11.6338 3.71631 11.6073C3.71621 11.5809 3.70921 11.5549 3.69601 11.532L2.78401 10.011C2.76901 9.98101 2.76901 9.96901 2.76601 9.96901C2.77806 9.95573 2.79226 9.94458 2.80801 9.93601L3.05701 9.79801C3.08079 9.78391 3.10032 9.76364 3.11352 9.73934C3.12673 9.71505 3.13311 9.68763 3.13201 9.66001C3.13097 9.63292 3.12261 9.60662 3.10782 9.58391C3.09303 9.56119 3.07236 9.54291 3.04801 9.53101L2.42701 9.23101C2.40884 9.22192 2.39375 9.20769 2.38361 9.19008C2.37347 9.17248 2.36874 9.15228 2.37001 9.13201L2.38501 8.77201C2.38505 8.75834 2.38802 8.74485 2.39371 8.73243C2.3994 8.72001 2.40768 8.70896 2.41801 8.70001C2.43874 8.68193 2.46551 8.67229 2.49301 8.67301L3.25501 8.70601C3.26873 8.70565 3.28235 8.70844 3.29483 8.71416C3.30731 8.71988 3.31832 8.72838 3.32701 8.73901L3.99001 9.45901C4.04259 9.51866 4.11206 9.56093 4.1892 9.58022C4.26635 9.59951 4.34754 9.5949 4.42201 9.56701C4.49802 9.54023 4.56432 9.49139 4.61242 9.42672C4.66052 9.36205 4.68823 9.28451 4.69201 9.20401L4.70701 8.80201C4.70741 8.78841 4.71054 8.77503 4.71621 8.76266C4.72188 8.75029 4.72997 8.73919 4.74001 8.73001L5.71201 7.83601C5.73439 7.81837 5.76158 7.80791 5.79001 7.80601L6.51301 7.839C6.61901 7.84277 6.72231 7.80511 6.80101 7.73401C6.84027 7.69846 6.87213 7.65552 6.89478 7.60765C6.91743 7.55977 6.93042 7.5079 6.93301 7.455L6.95101 7.029C6.9511 7.01579 6.95411 7.00275 6.95981 6.99082C6.96552 6.9789 6.97378 6.96838 6.98401 6.96L7.81801 6.192C7.89328 6.1204 7.93835 6.02274 7.94401 5.919L7.98601 5.214C7.99501 5.013 7.84501 4.701 7.59901 4.689L6.76501 4.659C6.70923 4.65776 6.65377 4.66772 6.60192 4.68831C6.55006 4.7089 6.50287 4.73969 6.46314 4.77887C6.42341 4.81804 6.39195 4.86479 6.37063 4.91634C6.3493 4.9679 6.33855 5.02321 6.33901 5.079C6.33768 5.09059 6.33339 5.10164 6.32656 5.1111C6.31973 5.12055 6.31059 5.1281 6.30001 5.133C6.27971 5.14478 6.25697 5.15171 6.23356 5.15327C6.21015 5.15483 6.18669 5.15098 6.16501 5.142C5.94901 5.04 5.86501 4.674 5.81101 4.434L5.78401 4.332C5.78048 4.31639 5.78053 4.30018 5.78417 4.28459C5.78781 4.269 5.79493 4.25444 5.80501 4.242C5.8153 4.22898 5.82859 4.21864 5.84373 4.21185C5.85888 4.20506 5.87544 4.20203 5.89201 4.203L7.16101 4.257C7.28037 4.26272 7.39968 4.24467 7.512 4.2039C7.62433 4.16313 7.72744 4.10046 7.81536 4.01953C7.90327 3.93859 7.97424 3.841 8.02413 3.73242C8.07402 3.62384 8.10186 3.50643 8.10601 3.387L8.14201 2.538C8.14607 2.43107 8.10765 2.32687 8.03514 2.24818C7.96263 2.16948 7.86192 2.12268 7.75501 2.118L7.36201 2.103C7.33644 2.10243 7.31204 2.09222 7.29368 2.07442C7.27532 2.05662 7.26436 2.03254 7.26301 2.007C7.26301 1.281 6.89101 1.185 6.73201 1.179C6.48093 1.17903 6.23899 1.27323 6.05401 1.443C5.94803 1.55272 5.80435 1.61813 5.65201 1.626C5.59506 1.62423 5.53977 1.60639 5.49253 1.57454C5.44528 1.54269 5.40801 1.49813 5.38501 1.446C5.38201 1.44 5.37901 1.431 5.37601 1.425C6.50613 0.879632 7.74518 0.597563 9.00001 0.6C9.16801 0.6 9.33301 0.606 9.49801 0.618L9.71701 1.194C9.75054 1.28078 9.80937 1.35549 9.88586 1.40845C9.96235 1.4614 10.053 1.49016 10.146 1.491H11.28C11.3173 1.4899 11.3537 1.50273 11.382 1.527L12.171 2.172C12.1915 2.18904 12.2074 2.21089 12.2174 2.2356C12.2273 2.26032 12.231 2.28712 12.228 2.31359C12.225 2.34006 12.2155 2.36538 12.2003 2.38727C12.1851 2.40916 12.1648 2.42694 12.141 2.439L12.051 2.49C11.9947 2.51978 11.9453 2.56108 11.906 2.61122C11.8667 2.66136 11.8385 2.71921 11.823 2.781C11.8072 2.84284 11.8043 2.90729 11.8147 2.97029C11.825 3.03328 11.8483 3.09345 11.883 3.147L12.447 3.999C12.4944 4.07082 12.5609 4.12797 12.639 4.164L13.221 4.428C13.2489 4.44115 13.2724 4.46196 13.2889 4.48799C13.3053 4.51402 13.3141 4.5442 13.314 4.575V5.619C13.3142 5.68717 13.3294 5.75446 13.3584 5.81614C13.3874 5.87782 13.4296 5.93239 13.482 5.976C13.4996 5.98869 13.5143 6.00501 13.5251 6.02385C13.5358 6.04269 13.5424 6.06362 13.5444 6.08522C13.5464 6.10683 13.5437 6.12861 13.5366 6.1491C13.5295 6.16959 13.518 6.18831 13.503 6.204L12.933 6.855C12.8395 6.96261 12.7906 7.1019 12.7964 7.24435C12.8022 7.38681 12.8622 7.52166 12.9642 7.62132C13.0661 7.72097 13.2023 7.7779 13.3449 7.78044C13.4874 7.78299 13.6256 7.73096 13.731 7.63501L14.994 6.486C15.0574 6.428 15.1036 6.35361 15.1274 6.27102C15.1513 6.18844 15.1518 6.10088 15.129 6.018C15.1224 5.99554 15.1183 5.97239 15.117 5.949C15.1173 5.91415 15.1246 5.87971 15.1386 5.84775C15.1525 5.81579 15.1727 5.78697 15.198 5.763C15.2503 5.71472 15.3189 5.68794 15.39 5.688L15.63 5.697Z" fill="#FF772C"/>
<path d="M10.2331 2.12708H9.54913C9.53172 2.12727 9.51442 2.12422 9.49813 2.11808L8.87713 1.92607C8.85472 1.92011 8.83126 1.91917 8.80845 1.92332C8.78563 1.92747 8.76401 1.9366 8.74513 1.95007C8.72573 1.96352 8.70988 1.98145 8.69891 2.00235C8.68794 2.02324 8.68218 2.04648 8.68213 2.07007V2.47208C8.68299 2.50736 8.68701 2.5425 8.69413 2.57708L9.10813 4.41908C9.12783 4.50785 9.17245 4.58916 9.23675 4.65346C9.30105 4.71775 9.38236 4.76237 9.47113 4.78208C9.50482 4.78792 9.53894 4.79093 9.57313 4.79108C9.64681 4.79111 9.71945 4.77373 9.78513 4.74037C9.85082 4.707 9.9077 4.65859 9.95113 4.59908L10.6141 3.71108C10.6754 3.62861 10.709 3.52883 10.7101 3.42608V2.60108C10.7097 2.47499 10.6592 2.35425 10.5697 2.26537C10.4803 2.1765 10.3592 2.12676 10.2331 2.12708Z" fill="#FF772C"/>
</svg>
