<svg width="19" height="19" viewBox="0 0 19 19" fill="none" xmlns="http://www.w3.org/2000/svg">
<circle cx="9.5" cy="9.5" r="9.5" fill="#27AE60"/>
<path d="M7.72812 10.0751C7.99268 9.77742 8.24549 9.48513 8.51005 9.19825C9.70941 7.89378 11.0175 6.69215 12.5167 5.67996C12.6725 5.57441 12.8342 5.47428 12.9988 5.37685C13.0517 5.34708 13.1193 5.32272 13.1811 5.32272C13.5191 5.31731 13.8572 5.32001 14.1923 5.32001C14.2981 5.32001 14.3834 5.35249 14.4216 5.44721C14.4598 5.53923 14.4304 5.61771 14.351 5.68537C12.9782 6.83829 11.8465 8.18065 10.7706 9.56632C9.77996 10.841 8.86281 12.1617 8.0015 13.5176C7.97211 13.5663 7.93389 13.6178 7.88392 13.6475C7.77809 13.7152 7.65757 13.6773 7.5782 13.5609C7.44592 13.3661 7.32245 13.1658 7.18135 12.9764C6.35533 11.8803 5.52342 10.7842 4.69445 9.69081C4.66212 9.65022 4.62684 9.60962 4.59744 9.56632C4.53865 9.47971 4.54159 9.38499 4.61802 9.31463C4.83849 9.10894 5.06484 8.90326 5.29119 8.70028C5.37938 8.62179 5.47345 8.62721 5.59103 8.70028C5.95554 8.93303 6.32005 9.16848 6.68162 9.40123C7.02849 9.62586 7.37537 9.84778 7.72812 10.0751Z" fill="white"/>
</svg>
