<svg width="11" height="10" viewBox="0 0 11 10" fill="none" xmlns="http://www.w3.org/2000/svg">
<path d="M3.33503 5.60496C3.61324 5.29159 3.87908 4.98392 4.15729 4.68195C5.41849 3.30882 6.79408 2.04394 8.37058 0.978482C8.53442 0.867378 8.70443 0.761972 8.87754 0.659414C8.93318 0.628077 9.00428 0.602438 9.06919 0.602438C9.42468 0.59674 9.78017 0.599589 10.1326 0.599589C10.2438 0.599589 10.3335 0.633775 10.3737 0.733484C10.4139 0.830343 10.383 0.912959 10.2995 0.98418C8.8559 2.19778 7.66579 3.61079 6.53441 5.06939C5.49268 6.41118 4.52823 7.8014 3.62251 9.22866C3.5916 9.27994 3.55141 9.33407 3.49886 9.3654C3.38758 9.43662 3.26084 9.39674 3.17738 9.27424C3.03827 9.06913 2.90844 8.85831 2.76007 8.6589C1.89144 7.50513 1.01663 6.35135 0.144918 5.20043C0.110914 5.1577 0.0738201 5.11497 0.0429081 5.06939C-0.0189157 4.97822 -0.0158245 4.87851 0.0645465 4.80445C0.296386 4.58794 0.534408 4.37143 0.77243 4.15776C0.865166 4.07515 0.964084 4.08085 1.08773 4.15776C1.47104 4.40276 1.85435 4.65061 2.23456 4.89561C2.59932 5.13206 2.96409 5.36566 3.33503 5.60496Z" fill="#1778F2"/>
</svg>
