<svg width="19" height="19" viewBox="0 0 19 19" fill="none" xmlns="http://www.w3.org/2000/svg">
<circle cx="9.5" cy="9.50049" r="9.5" fill="#1778F2"/>
<path d="M7.7291 10.0756C7.99366 9.7779 8.24647 9.48562 8.51103 9.19874C9.71039 7.89427 11.0185 6.69263 12.5177 5.68045C12.6735 5.5749 12.8352 5.47476 12.9998 5.37733C13.0527 5.34756 13.1203 5.32321 13.1821 5.32321C13.5201 5.31779 13.8582 5.3205 14.1933 5.3205C14.2991 5.3205 14.3844 5.35298 14.4226 5.4477C14.4608 5.53972 14.4314 5.6182 14.352 5.68586C12.9792 6.83878 11.8475 8.18114 10.7716 9.56681C9.78094 10.8415 8.86378 12.1622 8.00248 13.5181C7.97308 13.5668 7.93487 13.6183 7.88489 13.648C7.77907 13.7157 7.65855 13.6778 7.57918 13.5614C7.44689 13.3666 7.32343 13.1663 7.18233 12.9768C6.3563 11.8808 5.5244 10.7847 4.69543 9.6913C4.66309 9.65071 4.62782 9.61011 4.59842 9.56681C4.53963 9.4802 4.54257 9.38548 4.619 9.31511C4.83947 9.10943 5.06582 8.90375 5.29217 8.70077C5.38035 8.62228 5.47442 8.62769 5.59201 8.70077C5.95652 8.93352 6.32103 9.16897 6.6826 9.40172C7.02947 9.62635 7.37634 9.84827 7.7291 10.0756Z" fill="white"/>
</svg>
