<svg width="34" height="35" viewBox="0 0 34 35" fill="none" xmlns="http://www.w3.org/2000/svg">
<path d="M25.6462 17.173C25.6462 18.5002 25.6476 19.8259 25.6462 21.1531C25.6462 21.616 25.5186 21.7914 25.0837 21.9443C22.5598 22.8337 20.0332 23.7204 17.5108 24.6168C17.2428 24.7122 17.0001 24.708 16.7322 24.6126C14.235 23.7316 11.735 22.8576 9.2364 21.9822C9.1382 21.9471 9.03719 21.9134 8.946 21.8629C8.76222 21.7633 8.63736 21.6146 8.61491 21.3986C8.60088 21.2653 8.58826 21.1306 8.58826 20.9973C8.58545 18.3851 8.58545 15.7715 8.58545 13.1593C8.58545 12.7482 8.71873 12.5518 9.11294 12.4143C10.8035 11.8209 12.4968 11.2317 14.1887 10.6396C15.0669 10.3324 15.9479 10.028 16.8233 9.70952C17.0338 9.63376 17.2176 9.63376 17.428 9.70671C19.4313 10.4096 21.4389 11.104 23.4451 11.8013C24.0006 11.9949 24.5506 12.1983 25.1075 12.3877C25.4554 12.5055 25.6308 12.7384 25.6364 13.1032C25.6392 13.3024 25.6519 13.5002 25.6519 13.6994C25.6533 14.8568 25.6519 16.0142 25.6519 17.1716H25.6476L25.6462 17.173ZM17.7436 19.6562C17.7436 19.6562 17.7465 19.6562 17.7493 19.6562C17.7493 20.7308 17.7479 21.8068 17.7507 22.8814C17.7507 23.1255 17.8068 23.1648 18.0397 23.0919C18.2894 23.0147 18.5363 22.9263 18.7832 22.8394C20.534 22.2221 22.2835 21.6048 24.0329 20.9861C24.3991 20.857 24.3906 20.8542 24.3906 20.4614C24.3864 18.4511 24.3836 16.4421 24.385 14.4317C24.385 13.9589 24.3598 13.9337 23.9165 14.0866C21.9313 14.7726 19.9476 15.46 17.9611 16.1433C17.8082 16.1966 17.7394 16.2751 17.7408 16.4463C17.7465 17.5153 17.7436 18.5843 17.7436 19.6547V19.6562ZM13.6289 15.3184C13.6233 15.4152 13.6177 15.4853 13.6177 15.554C13.6177 16.285 13.6177 17.0159 13.6149 17.7454C13.6149 17.8324 13.6093 17.9208 13.5938 18.0063C13.5405 18.3276 13.2838 18.5563 12.985 18.5563C12.6721 18.5563 12.3817 18.315 12.3326 18.0021C12.313 17.8759 12.3074 17.7468 12.306 17.6177C12.3046 16.7353 12.306 15.8529 12.306 14.9704C12.306 14.8526 12.2976 14.7502 12.1615 14.7067C11.4811 14.485 10.8035 14.2549 10.1216 14.0375C9.90699 13.9688 9.84386 14.0263 9.84386 14.2451C9.84386 16.3663 9.84667 18.4889 9.83825 20.6101C9.83825 20.8079 9.90138 20.8977 10.0824 20.9609C10.99 21.2737 11.8935 21.5992 12.7998 21.9176C13.9081 22.3091 15.0164 22.7005 16.1275 23.0863C16.4025 23.1817 16.4544 23.141 16.4544 22.8604C16.4572 20.7097 16.4586 18.5577 16.4628 16.407C16.4628 16.2695 16.4179 16.1924 16.286 16.1475C15.4864 15.8781 14.6895 15.6017 13.8885 15.3338C13.8127 15.3085 13.7229 15.3226 13.6275 15.3169L13.6289 15.3184ZM13.3582 13.7723C13.4073 13.7597 13.4592 13.7485 13.5069 13.7317C13.7818 13.6377 14.0568 13.5409 14.3304 13.4455C15.8118 12.9264 17.2947 12.4087 18.7748 11.8854C18.8519 11.8574 18.9123 11.7774 18.9796 11.7213C18.9123 11.6568 18.8576 11.567 18.7776 11.5347C18.4647 11.407 18.1337 11.3229 17.832 11.177C17.3607 10.9497 16.9258 10.9749 16.4347 11.1587C14.8607 11.7451 13.2684 12.2853 11.6831 12.8422C11.5849 12.8759 11.4712 12.9152 11.5021 13.0344C11.5203 13.1046 11.6115 13.1789 11.6859 13.2056C12.1951 13.3879 12.7072 13.5591 13.2193 13.7331C13.2628 13.7485 13.309 13.7569 13.3582 13.7709V13.7723ZM17.1586 15.0939C17.3775 15.0181 17.6202 14.9354 17.8601 14.8512C19.4285 14.3012 20.9984 13.7527 22.5655 13.1972C22.6384 13.1705 22.752 13.0695 22.7422 13.0316C22.7212 12.9516 22.6426 12.8576 22.5655 12.8282C22.1811 12.6767 21.7896 12.5462 21.4024 12.4031C21.2579 12.3498 21.1261 12.3568 20.9816 12.4101C19.7526 12.8591 18.5223 13.3024 17.2933 13.7485C16.7855 13.9323 16.2762 14.1161 15.7712 14.3097C15.6996 14.3377 15.6477 14.4205 15.5874 14.4794C15.6379 14.5299 15.6814 14.6057 15.7417 14.6281C16.1738 14.7824 16.6101 14.9255 17.045 15.07C17.0717 15.0799 17.1011 15.0827 17.1586 15.0953V15.0939Z" fill="#2b74fe" stroke="#2b74fe"/>
<path d="M17.5417 1.00092C20.0417 1.06966 22.5361 1.71921 24.8635 2.99586C25.3194 3.24558 25.4134 3.67206 25.1076 4.02279C24.9168 4.24305 24.6699 4.30197 24.4005 4.17571C24.0891 4.0298 23.7846 3.87127 23.476 3.71976C22.1222 3.05057 20.6898 2.63812 19.1985 2.43049C17.8812 2.2467 16.5583 2.23408 15.2409 2.40523C12.7774 2.72369 10.5314 3.60192 8.49994 5.05252C6.33384 6.59993 4.74014 8.61311 3.60939 11.0023C2.83779 12.6324 2.42954 14.3622 2.31591 16.1664C2.1672 18.5205 2.51793 20.7876 3.43824 22.9621C3.95872 24.1938 4.6237 25.3428 5.45843 26.3894C5.49069 26.4301 5.52016 26.4848 5.56365 26.5044C5.62397 26.5311 5.71235 26.5605 5.76005 26.5339C5.80635 26.5086 5.84282 26.4118 5.83441 26.3529C5.81477 26.2042 5.76146 26.0597 5.73059 25.911C5.64782 25.5182 5.833 25.232 6.22442 25.1422C6.58637 25.058 6.87817 25.2376 6.97638 25.6122C7.27379 26.7527 7.5684 27.8919 7.86021 29.0339C8.00611 29.6049 7.63434 29.9879 7.06055 29.8434C6.22021 29.6315 5.38407 29.4014 4.54654 29.1784C4.22106 29.0914 3.88997 29.0184 3.57011 28.9104C3.11697 28.7589 2.99071 28.2286 3.30917 27.8723C3.47471 27.6871 3.68094 27.645 3.91382 27.7025C4.15092 27.76 4.3866 27.826 4.6265 27.8751C4.69104 27.8877 4.81028 27.8737 4.82572 27.8372C4.85237 27.7769 4.84115 27.6702 4.80187 27.6155C4.62931 27.3728 4.43851 27.1442 4.25894 26.9071C2.62315 24.748 1.62007 22.3238 1.19919 19.647C0.992965 18.3395 0.938251 17.0278 1.07574 15.7174C1.43769 12.2733 2.69189 9.19812 4.97162 6.57468C7.4197 3.74922 10.5033 2.01242 14.1593 1.29132C15.2241 1.08089 16.3043 0.989696 17.5417 1.00092Z" fill="#2b74fe" stroke="#2b74fe" stroke-width="1.5"/>
<path d="M31.9607 17.4586C32.0295 14.159 31.119 11.2984 29.3541 8.69884C29.1577 8.40984 28.9431 8.13206 28.7214 7.8613C28.6709 7.80098 28.5559 7.79396 28.4703 7.76169C28.4562 7.84587 28.4198 7.93285 28.431 8.01422C28.452 8.18116 28.5067 8.3439 28.532 8.51085C28.5811 8.83632 28.4296 9.07342 28.1238 9.17162C27.8067 9.27403 27.4756 9.1604 27.3479 8.8742C27.2596 8.67359 27.2091 8.45473 27.1529 8.24009C26.8934 7.24683 26.6311 6.25497 26.3841 5.2589C26.2523 4.73 26.6409 4.34982 27.167 4.4873C28.2654 4.7735 29.3611 5.0667 30.4582 5.35991C30.6995 5.42445 30.9198 5.51563 31.032 5.77096C31.133 6.00244 31.1162 6.2199 30.9632 6.4135C30.8131 6.60429 30.6041 6.69548 30.36 6.65059C30.1482 6.61131 29.9419 6.54677 29.7343 6.49346C29.7006 6.48505 29.667 6.464 29.6333 6.46681C29.5491 6.47242 29.4663 6.48785 29.3836 6.50048C29.406 6.57904 29.4088 6.67163 29.4537 6.73336C29.7736 7.17247 30.1173 7.59334 30.4231 8.04087C31.8064 10.0681 32.686 12.2987 33.0424 14.7285C33.6232 18.7016 32.8431 22.3997 30.7121 25.7933C28.7649 28.8965 26.0348 31.0528 22.6131 32.3281C21.2186 32.8485 19.7736 33.1516 18.2908 33.2652C15.2829 33.4953 12.4434 32.8836 9.75545 31.527C9.52678 31.412 9.37526 31.2352 9.35843 30.9714C9.32756 30.5029 9.7807 30.1634 10.2184 30.3429C10.6056 30.5015 10.9718 30.7105 11.3562 30.876C12.5711 31.4021 13.8365 31.7571 15.1496 31.9156C16.2972 32.0545 17.4504 32.084 18.605 31.9717C21.669 31.6715 24.3864 30.5337 26.7279 28.5318C28.8056 26.7557 30.3249 24.5812 31.2003 21.9746C31.7082 20.4636 31.993 18.9148 31.9593 17.4558L31.9607 17.4586Z" fill="#2b74fe" stroke="#2b74fe" stroke-width="1.5"/>
<path d="M20.889 21.0157C20.5929 21.0157 20.3657 20.8543 20.2675 20.6172C20.1707 20.3815 20.2128 20.1262 20.3979 19.9593C20.4863 19.8793 20.5957 19.812 20.708 19.7699C21.3435 19.5286 21.9832 19.2971 22.623 19.0642C22.7829 19.0053 22.9442 18.9744 23.1154 19.0432C23.3665 19.1428 23.5461 19.3644 23.5601 19.6198C23.5727 19.8569 23.4198 20.1122 23.1729 20.2132C22.8334 20.3507 22.4869 20.4699 22.1432 20.5962C21.8205 20.714 21.4978 20.8305 21.1737 20.9427C21.0643 20.9806 20.9493 21.0016 20.8904 21.0171L20.889 21.0157Z" fill="#2b74fe" stroke="#2b74fe"/>
</svg>
