<svg width="19" height="19" viewBox="0 0 19 19" fill="none" xmlns="http://www.w3.org/2000/svg">
<circle cx="9.5" cy="9.50024" r="9.5" fill="#27AE60"/>
<path d="M7.72849 10.0754C7.99305 9.77766 8.24586 9.48537 8.51042 9.1985C9.70978 7.89402 11.0179 6.69239 12.5171 5.6802C12.6729 5.57466 12.8346 5.47452 12.9992 5.37709C13.0521 5.34732 13.1197 5.32296 13.1814 5.32296C13.5195 5.31755 13.8576 5.32026 14.1927 5.32026C14.2985 5.32026 14.3837 5.35273 14.422 5.44746C14.4602 5.53947 14.4308 5.61796 14.3514 5.68562C12.9786 6.83853 11.8469 8.1809 10.771 9.56656C9.78033 10.8413 8.86317 12.162 8.00187 13.5179C7.97247 13.5666 7.93426 13.618 7.88428 13.6478C7.77846 13.7154 7.65794 13.6776 7.57857 13.5612C7.44628 13.3663 7.32282 13.166 7.18172 12.9766C6.35569 11.8805 5.52379 10.7844 4.69482 9.69106C4.66248 9.65046 4.62721 9.60986 4.59781 9.56656C4.53902 9.47996 4.54196 9.38524 4.61839 9.31487C4.83886 9.10919 5.06521 8.9035 5.29156 8.70052C5.37974 8.62204 5.47381 8.62745 5.5914 8.70052C5.95591 8.93327 6.32042 9.16873 6.68199 9.40147C7.02886 9.6261 7.37573 9.84803 7.72849 10.0754Z" fill="white"/>
</svg>
