<svg width="1920" height="1000" viewBox="0 0 1920 1000" fill="none" xmlns="http://www.w3.org/2000/svg">
<rect width="1920" height="1000" fill="#1778F2"/>
<mask id="mask0_253_1018" style="mask-type:alpha" maskUnits="userSpaceOnUse" x="0" y="0" width="1920" height="1000">
<rect width="1920" height="1000" fill="#187EFE"/>
</mask>
<g mask="url(#mask0_253_1018)">
<path d="M-71.3782 308.088L-62.3389 302.037L-57.8137 299.009C-57.0707 298.484 -56.2942 298.02 -55.5008 297.579L-53.1433 296.221L-43.6683 290.836C-42.875 290.395 -42.0984 289.92 -41.2884 289.512L-38.8358 288.327L-33.9251 285.953C-20.9249 279.383 -7.1538 274.523 6.7179 270.048C34.7462 261.997 63.9868 258.009 93.2163 258.266L104.172 258.595C105.999 258.662 107.825 258.673 109.652 258.791L115.116 259.243L126.044 260.182L136.91 261.673C144.178 262.517 151.318 264.132 158.513 265.444C159.407 265.623 160.312 265.774 161.206 265.975L163.871 266.623L169.201 267.919L174.53 269.215C176.307 269.651 178.089 270.053 179.832 270.607L190.346 273.735C192.095 274.277 193.855 274.752 195.598 275.355C197.335 275.97 199.095 276.54 200.821 277.188C207.743 279.741 214.497 282.657 221.101 285.836C234.313 292.21 247.006 299.467 259.409 307.104C284.158 322.501 307.862 339.261 331.773 355.591C355.622 371.999 379.723 387.999 404.936 401.999C417.534 408.994 430.5 415.301 443.819 420.715C457.154 426.039 470.909 430.441 485.054 432.911C499.166 435.464 513.669 436.145 527.943 434.223C535.072 433.24 542.117 431.609 548.977 429.369C555.849 427.167 562.541 424.352 568.977 421.022C562.703 424.653 556.133 427.804 549.312 430.352C542.485 432.871 535.412 434.765 528.217 436.022C513.809 438.48 498.993 438.324 484.507 436.229C470.004 434.117 455.881 429.966 442.182 424.905C428.5 419.754 415.266 413.525 402.383 406.709C389.477 399.921 376.935 392.508 364.617 384.776C352.287 377.055 340.17 369.049 328.119 360.965C304.046 344.764 280.353 328.077 255.8 312.937C243.548 305.333 231.067 298.143 218.185 291.869C211.743 288.741 205.184 285.881 198.514 283.394C196.849 282.758 195.162 282.21 193.486 281.607C191.81 281.02 190.061 280.545 188.357 280.003L178.061 276.836C150.463 268.841 121.837 264.579 93.1158 263.584C89.5235 263.439 85.9313 263.579 82.3391 263.556L76.9479 263.584C76.0485 263.595 75.149 263.579 74.2496 263.612L71.5568 263.774C64.3835 264.238 57.1879 264.489 50.0537 265.467C46.4838 265.908 42.8916 266.204 39.3385 266.763L28.7014 268.601C26.9305 268.919 25.1483 269.188 23.3829 269.551L18.1259 270.785L7.60619 273.249C-6.23759 277.182 -20.059 281.512 -33.1821 287.579C-46.5007 293.221 -59.0428 300.501 -71.4005 308.076L-71.3782 308.088Z" fill="#187EFE"/>
<path d="M1945.81 988.773L1935.66 979.75C1932.22 976.801 1928.82 973.806 1925.36 970.895C1918.45 965.041 1911.49 959.264 1904.38 953.688C1890.16 942.51 1875.46 931.962 1860.18 922.358C1829.73 903.056 1796.79 887.498 1761.93 878.727C1727.07 869.866 1690.96 866.905 1654.93 866.609C1618.85 866.246 1582.71 868.279 1546.46 869.548C1510.23 870.676 1473.73 871.095 1437.44 866.916C1419.32 864.793 1401.29 861.508 1383.66 856.626L1377.07 854.698C1374.88 854.05 1372.67 853.452 1370.52 852.665L1364.03 850.436C1361.87 849.693 1359.69 848.978 1357.59 848.078L1351.22 845.519C1349.09 844.67 1346.97 843.838 1344.9 842.827L1338.68 839.938L1335.57 838.491L1334.02 837.771L1332.5 836.966C1316.16 828.754 1300.68 818.938 1286.12 807.988C1271.54 797.044 1257.79 785.088 1244.68 772.524C1231.6 759.915 1219.14 746.719 1207.01 733.25C1200.94 726.518 1194.97 719.702 1189.03 712.858L1171.43 692.154L1189.8 712.166C1195.94 718.819 1202.09 725.467 1208.34 732.009C1220.82 745.11 1233.62 757.904 1246.98 770.066C1260.29 782.262 1274.15 793.854 1288.77 804.362C1292.47 806.915 1296.14 809.524 1299.86 812.044L1311.23 819.296L1322.91 826.011C1326.87 828.122 1330.89 830.117 1334.88 832.173C1351.02 839.994 1367.9 846.201 1385.22 850.827C1402.55 855.458 1420.29 858.531 1438.16 860.464C1473.92 864.386 1510.1 863.939 1546.23 862.698C1582.37 861.57 1618.62 859.542 1655 860.134C1673.19 860.458 1691.4 861.419 1709.51 863.492C1727.62 865.542 1745.65 868.777 1763.28 873.57C1780.9 878.358 1798.13 884.648 1814.58 892.531C1831.05 900.369 1846.86 909.487 1861.99 919.554C1877.1 929.66 1891.57 940.677 1905.5 952.286C1912.48 958.085 1919.3 964.057 1926.03 970.124C1929.39 973.169 1932.67 976.292 1935.99 979.37L1945.8 988.773H1945.81Z" fill="#187EFE"/>
<path d="M1921.02 867.095C1913.29 867.777 1905.44 866.626 1898.01 864.307C1890.59 861.911 1883.54 858.475 1876.8 854.592C1863.3 846.827 1850.91 837.369 1837.94 829.106C1834.69 827.05 1831.43 825.039 1828.08 823.201C1826.41 822.273 1824.72 821.413 1823.01 820.564L1817.79 818.089C1810.8 814.843 1803.73 811.793 1796.58 808.96C1789.4 806.161 1782.17 803.536 1774.87 801.117C1767.57 798.703 1760.18 796.558 1752.75 794.591C1723 786.759 1692.36 782.876 1661.6 781.904C1630.82 780.831 1599.96 782.29 1569.1 784.234C1538.23 786.083 1507.29 788.373 1476.2 788.988L1464.54 789.094C1460.66 789.156 1456.76 788.994 1452.87 788.954C1445.07 788.938 1437.3 788.368 1429.51 788.005C1425.63 787.725 1421.75 787.34 1417.87 787.016L1412.04 786.507L1406.25 785.77C1402.38 785.256 1398.51 784.798 1394.66 784.234L1383.13 782.256C1367.82 779.373 1352.59 775.893 1337.8 770.926L1332.23 769.139C1330.37 768.58 1328.57 767.792 1326.74 767.133L1315.81 762.982L1305.12 758.261C1303.35 757.451 1301.55 756.725 1299.8 755.853L1294.61 753.172C1266.81 739.11 1241.67 719.937 1220.95 696.908L1229.33 704.948C1230.74 706.277 1232.1 707.646 1233.53 708.942L1237.98 712.663C1240.96 715.127 1243.84 717.708 1246.87 720.082L1256.2 726.948C1268.84 735.764 1282.08 743.781 1296.09 750.161L1301.29 752.669C1303.03 753.485 1304.83 754.166 1306.6 754.92L1317.26 759.328L1328.14 763.161C1329.97 763.77 1331.75 764.507 1333.6 765.01L1339.13 766.641L1344.66 768.273C1346.51 768.82 1348.35 769.384 1350.22 769.809L1361.42 772.569C1363.27 773.06 1365.16 773.44 1367.05 773.803L1372.71 774.926C1376.48 775.669 1380.24 776.479 1384.05 776.993L1395.45 778.748C1399.26 779.234 1403.09 779.625 1406.91 780.066L1412.63 780.72L1418.39 781.161C1422.22 781.446 1426.05 781.781 1429.89 782.021C1437.58 782.295 1445.26 782.781 1452.96 782.714C1456.81 782.714 1460.64 782.831 1464.5 782.731L1476.06 782.502C1506.91 781.697 1537.75 779.368 1568.68 777.401C1599.62 775.586 1630.71 774.127 1661.85 775.44C1665.75 775.535 1669.63 775.843 1673.52 776.094C1677.41 776.379 1681.29 776.541 1685.17 776.988L1696.81 778.155L1708.4 779.742C1716.13 780.77 1723.81 782.206 1731.44 783.826C1739.07 785.468 1746.65 787.312 1754.15 789.446C1769.16 793.658 1783.91 798.781 1798.27 804.821C1805.44 807.86 1812.51 811.117 1819.49 814.558L1824.7 817.184C1826.45 818.1 1828.18 819.039 1829.87 820.033C1833.26 822.016 1836.56 824.117 1839.78 826.318C1852.63 835.123 1864.62 844.922 1877.73 853.045C1884.26 857.106 1891.11 860.71 1898.34 863.335C1905.57 865.944 1913.26 867.436 1921.02 867.095Z" fill="#187EFE"/>
<path d="M216 1236.2C217.414 1228.7 218.844 1221.2 220.33 1213.71C221.866 1206.23 223.447 1198.75 225.168 1191.31C228.587 1176.41 232.436 1161.59 237.101 1146.99C241.833 1132.41 247.358 1118.03 254.241 1104.25C261.096 1090.46 269.319 1077.29 279.007 1065.22L280.8 1062.94C281.387 1062.16 281.996 1061.42 282.66 1060.71L286.543 1056.39C287.845 1054.96 289.119 1053.5 290.448 1052.09L294.594 1048.01C297.298 1045.23 300.27 1042.74 303.18 1040.19L305.37 1038.28L307.65 1036.48L312.22 1032.89C324.521 1023.46 337.929 1015.6 351.734 1008.74C379.444 995.08 408.802 985.672 437.953 976.616C467.155 967.666 496.401 959.074 524.385 947.443C538.379 941.666 551.988 935.012 564.888 927.202C577.793 919.403 589.894 910.342 600.894 900.04C611.916 889.755 621.794 878.246 630.66 865.983C639.554 853.732 647.275 840.62 654.068 827.044C660.923 813.491 666.839 799.441 671.979 785.105C674.588 777.949 676.889 770.68 679.119 763.39C680.191 759.73 681.32 756.088 682.342 752.412L685.309 741.356L682.845 752.54C681.984 756.261 681.024 759.96 680.119 763.675C678.152 771.055 676.074 778.418 673.699 785.692C669.029 800.262 663.548 814.597 657.09 828.519C644.163 856.313 626.833 882.403 604.581 903.917L600.419 907.956C598.983 909.252 597.497 910.487 596.039 911.755C593.106 914.275 590.212 916.856 587.095 919.141L582.486 922.666C580.916 923.794 579.313 924.872 577.726 925.979C576.128 927.062 574.564 928.208 572.933 929.247L568.028 932.331C554.893 940.476 541.066 947.415 526.904 953.437C498.535 965.437 469.088 974.13 439.97 983.175C410.824 992.086 381.801 1001.39 354.578 1014.56C340.991 1021.14 327.851 1028.66 315.812 1037.68C303.739 1046.66 292.75 1057.03 283.124 1068.6C273.482 1080.15 265.286 1092.93 258.213 1106.29C251.113 1119.66 245.341 1133.75 240.252 1148.07C235.14 1162.39 230.811 1177.01 226.905 1191.75C224.933 1199.12 223.129 1206.53 221.319 1213.94C219.498 1221.36 217.732 1228.78 215.984 1236.21L216 1236.2Z" fill="#187EFE"/>
<path d="M399.405 1257.99C393.327 1233.52 393.165 1207.58 398.221 1182.68C403.534 1157.82 413.975 1134 428.892 1113.24L434.735 1105.64C435.674 1104.34 436.78 1103.18 437.819 1101.97L440.97 1098.36C443.004 1095.87 445.372 1093.72 447.596 1091.43C449.853 1089.18 452.071 1086.86 454.506 1084.8C456.898 1082.69 459.261 1080.54 461.674 1078.46L469.132 1072.49C471.585 1070.44 474.216 1068.67 476.764 1066.76C479.328 1064.88 481.887 1062.99 484.535 1061.25C505.479 1046.87 527.669 1034.77 548.876 1021.44C559.553 1014.88 569.927 1007.93 579.827 1000.4C582.262 998.471 584.793 996.65 587.156 994.644L594.223 988.588C595.43 987.611 596.514 986.499 597.631 985.432L600.972 982.208L604.319 978.99L607.52 975.583L613.928 968.767L620.045 961.689L623.107 958.147L626.023 954.487L631.855 947.163L637.414 939.621L640.191 935.845C641.107 934.576 641.95 933.264 642.844 931.984L648.14 924.247C649.872 921.643 651.498 918.973 653.185 916.342C666.543 895.185 677.878 872.743 687.37 849.531C688.621 846.653 689.728 843.72 690.828 840.782L694.147 831.972L697.169 823.055L698.683 818.592L700.052 814.083L702.789 805.061L705.197 795.943L706.421 791.384L707.476 786.787L709.583 777.58L707.985 786.893L707.18 791.552L706.203 796.178L704.208 805.429L701.873 814.603L700.705 819.189L699.365 823.731L696.661 832.81L693.655 841.799C692.661 844.799 691.655 847.793 690.504 850.737L687.141 859.603C685.996 862.553 684.716 865.441 683.504 868.363C681.141 874.235 678.392 879.933 675.75 885.687C674.465 888.581 672.945 891.358 671.532 894.196C670.068 897 668.716 899.867 667.157 902.626C664.057 908.146 661.101 913.755 657.738 919.129C651.347 930.085 644.107 940.515 636.643 950.778L630.811 958.303L627.889 962.063L624.822 965.705L618.682 972.996L612.241 980.024L609.017 983.538L605.581 986.884L602.14 990.231C600.989 991.343 599.872 992.488 598.637 993.505L591.391 999.767C588.966 1001.84 586.391 1003.72 583.899 1005.71C573.799 1013.47 563.257 1020.6 552.502 1027.25C530.999 1040.6 508.893 1052.63 488.172 1066.6C485.54 1068.29 483.01 1070.1 480.473 1071.92C477.959 1073.75 475.339 1075.47 472.926 1077.43L465.562 1083.17L458.512 1089.25C456.11 1091.23 453.937 1093.44 451.719 1095.6C449.529 1097.79 447.205 1099.87 445.188 1102.22L442.059 1105.65C441.031 1106.81 439.936 1107.91 438.998 1109.15L433.171 1116.4C418.338 1136.29 407.461 1159.18 401.478 1183.42C395.617 1207.68 394.802 1233.21 399.394 1258L399.405 1257.99Z" fill="#187EFE"/>
<path d="M1781.6 -4.26346C1777.97 2.44613 1774.31 9.15014 1770.6 15.8318C1766.85 22.4855 1763.07 29.1169 1759.15 35.6812C1751.35 48.8211 1743.15 61.7542 1734.24 74.2293C1725.28 86.6596 1715.62 98.6598 1704.85 109.682C1694.12 120.716 1682.26 130.744 1669.34 139.275L1666.93 140.901C1666.14 141.454 1665.33 141.984 1664.48 142.448L1659.46 145.376C1657.78 146.342 1656.12 147.342 1654.42 148.281L1649.23 150.89C1645.8 152.716 1642.21 154.18 1638.66 155.716L1635.99 156.867L1633.27 157.884L1627.82 159.906C1613.22 165.119 1598.06 168.504 1582.81 170.817C1552.25 175.348 1521.42 175.331 1490.9 175.041C1460.36 174.633 1429.89 173.879 1399.69 176.393C1384.6 177.611 1369.6 179.789 1354.94 183.287C1340.27 186.767 1325.98 191.7 1312.35 198.142C1298.71 204.566 1285.79 212.505 1273.6 221.466C1261.39 230.41 1250.03 240.533 1239.41 251.383C1228.74 262.193 1218.81 273.757 1209.53 285.841C1204.86 291.858 1200.45 298.076 1196.1 304.333C1193.96 307.49 1191.77 310.618 1189.67 313.802L1183.47 323.423L1189.24 313.523C1191.19 310.244 1193.24 307.015 1195.24 303.758C1199.37 297.333 1203.6 290.953 1208.08 284.757C1216.99 272.316 1226.58 260.344 1236.99 249.059C1257.79 226.55 1282.27 207.002 1310.03 193.32L1315.23 190.75C1316.99 189.957 1318.78 189.231 1320.56 188.471C1324.13 186.968 1327.67 185.398 1331.34 184.175L1336.8 182.225C1338.64 181.633 1340.5 181.097 1342.35 180.527C1344.2 179.979 1346.04 179.37 1347.9 178.879L1353.52 177.443C1368.51 173.7 1383.8 171.326 1399.12 169.923C1429.8 167.169 1460.5 167.895 1490.98 168.186C1521.46 168.61 1551.94 168.627 1581.89 164.409C1596.83 162.303 1611.64 159.158 1625.86 154.242C1640.1 149.387 1653.74 142.873 1666.44 134.8C1679.15 126.744 1690.86 117.09 1701.69 106.52C1712.54 95.9614 1722.33 84.3132 1731.56 72.2348C1740.8 60.162 1749.4 47.5641 1757.62 34.7259C1761.75 28.3124 1765.74 21.8095 1769.72 15.3066C1773.72 8.80376 1777.67 2.27295 1781.61 -4.26904L1781.6 -4.26346Z" fill="#187EFE"/>
<path d="M1613.63 -81.0801C1611.94 -55.9177 1604.16 -31.1688 1591.73 -9.00645C1579.08 13.0386 1561.85 32.5249 1541.3 47.7374L1533.42 53.1844C1532.12 54.1285 1530.72 54.8995 1529.36 55.7375L1525.25 58.218C1522.56 59.961 1519.64 61.2795 1516.83 62.7823C1513.98 64.2404 1511.17 65.7656 1508.23 66.9835C1505.3 68.2628 1502.4 69.5813 1499.47 70.8327L1490.54 74.235C1487.58 75.4305 1484.53 76.3188 1481.52 77.3523C1478.5 78.3635 1475.49 79.3803 1472.44 80.2294C1448.1 87.5201 1423.27 92.2576 1399.01 98.4588C1386.83 101.436 1374.83 104.889 1363.11 109.04C1360.2 110.129 1357.23 111.09 1354.36 112.28L1345.78 115.884C1344.33 116.448 1342.97 117.174 1341.57 117.845L1337.4 119.889L1333.23 121.934L1329.14 124.197L1320.95 128.727L1312.97 133.599L1308.97 136.035L1305.07 138.627L1297.28 143.817L1289.68 149.297L1285.88 152.046C1284.62 152.973 1283.42 153.962 1282.17 154.912L1274.76 160.661C1272.32 162.61 1269.95 164.655 1267.55 166.65C1248.36 182.706 1230.71 200.611 1214.57 219.812C1212.5 222.17 1210.55 224.623 1208.61 227.086L1202.75 234.461L1197.15 242.025L1194.34 245.813L1191.66 249.684L1186.3 257.433L1181.21 265.377L1178.66 269.344L1176.25 273.4L1171.43 281.523L1175.8 273.148L1177.99 268.958L1180.33 264.852L1185.05 256.656L1190.08 248.64L1192.59 244.628L1195.26 240.718L1200.61 232.896L1206.22 225.259C1208.08 222.706 1209.95 220.159 1211.95 217.712L1217.86 210.298C1219.85 207.84 1221.96 205.483 1224 203.069C1228.05 198.203 1232.41 193.617 1236.68 188.946C1238.79 186.583 1241.09 184.404 1243.29 182.136C1245.55 179.912 1247.71 177.594 1250.04 175.449C1254.67 171.136 1259.2 166.706 1264.05 162.611C1273.48 154.136 1283.57 146.415 1293.81 138.929L1301.66 133.549L1305.6 130.861L1309.63 128.331L1317.7 123.269L1325.98 118.543L1330.13 116.18L1334.42 114.04L1338.72 111.906C1340.16 111.202 1341.57 110.448 1343.06 109.861L1351.87 106.113C1354.82 104.878 1357.84 103.878 1360.82 102.749C1372.81 98.4532 1385.03 94.8777 1397.3 91.833C1421.86 85.6988 1446.59 81.0004 1470.58 74.0338C1473.6 73.2349 1476.57 72.274 1479.53 71.3243C1482.49 70.3466 1485.5 69.5142 1488.4 68.3857L1497.16 65.1734L1505.73 61.5365C1508.63 60.3912 1511.37 58.9442 1514.15 57.5643C1516.9 56.1509 1519.75 54.8827 1522.39 53.2626L1526.42 50.9441C1527.75 50.1564 1529.13 49.4413 1530.4 48.553L1538.16 43.43C1558.36 29.0276 1575.72 10.5525 1588.82 -10.6936C1601.82 -32.0012 1610.41 -56.063 1613.61 -81.0689L1613.63 -81.0801Z" fill="#187EFE"/>
<path d="M279.739 669.891C269.459 689.668 253.744 706.735 234.783 718.926C225.324 725.076 215.011 729.909 204.235 733.423C193.453 736.965 182.318 738.842 171.408 740.915C127.804 748.183 87.1102 768.222 53.7914 796.955C20.221 825.48 -5.94692 862.123 -24.3718 902.263C-42.8022 942.493 -53.9252 985.929 -59.9086 1030.04C-56.7633 985.628 -47.0425 941.331 -29.2545 900.085C-20.3214 879.503 -9.34921 859.749 3.77388 841.447L6.21526 838C7.04208 836.86 7.93595 835.771 8.7963 834.659L13.9975 828L19.4724 821.564C20.3886 820.497 21.2881 819.407 22.2211 818.357L25.0926 815.257C32.6179 806.865 40.8694 799.161 49.3499 791.742L55.8864 786.373L57.5176 785.033L59.2104 783.764L62.5959 781.228C67.0429 777.759 71.7804 774.686 76.4341 771.502C78.7805 769.937 81.2275 768.53 83.6186 767.038L87.2276 764.831C88.4287 764.094 89.6913 763.462 90.9203 762.77L98.345 758.708L105.971 755.032C107.245 754.429 108.507 753.798 109.798 753.222L113.703 751.591C116.312 750.524 118.893 749.378 121.53 748.373C126.854 746.507 132.116 744.451 137.569 742.971C148.34 739.624 159.491 737.395 170.497 735.663C181.503 733.875 192.425 732.199 202.939 729.144C213.442 726.104 223.598 721.73 233.028 716.071C252.018 704.948 268.157 688.897 279.75 669.88L279.739 669.891Z" fill="#187EFE"/>
<path d="M1421.34 467.112C1465.15 458.257 1509.31 450.218 1554.21 447.804C1576.64 446.547 1599.22 446.922 1621.65 449.357C1627.25 450.067 1632.87 450.57 1638.42 451.67C1643.98 452.665 1649.57 453.492 1655.05 454.888L1663.31 456.788L1665.38 457.263L1667.42 457.855L1671.49 459.034L1679.64 461.397C1682.36 462.179 1685.03 463.129 1687.7 464.034C1709.02 471.553 1729.27 481.151 1749.99 489.068C1755.17 491.051 1760.37 492.928 1765.62 494.66C1770.92 496.213 1776.16 497.978 1781.54 499.218C1792.23 502.012 1803.13 503.995 1814.1 505.403C1858.01 510.917 1903.38 505.61 1945.2 489.732C1904.45 508.286 1858.39 515.364 1813.49 510.721L1809.28 510.314L1805.08 509.727C1802.29 509.314 1799.48 508.995 1796.7 508.498L1788.37 506.917C1786.98 506.677 1785.6 506.369 1784.22 506.029L1780.1 505.051C1774.57 503.855 1769.18 502.135 1763.73 500.621C1758.33 498.928 1752.99 497.09 1747.7 495.151C1726.59 487.291 1706.34 477.76 1685.43 470.514C1682.82 469.615 1680.22 468.676 1677.57 467.9L1669.63 465.559L1665.66 464.386L1663.67 463.799L1661.66 463.324L1653.59 461.43C1648.24 460.039 1642.76 459.207 1637.33 458.207C1631.9 457.101 1626.38 456.603 1620.91 455.804C1598.92 453.05 1576.67 452.531 1554.44 453.151C1509.94 454.536 1465.64 461.067 1421.35 467.134L1421.34 467.112Z" fill="#187EFE"/>
<path d="M1476.69 492.917C1496.67 491.425 1516.68 490.364 1536.75 490.168C1556.82 490.051 1576.96 490.833 1596.97 493.52C1616.99 496.079 1636.84 500.822 1655.77 508.241L1662.83 511.113L1664.59 511.844L1666.31 512.682L1669.73 514.364L1676.58 517.733L1683.19 521.565C1685.38 522.873 1687.64 524.068 1689.76 525.47C1691.91 526.839 1694.02 528.269 1696.11 529.711C1700.29 532.605 1704.34 535.644 1708.33 538.727C1716.28 544.94 1723.95 551.404 1731.71 557.638C1739.44 563.918 1747.4 569.773 1755.62 575.298C1772.05 586.337 1789.55 595.834 1807.86 603.494C1812.45 605.371 1817.02 607.315 1821.72 608.93C1824.06 609.762 1826.38 610.65 1828.73 611.444L1835.82 613.729L1839.37 614.879L1842.96 615.896L1850.14 617.907C1852.53 618.583 1854.97 619.086 1857.39 619.684C1859.81 620.237 1862.22 620.879 1864.66 621.36C1884.14 625.516 1904.03 627.796 1924.06 628.394C1904.04 629.321 1883.88 627.935 1864.02 624.662C1844.17 621.276 1824.66 615.773 1805.84 608.444C1803.46 607.589 1801.16 606.572 1798.83 605.583L1791.86 602.617L1785.02 599.343C1782.75 598.242 1780.45 597.186 1778.24 595.963C1773.78 593.583 1769.27 591.281 1764.95 588.65C1762.78 587.365 1760.57 586.119 1758.42 584.795L1752.03 580.695C1743.56 575.175 1735.38 569.141 1727.53 562.856C1719.65 556.594 1711.97 550.203 1704.12 544.119C1700.21 541.063 1696.27 538.074 1692.23 535.241C1690.21 533.834 1688.18 532.437 1686.11 531.107C1684.07 529.744 1681.89 528.582 1679.79 527.308L1673.43 523.571L1666.82 520.286L1663.52 518.643L1661.87 517.822L1660.17 517.107L1653.36 514.236L1649.95 512.794C1648.8 512.358 1647.63 511.967 1646.47 511.554L1639.48 509.09C1637.18 508.208 1634.77 507.621 1632.41 506.906L1625.28 504.839C1620.47 503.677 1615.66 502.526 1610.82 501.459L1603.51 500.062C1601.08 499.598 1598.65 499.096 1596.18 498.772C1556.88 492.565 1516.69 492.855 1476.67 492.894L1476.69 492.917Z" fill="#187EFE"/>
<path d="M1533 509.5C1528.87 509.5 1525.5 506.134 1525.5 502C1525.5 497.866 1528.87 494.5 1533 494.5C1537.13 494.5 1540.5 497.866 1540.5 502C1540.5 506.134 1537.13 509.5 1533 509.5ZM1533 495.976C1529.68 495.976 1526.98 498.679 1526.98 502C1526.98 505.321 1529.68 508.024 1533 508.024C1536.32 508.024 1539.02 505.321 1539.02 502C1539.02 498.679 1536.32 495.976 1533 495.976Z" fill="#FF9F1C" stroke="#F89B1B"/>
<path d="M709.583 710.182C702.258 710.182 696.297 704.221 696.297 696.897C696.297 689.573 702.258 683.612 709.583 683.612C716.907 683.612 722.868 689.573 722.868 696.897C722.868 704.221 716.907 710.182 709.583 710.182ZM709.583 687.724C704.521 687.724 700.409 691.841 700.409 696.897C700.409 701.953 704.527 706.07 709.583 706.07C714.639 706.07 718.756 701.953 718.756 696.897C718.756 691.841 714.639 687.724 709.583 687.724Z" fill="#FF9F1C"/>
<path d="M585.827 626.019C593.155 626.019 599.095 620.079 599.095 612.751C599.095 605.423 593.155 599.482 585.827 599.482C578.499 599.482 572.558 605.423 572.558 612.751C572.558 620.079 578.499 626.019 585.827 626.019Z" fill="#E71D36"/>
<path d="M257.5 897C254.467 897 252 894.533 252 891.5C252 888.467 254.467 886 257.5 886C260.533 886 263 888.467 263 891.5C263 894.533 260.533 897 257.5 897ZM257.5 887.626C255.364 887.626 253.626 889.364 253.626 891.5C253.626 893.636 255.364 895.374 257.5 895.374C259.636 895.374 261.374 893.636 261.374 891.5C261.374 889.364 259.636 887.626 257.5 887.626Z" fill="#FDFFFC" stroke="white" stroke-width="0.5"/>
<path d="M1171.44 652.941C1164.12 652.941 1158.16 646.98 1158.16 639.656C1158.16 632.332 1164.12 626.371 1171.44 626.371C1178.77 626.371 1184.73 632.332 1184.73 639.656C1184.73 646.98 1178.77 652.941 1171.44 652.941ZM1171.44 630.483C1166.39 630.483 1162.27 634.6 1162.27 639.656C1162.27 644.712 1166.39 648.83 1171.44 648.83C1176.5 648.83 1180.62 644.712 1180.62 639.656C1180.62 634.6 1176.5 630.483 1171.44 630.483Z" fill="#E71D36"/>
<g style="mix-blend-mode:lighten">
<path d="M1074.65 851.95C1087.2 851.95 1097.37 841.78 1097.37 829.234C1097.37 816.689 1087.2 806.519 1074.65 806.519C1062.11 806.519 1051.94 816.689 1051.94 829.234C1051.94 841.78 1062.11 851.95 1074.65 851.95Z" fill="#FF9F1C"/>
</g>
<path d="M889.792 185.454C880.412 185.454 872.775 177.823 872.775 168.443C872.775 159.063 880.406 151.426 889.792 151.426C899.177 151.426 906.803 159.057 906.803 168.443C906.803 177.828 899.172 185.454 889.792 185.454ZM889.792 155.538C882.68 155.538 876.892 161.325 876.892 168.437C876.892 175.549 882.68 181.337 889.792 181.337C896.904 181.337 902.691 175.549 902.691 168.437C902.691 161.325 896.904 155.538 889.792 155.538Z" fill="url(#paint0_linear_253_1018)"/>
<path d="M123.84 584.605C116.516 584.605 110.555 578.644 110.555 571.32C110.555 563.996 116.516 558.035 123.84 558.035C131.164 558.035 137.125 563.996 137.125 571.32C137.125 578.644 131.164 584.605 123.84 584.605ZM123.84 562.147C118.779 562.147 114.667 566.264 114.667 571.32C114.667 576.376 118.784 580.494 123.84 580.494C128.896 580.494 133.013 576.376 133.013 571.32C133.013 566.264 128.896 562.147 123.84 562.147Z" fill="url(#paint1_linear_253_1018)"/>
<path d="M1725.48 979.141C1712.94 979.141 1702.73 968.934 1702.73 956.387C1702.73 943.839 1712.94 933.632 1725.48 933.632C1738.03 933.632 1748.24 943.839 1748.24 956.387C1748.24 968.934 1738.03 979.141 1725.48 979.141ZM1725.48 937.739C1715.21 937.739 1706.84 946.102 1706.84 956.381C1706.84 966.661 1715.21 975.024 1725.48 975.024C1735.76 975.024 1744.13 966.661 1744.13 956.381C1744.13 946.102 1735.76 937.739 1725.48 937.739Z" fill="#FF9F1C"/>
<path d="M1504.78 202.392L1484.39 182L1464 202.392L1484.39 222.784L1504.78 202.392Z" fill="#7EB7FF"/>
<path d="M256.999 928L239 909.999L256.999 892L275 909.999L256.999 928ZM241.259 909.999L256.999 925.738L272.738 909.999L256.999 894.262L241.259 909.999Z" fill="#FF9F1C" stroke="#FF9F1C" stroke-width="0.5"/>
<path d="M1725.52 1013.42L1693.13 981.03L1725.52 948.644L1757.9 981.03L1725.52 1013.42ZM1698.94 981.03L1725.52 1007.61L1752.09 981.03L1725.52 954.454L1698.94 981.03Z" fill="#FDFFFC"/>
<path d="M-86.5181 424.363C-69.1659 396.1 -41.8582 373.988 -10.5058 362.334C5.13685 356.423 21.5784 352.747 38.1708 350.792C54.7856 348.937 71.5624 348.876 88.2106 350.021C121.552 352.311 154.34 359.826 185.899 370.541C201.682 375.932 217.173 382.195 232.218 389.413C247.274 396.625 261.867 404.664 276.23 412.972C290.582 421.301 304.744 429.866 319.091 438.011C326.247 442.117 333.493 446.033 340.767 449.871C348.086 453.615 355.438 457.291 362.935 460.615C366.656 462.369 370.444 463.849 374.215 465.397C376.086 466.212 378.042 466.799 379.952 467.514C381.88 468.168 383.773 468.95 385.734 469.503C389.634 470.699 393.517 471.944 397.489 472.894C401.422 473.989 405.427 474.771 409.416 475.632C417.439 477.123 425.523 478.375 433.679 478.961C437.746 479.403 441.841 479.464 445.92 479.704L452.059 479.777L455.126 479.805L458.193 479.727C466.384 479.643 474.562 478.922 482.719 478.067C490.864 477.09 498.982 475.805 507.043 474.201C515.094 472.553 523.116 470.699 531.033 468.436C538.971 466.263 546.809 463.704 554.591 460.995C585.776 450.184 615.464 435.251 643.928 418.357C636.984 422.866 629.995 427.318 622.855 431.525C615.71 435.72 608.464 439.76 601.101 443.581C586.402 451.279 571.268 458.173 555.748 464.151C547.971 467.095 540.111 469.827 532.133 472.218C524.178 474.687 516.099 476.749 507.971 478.604C499.836 480.436 491.602 481.85 483.328 482.984C475.037 483.995 466.713 484.861 458.344 485.084L455.21 485.213L452.07 485.235L445.791 485.257C441.607 485.079 437.411 485.079 433.238 484.699C424.869 484.202 416.55 482.984 408.288 481.537C404.176 480.693 400.047 479.928 395.986 478.838C391.891 477.9 387.874 476.66 383.846 475.464C381.818 474.911 379.863 474.129 377.868 473.475C375.891 472.76 373.874 472.168 371.935 471.352C368.03 469.799 364.097 468.296 360.304 466.559C344.985 459.86 330.259 452.011 315.795 443.849C301.32 435.687 287.107 427.167 272.8 418.91C258.531 410.592 244.118 402.597 229.33 395.457C214.553 388.278 199.279 382.139 183.787 376.664C168.279 371.217 152.474 366.613 136.446 362.982C120.407 359.418 104.161 356.764 87.8028 355.345C71.4506 353.926 54.9811 353.809 38.6401 355.25C22.3159 356.792 6.13686 360.071 -9.34939 365.479L-12.2656 366.457L-15.1148 367.608L-20.8244 369.909C-22.7239 370.68 -24.534 371.653 -26.3999 372.513C-28.2379 373.429 -30.1374 374.228 -31.9195 375.234L-37.2827 378.262L-39.9699 379.776L-42.5454 381.468L-47.6963 384.859C-49.4282 385.977 -50.9868 387.323 -52.6405 388.541C-54.2606 389.809 -55.9422 391.005 -57.5121 392.334L-62.1322 396.435C-65.3167 399.066 -68.0318 402.184 -70.9592 405.089C-72.4564 406.519 -73.7525 408.122 -75.0933 409.692L-79.1101 414.413C-81.6632 417.659 -84.032 421.05 -86.5125 424.374L-86.5181 424.363Z" fill="#187EFE"/>
<path d="M-89.3225 852.212C-86.4845 832.368 -80.0766 813.011 -71.0038 794.994C-61.8696 776.993 -50.0538 760.311 -36.0592 745.652C-22.126 730.931 -5.95264 718.311 11.6621 708.177C29.316 698.098 48.5509 690.702 68.5009 686.512C88.4677 682.444 108.686 681.327 128.653 680.26C148.631 679.294 168.513 678.182 187.927 674.444C226.721 666.858 263.425 648.327 293.107 621.449C265.403 650.422 228.604 670.936 189.017 679.679C169.201 684.148 148.971 685.389 129.027 686.741C109.071 687.998 89.1772 689.176 69.8864 693.221C50.6236 697.132 32.0423 704.244 14.8354 713.814C-2.42744 723.328 -18.221 735.456 -32.2491 749.378C-60.1992 777.295 -80.747 813.044 -89.3225 852.218L-89.3225 852.212Z" fill="#187EFE"/>
<path d="M743.834 270.321C747.991 266.07 751.583 261.338 754.544 256.237C757.365 251.053 759.589 245.584 761.164 239.93C762.594 234.237 763.455 228.427 763.634 222.595C763.678 216.762 763.17 210.941 761.924 205.281C760.561 199.656 758.645 194.186 755.974 189.097C753.209 184.114 749.851 179.337 746.114 174.912C742.337 170.521 738.281 166.376 733.907 162.555C729.516 158.756 724.912 155.186 720.147 151.817C701.052 138.331 679.47 128.046 660.235 112.699C655.42 108.9 650.861 104.671 646.593 100.112C645.554 98.9448 644.436 97.8442 643.459 96.6151L640.475 92.967C638.621 90.4251 636.688 87.9167 635.073 85.196C633.319 82.5535 631.883 79.7322 630.375 76.9333C629.676 75.5143 629.051 74.0561 628.386 72.6148L627.414 70.4416L626.581 68.2181C624.196 62.3241 622.71 56.1732 621.352 50.0223L634.861 47.6982C635.811 53.1732 636.838 58.6705 638.677 63.8828L639.308 65.8605L640.068 67.7879C640.587 69.0673 641.062 70.3689 641.61 71.6371C642.811 74.1232 643.928 76.6595 645.358 79.0339C646.649 81.492 648.252 83.7658 649.772 86.0954L652.263 89.4586C653.073 90.5983 654.04 91.6262 654.917 92.7212C658.554 97.0006 662.52 101.079 666.85 104.839C684.074 120.079 705.191 131.509 724.225 146.314C728.979 150.024 733.583 153.962 737.968 158.147C742.337 162.353 746.388 166.907 750.119 171.7C753.812 176.532 757.075 181.661 759.801 187.192C762.388 192.762 764.136 198.65 765.276 204.617C766.293 210.617 766.527 216.695 766.192 222.723C765.723 228.745 764.544 234.679 762.801 240.422C760.913 246.126 758.377 251.584 755.276 256.684C752.03 261.707 748.181 266.288 743.829 270.333L743.834 270.321Z" fill="#187EFE"/>
<path d="M798.271 837.715C805.707 864.414 805.143 893.246 797.617 920.141C793.857 933.599 788.355 946.616 781.22 958.733C780.315 960.242 779.477 961.789 778.516 963.264L775.561 967.638C774.55 969.08 773.645 970.599 772.544 971.974L769.304 976.153C767.22 979.007 764.796 981.577 762.455 984.231C760.148 986.918 757.639 989.399 755.131 991.851C745.075 1001.64 734.326 1010.38 725.303 1020.3C720.778 1025.25 716.745 1030.48 713.527 1036.16C711.8 1038.94 710.488 1041.95 709.085 1044.89L707.292 1049.46C706.672 1050.97 706.27 1052.58 705.745 1054.13C701.851 1066.69 700.594 1080.08 700.482 1093.52C700.426 1106.99 701.566 1120.58 702.879 1134.29L689.208 1135.31C688.459 1121.45 687.85 1107.39 688.493 1093.19C689.197 1079.03 691.107 1064.62 695.985 1050.9C700.61 1037.14 708.968 1024.43 719.085 1014.4C729.136 1004.25 740.309 995.941 750.449 986.84C752.98 984.56 755.488 982.275 757.79 979.801C760.125 977.354 762.561 974.99 764.667 972.337L767.946 968.448C769.069 967.175 769.991 965.745 771.025 964.393L774.047 960.292C775.036 958.906 775.902 957.443 776.835 956.024C784.215 944.599 790.098 932.157 794.321 919.146C802.768 893.146 804.578 864.687 798.254 837.709L798.271 837.715Z" fill="#187EFE"/>
<path d="M207.391 514.549C198.972 523.817 189.531 532.275 178.86 539.052C168.217 545.828 156.206 550.711 143.569 552.756C130.977 555.007 117.68 553.588 105.479 549.756C99.3505 547.851 93.4566 545.432 87.6464 542.934C81.8754 540.404 76.1714 537.767 70.4842 535.342C64.7802 532.968 59.0762 530.66 53.2549 529.085C50.3722 528.141 47.4168 527.677 44.5062 526.996L40.0871 526.403L37.8859 526.113L35.668 526.029L31.249 525.856L26.7461 526.029C25.9975 526.063 25.2433 526.079 24.4947 526.13L22.2545 526.359C20.7628 526.526 19.2656 526.632 17.7795 526.845C14.8186 527.353 11.8465 527.733 8.93584 528.476C7.4833 528.834 5.99725 529.074 4.56705 529.526L0.254143 530.772C-5.42191 532.644 -11.0365 534.739 -16.3047 537.526L-18.3048 538.515L-20.2378 539.627L-24.0926 541.856C-26.5451 543.527 -29.0982 545.041 -31.4055 546.895C-40.9308 553.912 -48.9197 562.756 -55.0706 572.6L-66.5959 565.175C-58.9701 554.091 -49.3722 544.493 -38.3609 537.124C-35.6793 535.174 -32.7631 533.599 -29.953 531.878L-25.5674 529.593L-23.3719 528.47L-21.1149 527.47C-15.1539 524.672 -8.88565 522.638 -2.58389 520.884L2.19272 519.733C3.77374 519.319 5.40506 519.118 7.00843 518.806C10.2152 518.152 13.4778 517.867 16.7125 517.47C18.3382 517.314 19.9751 517.269 21.6008 517.163L24.0422 517.029C24.8578 517.007 25.6735 517.029 26.4891 517.029L31.3831 517.063L36.344 517.476L38.8189 517.694L41.2603 518.124C42.8804 518.42 44.5117 518.688 46.1207 519.012C49.2772 519.889 52.5007 520.565 55.5343 521.711C61.7355 523.705 67.5679 526.387 73.3055 529.085C79.0262 531.834 84.5793 534.722 90.166 537.476C95.7471 540.18 101.351 542.778 107.11 544.867C118.602 549.029 130.854 550.94 143.094 549.348C155.295 547.94 167.195 543.761 177.972 537.566C188.771 531.376 198.553 523.409 207.386 514.532L207.391 514.549Z" fill="#187EFE"/>
<path d="M1476.69 630.706C1501.3 626.997 1525.96 623.248 1550.9 621.84C1575.77 620.438 1601.07 621.41 1625.49 627.528C1637.71 630.528 1649.56 635.086 1660.79 640.773C1672.03 646.45 1682.68 653.193 1692.91 660.422C1713.39 674.891 1732.31 691.277 1752.27 705.774C1772.22 720.143 1794.12 731.758 1817.18 740.004C1840.24 748.261 1864.43 753.127 1888.83 754.239C1913.3 755.423 1938.09 753.602 1963.29 753.674C1975.89 753.714 1988.62 754.233 2001.36 755.926C2014.08 757.607 2026.81 760.513 2039.04 765.094L2034.07 777.865C2023.06 773.457 2011.43 770.496 1999.52 768.641C1987.59 766.775 1975.41 765.982 1963.12 765.664C1938.53 765.01 1913.49 766.284 1888.21 764.496C1862.87 762.764 1837.82 757.116 1814.21 748.032C1790.57 738.959 1768.32 726.479 1748.21 711.283C1728.22 696.042 1709.8 679.321 1689.91 664.578C1679.98 657.215 1669.68 650.371 1658.81 644.567C1647.96 638.751 1636.53 634.053 1624.63 630.835C1600.81 624.282 1575.77 622.717 1550.98 623.544C1526.13 624.371 1501.39 627.55 1476.7 630.695L1476.69 630.706Z" fill="#187EFE"/>
<path d="M1261.57 931.068C1262.4 939.47 1263.79 947.834 1266.1 955.929C1268.41 964.013 1271.68 971.828 1276.12 978.912C1280.52 986.019 1286.23 992.231 1292.68 997.477C1299.14 1002.72 1306.37 1006.96 1313.93 1010.46C1329.07 1017.5 1345.51 1021.26 1362.04 1023.91C1378.6 1026.53 1395.42 1027.88 1412.29 1030.08C1429.12 1032.29 1446.13 1035.3 1462.5 1041.27C1466.58 1042.8 1470.63 1044.43 1474.56 1046.35L1477.52 1047.78L1480.39 1049.38C1482.3 1050.47 1484.25 1051.5 1486.12 1052.64C1493.57 1057.31 1500.5 1062.75 1506.95 1068.65C1513.3 1074.66 1519.14 1081.1 1524.65 1087.76C1530.09 1094.44 1535.21 1101.3 1540.23 1108.15C1545.21 1115.01 1550.15 1121.82 1555.17 1128.47C1560.21 1135.09 1565.44 1141.47 1570.91 1147.53L1560.65 1156.62C1555.02 1149.94 1549.78 1143.06 1544.81 1136.07C1539.88 1129.07 1535.14 1122.02 1530.42 1115.05C1525.69 1108.11 1520.92 1101.26 1515.92 1094.66C1510.87 1088.12 1505.55 1081.86 1499.82 1076.04C1493.99 1070.35 1487.76 1065.11 1481.03 1060.57C1479.34 1059.46 1477.58 1058.46 1475.85 1057.39L1473.25 1055.81L1470.54 1054.39C1466.95 1052.48 1463.21 1050.83 1459.42 1049.26C1444.2 1043.1 1427.82 1039.59 1411.28 1036.85C1394.72 1034.11 1377.87 1032.19 1361.14 1028.96C1344.47 1025.71 1327.75 1021.3 1312.43 1013.54C1304.8 1009.69 1297.5 1005.06 1291.02 999.432C1284.56 993.806 1278.91 987.203 1274.65 979.795C1270.36 972.398 1267.32 964.37 1265.27 956.147C1263.21 947.918 1262.12 939.493 1261.57 931.068H1261.57Z" fill="#187EFE"/>
<path d="M34.6532 882.352C35.2407 879.863 33.699 877.368 31.2096 876.781C28.7202 876.193 26.2258 877.735 25.6382 880.224C25.0506 882.714 26.5924 885.208 29.0819 885.796C31.5713 886.383 34.0656 884.842 34.6532 882.352Z" fill="#FDFFFC"/>
<path d="M34.6594 916.173C35.247 913.684 33.7052 911.189 31.2158 910.602C28.7263 910.014 26.2319 911.556 25.6444 914.045C25.0568 916.535 26.5986 919.029 29.088 919.617C31.5775 920.204 34.0719 918.663 34.6594 916.173Z" fill="#FDFFFC"/>
<path d="M33.4177 952.251C35.2264 950.442 35.2264 947.51 33.4177 945.701C31.6091 943.893 28.6767 943.893 26.868 945.701C25.0593 947.51 25.0594 950.442 26.868 952.251C28.6767 954.06 31.6091 954.06 33.4177 952.251Z" fill="#FDFFFC"/>
<path d="M31.9154 987.074C34.2785 986.095 35.4007 983.386 34.4219 981.023C33.4431 978.66 30.7338 977.537 28.3707 978.516C26.0076 979.495 24.8854 982.204 25.8643 984.567C26.8431 986.931 29.5523 988.053 31.9154 987.074Z" fill="#FDFFFC"/>
<path d="M59.0054 213.866C61.3706 212.892 62.4984 210.185 61.5245 207.82C60.5507 205.455 57.8438 204.327 55.4787 205.301C53.1135 206.275 51.9857 208.982 52.9595 211.347C53.9334 213.712 56.6403 214.84 59.0054 213.866Z" fill="#FDFFFC"/>
<path d="M95.5652 210.647C96.1549 208.158 94.6153 205.663 92.1264 205.073C89.6375 204.483 87.1418 206.023 86.5521 208.512C85.9623 211.001 87.5019 213.496 89.9908 214.086C92.4797 214.676 94.9755 213.136 95.5652 210.647Z" fill="#FDFFFC"/>
<path d="M128.158 212.857C129.967 211.048 129.967 208.116 128.158 206.307C126.349 204.499 123.417 204.499 121.608 206.307C119.8 208.116 119.8 211.048 121.608 212.857C123.417 214.666 126.349 214.666 128.158 212.857Z" fill="#FDFFFC"/>
<path d="M160.471 213.871C162.836 212.897 163.964 210.19 162.99 207.825C162.016 205.46 159.309 204.332 156.944 205.306C154.579 206.28 153.451 208.987 154.425 211.352C155.399 213.717 158.105 214.845 160.471 213.871Z" fill="#FDFFFC"/>
<path d="M194.298 213.868C196.663 212.894 197.791 210.188 196.817 207.822C195.843 205.457 193.136 204.329 190.771 205.303C188.406 206.277 187.278 208.984 188.252 211.349C189.226 213.714 191.932 214.842 194.298 213.868Z" fill="#FDFFFC"/>
<path d="M1752.67 393.566C1754.41 391.684 1754.28 388.755 1752.4 387.022C1750.52 385.289 1747.59 385.41 1745.86 387.291C1744.13 389.173 1744.25 392.103 1746.13 393.835C1748.01 395.568 1750.94 395.447 1752.67 393.566Z" fill="#FDFFFC"/>
<path d="M1777.66 416.367C1779.39 414.485 1779.27 411.555 1777.39 409.822C1775.51 408.09 1772.58 408.21 1770.84 410.092C1769.11 411.973 1769.23 414.903 1771.11 416.636C1772.99 418.369 1775.92 418.248 1777.66 416.367Z" fill="#FDFFFC"/>
<path d="M1802.64 439.233C1804.39 437.368 1804.29 434.437 1802.43 432.687C1800.56 430.936 1797.63 431.029 1795.88 432.894C1794.13 434.76 1794.23 437.69 1796.09 439.441C1797.96 441.191 1800.89 441.098 1802.64 439.233Z" fill="#FDFFFC"/>
<path d="M1727.65 419.056C1730.2 418.939 1732.18 416.773 1732.06 414.218C1731.95 411.663 1729.78 409.686 1727.22 409.803C1724.67 409.92 1722.69 412.086 1722.81 414.641C1722.93 417.196 1725.09 419.173 1727.65 419.056Z" fill="#FDFFFC"/>
<path d="M1752.63 441.855C1755.18 441.738 1757.16 439.572 1757.04 437.017C1756.93 434.462 1754.76 432.485 1752.21 432.602C1749.65 432.719 1747.67 434.885 1747.79 437.44C1747.91 439.995 1750.07 441.972 1752.63 441.855Z" fill="#FDFFFC"/>
<path d="M1779.99 463.781C1782.11 462.338 1782.65 459.457 1781.21 457.344C1779.76 455.232 1776.88 454.69 1774.77 456.132C1772.66 457.575 1772.11 460.457 1773.56 462.569C1775 464.681 1777.88 465.224 1779.99 463.781Z" fill="#FDFFFC"/>
<path d="M129.463 986.259L-57.6516 1154.65L-62.1656 1149.5L129.463 986.259Z" fill="#E71D36"/>
<path d="M1752.79 176.164L1946.81 -15.3418L1951.56 -10.4032L1752.79 176.164Z" fill="#187EFE"/>
<path d="M726 911L717 927H735L726 911Z" fill="#FDFFFC"/>
<path d="M1483.54 938.387L1456.36 945.666L1476.26 965.56L1483.54 938.387Z" fill="#FDFFFC"/>
<path d="M875.021 194.024L860.249 168.443H889.786L875.021 194.024Z" fill="#FDFFFC"/>
</g>
<defs>
<linearGradient id="paint0_linear_253_1018" x1="889.789" y1="151.426" x2="889.789" y2="185.454" gradientUnits="userSpaceOnUse">
<stop stop-color="#FFC107"/>
<stop offset="1" stop-color="#FD7E14"/>
</linearGradient>
<linearGradient id="paint1_linear_253_1018" x1="123.84" y1="558.035" x2="123.84" y2="584.605" gradientUnits="userSpaceOnUse">
<stop stop-color="#FFC107"/>
<stop offset="1" stop-color="#FD7E14"/>
</linearGradient>
</defs>
</svg>
