<svg width="34" height="34" viewBox="0 0 34 34" fill="none" xmlns="http://www.w3.org/2000/svg">
<path d="M22.7908 0.00195312H10.3598C4.63826 0.00195312 0 4.65614 0 10.3974V22.871C0 28.6123 4.63826 33.2665 10.3598 33.2665H22.7908C28.5124 33.2665 33.1506 28.6123 33.1506 22.871V10.3974C33.1506 4.65614 28.5124 0.00195312 22.7908 0.00195312Z" fill="white"/>
<path d="M22.7908 0.00195312H10.3598C4.63826 0.00195312 0 4.65614 0 10.3974V22.871C0 28.6123 4.63826 33.2665 10.3598 33.2665H22.7908C28.5124 33.2665 33.1506 28.6123 33.1506 22.871V10.3974C33.1506 4.65614 28.5124 0.00195312 22.7908 0.00195312Z" fill="url(#paint0_radial_534_33243)"/>
<g style="mix-blend-mode:color">
<path d="M22.7908 0.00195312H10.3598C4.63826 0.00195312 0 4.65614 0 10.3974V22.871C0 28.6123 4.63826 33.2665 10.3598 33.2665H22.7908C28.5124 33.2665 33.1506 28.6123 33.1506 22.871V10.3974C33.1506 4.65614 28.5124 0.00195312 22.7908 0.00195312Z" fill="#2968CC"/>
</g>
<g style="mix-blend-mode:soft-light" opacity="0.6">
<path d="M22.7908 0.00195312H10.3598C4.63826 0.00195312 0 4.65614 0 10.3974V22.871C0 28.6123 4.63826 33.2665 10.3598 33.2665H22.7908C28.5124 33.2665 33.1506 28.6123 33.1506 22.871V10.3974C33.1506 4.65614 28.5124 0.00195312 22.7908 0.00195312Z" fill="#2968CC"/>
</g>
<path fill-rule="evenodd" clip-rule="evenodd" d="M19.1655 13.6574V16.7776H23.7622L23.0278 21.5866H19.1655V33.2676H13.9864V21.5866H9.77673V16.7776H13.9864V13.1124C13.9864 8.94202 16.4619 6.64062 20.2472 6.64062C22.0608 6.64062 23.9581 6.96559 23.9581 6.96559V11.0587H21.867C19.8066 11.0587 19.1655 12.3427 19.1655 13.6574Z" fill="white"/>
<defs>
<radialGradient id="paint0_radial_534_33243" cx="0" cy="0" r="1" gradientUnits="userSpaceOnUse" gradientTransform="translate(30.0666 3.09862) scale(38.189 38.3202)">
<stop stop-color="#D7D7D7"/>
<stop offset="1" stop-color="#393939"/>
</radialGradient>
</defs>
</svg>
