<svg width="33" height="33" viewBox="0 0 33 33" fill="none" xmlns="http://www.w3.org/2000/svg">
<path d="M22.723 0H10.3899C4.71406 0 0.112915 4.61695 0.112915 10.3122V22.6878C0.112915 28.3831 4.71406 33 10.3899 33H22.723C28.3988 33 33 28.3831 33 22.6878V10.3122C33 4.61695 28.3988 0 22.723 0Z" fill="white"/>
<path d="M22.723 0H10.3899C4.71406 0 0.112915 4.61695 0.112915 10.3122V22.6878C0.112915 28.3831 4.71406 33 10.3899 33H22.723C28.3988 33 33 28.3831 33 22.6878V10.3122C33 4.61695 28.3988 0 22.723 0Z" fill="url(#paint0_radial_534_33252)"/>
<path style="mix-blend-mode:color" d="M22.723 0H10.3899C4.71406 0 0.112915 4.61695 0.112915 10.3122V22.6878C0.112915 28.3831 4.71406 33 10.3899 33H22.723C28.3988 33 33 28.3831 33 22.6878V10.3122C33 4.61695 28.3988 0 22.723 0Z" fill="url(#paint1_linear_534_33252)"/>
<path style="mix-blend-mode:soft-light" opacity="0.6" d="M22.723 0H10.3899C4.71406 0 0.112915 4.61695 0.112915 10.3122V22.6878C0.112915 28.3831 4.71406 33 10.3899 33H22.723C28.3988 33 33 28.3831 33 22.6878V10.3122C33 4.61695 28.3988 0 22.723 0Z" fill="url(#paint2_linear_534_33252)"/>
<path d="M16.5564 11.417C13.7585 11.417 11.4903 13.693 11.4903 16.5011C11.4903 19.3091 13.7585 21.5846 16.5564 21.5846C19.3543 21.5846 21.6225 19.3086 21.6225 16.5011C21.6225 13.6935 19.3543 11.417 16.5564 11.417ZM16.5564 19.8011C14.74 19.8011 13.2677 18.3237 13.2677 16.5011C13.2677 14.6784 14.74 13.2011 16.5564 13.2011C18.3728 13.2011 19.8451 14.6784 19.8451 16.5011C19.8451 18.3237 18.3728 19.8011 16.5564 19.8011ZM23.0068 11.2165C23.0068 11.8724 22.4766 12.4045 21.8229 12.4045C21.1692 12.4045 20.639 11.8724 20.639 11.2165C20.639 10.5605 21.1692 10.0285 21.8229 10.0285C22.4766 10.0285 23.0068 10.56 23.0068 11.2165ZM26.3633 12.4197C26.3158 11.3663 26.1488 10.6463 25.9049 10.0168C25.6525 9.36595 25.3155 8.81358 24.7671 8.26324C24.2186 7.7129 23.6681 7.37427 23.0195 7.12144C22.3916 6.87673 21.6747 6.70919 20.6243 6.66147C19.5719 6.61324 19.236 6.60156 16.5564 6.60156C13.8769 6.60156 13.5414 6.61324 12.4885 6.66147C11.4382 6.70919 10.7212 6.87673 10.0939 7.12144C9.44523 7.37427 8.89475 7.7129 8.3463 8.26324C7.79734 8.81358 7.46037 9.36544 7.2084 10.0168C6.96403 10.6463 6.79757 11.3663 6.75001 12.4197C6.70194 13.4757 6.69031 13.8128 6.69031 16.5016C6.69031 19.1903 6.70194 19.5274 6.75001 20.5834C6.79757 21.6374 6.96453 22.3568 7.2084 22.9863C7.46037 23.6377 7.79734 24.1895 8.3463 24.7399C8.89475 25.2902 9.44472 25.6289 10.0939 25.8817C10.7218 26.1264 11.4387 26.2939 12.4885 26.3417C13.5409 26.3899 13.8769 26.4016 16.5564 26.4016C19.236 26.4016 19.5719 26.3899 20.6243 26.3417C21.6742 26.2939 22.3916 26.1264 23.0195 25.8817C23.6676 25.6283 24.2186 25.2902 24.7671 24.7399C25.3155 24.1895 25.6525 23.6377 25.9049 22.9863C26.1488 22.3568 26.3158 21.6374 26.3633 20.5834C26.4114 19.5274 26.4225 19.1903 26.4225 16.5016C26.4225 13.8128 26.4114 13.4757 26.3633 12.4197ZM24.5874 20.5017C24.5434 21.4668 24.3825 21.9912 24.2474 22.34C24.0683 22.802 23.8548 23.132 23.5098 23.4783C23.1642 23.825 22.8358 24.0393 22.3754 24.219C22.0278 24.3545 21.5052 24.5155 20.5433 24.5597C19.5031 24.6074 19.1909 24.6175 16.5564 24.6175C13.9219 24.6175 13.6102 24.6074 12.57 24.5597C11.6082 24.516 11.0855 24.3551 10.7379 24.219C10.277 24.0393 9.94866 23.8245 9.60359 23.4783C9.25803 23.132 9.04451 22.8025 8.86541 22.34C8.73032 21.9912 8.56993 21.4668 8.52591 20.5017C8.47835 19.4579 8.46823 19.1446 8.46823 16.5011C8.46823 13.8575 8.47835 13.5448 8.52591 12.5004C8.56993 11.5353 8.73032 11.0114 8.86541 10.6621C9.04451 10.2001 9.25853 9.87009 9.60359 9.52384C9.94916 9.17759 10.277 8.96284 10.7379 8.78362C11.0855 8.64807 11.6077 8.48662 12.57 8.44245C13.6102 8.39473 13.9224 8.38458 16.5564 8.38458C19.1904 8.38458 19.5026 8.39473 20.5433 8.44245C21.5052 8.48662 22.0273 8.64807 22.3754 8.78362C22.8358 8.96284 23.1647 9.17759 23.5098 9.52384C23.8553 9.87009 24.0683 10.2001 24.2474 10.6621C24.3825 11.0109 24.5434 11.5353 24.5874 12.5004C24.635 13.5448 24.6446 13.8575 24.6446 16.5011C24.6446 19.1446 24.635 19.4573 24.5874 20.5017Z" fill="white"/>
<defs>
<radialGradient id="paint0_radial_534_33252" cx="0" cy="0" r="1" gradientUnits="userSpaceOnUse" gradientTransform="translate(29.9399 3.07205) scale(37.8854 38.0155)">
<stop stop-color="#D7D7D7"/>
<stop offset="1" stop-color="#393939"/>
</radialGradient>
<linearGradient id="paint1_linear_534_33252" x1="3.12284" y1="29.9797" x2="30.0817" y2="3.1132" gradientUnits="userSpaceOnUse">
<stop stop-color="#B314A3"/>
<stop offset="1" stop-color="#FC971E"/>
</linearGradient>
<linearGradient id="paint2_linear_534_33252" x1="3.12284" y1="29.9797" x2="30.0817" y2="3.1132" gradientUnits="userSpaceOnUse">
<stop stop-color="#B314A3"/>
<stop offset="1" stop-color="#FC971E"/>
</linearGradient>
</defs>
</svg>
