<svg width="24" height="24" viewBox="0 0 24 24" fill="none" xmlns="http://www.w3.org/2000/svg">
<path d="M9.13732 0C9.7402 0.106067 10.3608 0.176778 10.9548 0.32704C12.1606 0.618725 13.2334 1.20209 14.1732 1.98876C15.574 3.1555 16.5315 4.62276 17.0014 6.39054C17.5068 8.28207 17.3826 10.1382 16.6202 11.9325C16.3365 12.5955 15.9464 13.2142 15.5917 13.8771C15.769 14.0627 15.9995 14.2837 16.3187 14.3544C16.4606 14.3809 16.6379 14.3721 16.762 14.3014C16.9659 14.1865 17.161 14.1776 17.3383 14.2837C17.5688 14.4163 17.8082 14.5665 17.9944 14.761C19.874 16.679 21.7358 18.6059 23.6065 20.5328C24.1385 21.0808 24.1296 21.6907 23.5888 22.2211C23.1012 22.6984 22.6135 23.1668 22.117 23.6353C21.6028 24.1303 20.9733 24.1214 20.4768 23.6088C18.5795 21.6554 16.6822 19.7108 14.7938 17.7486C14.6165 17.5718 14.4923 17.3331 14.3859 17.1033C14.2973 16.9265 14.3239 16.7321 14.4391 16.5465C14.5101 16.4316 14.5455 16.2459 14.5012 16.131C14.3948 15.857 14.2352 15.6095 14.1288 15.4062C13.4373 15.7952 12.8167 16.1929 12.1517 16.5023C10.8041 17.1298 9.3767 17.342 7.89609 17.2182C6.14951 17.068 4.59797 16.4404 3.24148 15.362C2.02685 14.3898 1.13139 13.17 0.572838 11.7204C-0.0123127 10.2001 -0.145302 8.62679 0.15614 7.02694C0.439849 5.53317 1.0782 4.19849 2.08005 3.04943C3.16169 1.78546 4.47385 0.883892 6.06085 0.415429C6.66373 0.238651 7.30208 0.159101 7.92269 0.0441946C7.99362 0.0265168 8.07341 0.00883892 8.14434 0C8.47238 0 8.80042 0 9.13732 0ZM8.65856 2.67819C5.37817 2.66935 2.70066 5.34755 2.69179 8.61795C2.69179 11.8884 5.36044 14.5577 8.6497 14.5665C11.9301 14.5754 14.6076 11.906 14.6165 8.62679C14.6253 5.36523 11.9478 2.68703 8.65856 2.67819Z" fill="white"/>
</svg>
