<svg width="68" height="24" viewBox="0 0 68 24" fill="none" xmlns="http://www.w3.org/2000/svg">
<g opacity="0.6">
<path d="M66.4167 22.056C43.9486 -3.79086 5.99904 -4.07325 0.0678501 11.076C0.0343406 11.1757 -0.0326785 10.6774 0.0175858 10.5611C5.39587 -4.4553 42.5747 -5.55163 66.333 21.0759C66.4838 21.2586 66.4167 22.056 66.4167 22.056Z" fill="url(#paint0_linear_269_6518)"/>
<path d="M56.2969 17.1889C60.0667 17.6042 65.7801 20.1457 67.9414 23.2021C67.9247 23.4679 67.8912 23.717 67.8744 23.9828C65.5623 20.4447 63.8533 16.4912 62.3118 12.5544C62.2616 12.4381 62.3789 12.0395 62.3789 12.0395C64.2051 15.7936 65.4785 19.8134 67.9582 23.2187C68.0755 23.3848 67.9079 24.016 67.8912 23.9994C65.6963 21.1423 59.7819 18.2188 56.2969 17.6208C56.2131 17.5876 56.2466 17.1889 56.2969 17.1889Z" fill="url(#paint1_linear_269_6518)"/>
</g>
<defs>
<linearGradient id="paint0_linear_269_6518" x1="33.2155" y1="22.056" x2="33.2155" y2="-0.000244141" gradientUnits="userSpaceOnUse">
<stop stop-color="#885DF1"/>
<stop offset="1" stop-color="#6610F2"/>
</linearGradient>
<linearGradient id="paint1_linear_269_6518" x1="62.1227" y1="23.9998" x2="62.1227" y2="12.0395" gradientUnits="userSpaceOnUse">
<stop stop-color="#885DF1"/>
<stop offset="1" stop-color="#6610F2"/>
</linearGradient>
</defs>
</svg>
