<svg width="16" height="14" viewBox="0 0 16 14" fill="none" xmlns="http://www.w3.org/2000/svg">
<path d="M15.1692 9.56984C15.1098 9.88827 15.0616 10.2105 14.9948 10.5251C14.7461 11.6723 14.3081 12.7427 13.8107 13.7939C13.7254 13.9742 13.6177 14.0317 13.473 13.9857C13.3245 13.9435 13.2688 13.8399 13.28 13.6366C13.3059 13.1532 13.3505 12.6698 13.3542 12.1864C13.3579 11.4497 13.2837 10.7208 13.0647 10.0149C12.7121 8.87926 11.9586 8.16183 10.8933 7.7705C10.2103 7.52113 9.50512 7.40603 8.79246 7.33697C8.75906 7.33313 8.72565 7.33697 8.67369 7.33697C8.67369 7.40219 8.67369 7.46358 8.67369 7.52113C8.67369 8.15799 8.67369 8.79486 8.67369 9.43556C8.67369 9.8077 8.51408 10.0187 8.20601 10.0724C8.05754 10.0993 7.92391 10.0609 7.80514 9.96117C7.76431 9.92664 7.72348 9.88443 7.68636 9.84607C6.28704 8.39969 4.88771 6.95715 3.4921 5.5031C3.39188 5.39952 3.31022 5.25757 3.2731 5.11945C3.21743 4.91611 3.32136 4.74731 3.4624 4.60152C4.07484 3.97232 4.68357 3.3393 5.296 2.7101C6.09774 1.88141 6.89947 1.04888 7.70492 0.220187C7.94618 -0.0291881 8.1726 -0.063717 8.43242 0.101254C8.56605 0.185658 8.6477 0.308428 8.66255 0.473399C8.66997 0.553966 8.6774 0.634534 8.6774 0.718937C8.6774 1.36731 8.6774 2.01569 8.6774 2.66023C8.6774 2.72161 8.6774 2.77916 8.6774 2.85205C8.99661 2.88658 9.30839 2.91344 9.61276 2.95948C10.5444 3.09376 11.4538 3.31244 12.3075 3.7383C13.6882 4.42887 14.5754 5.54147 14.928 7.0876C15.0393 7.57484 15.0801 8.08126 15.1507 8.58001C15.1618 8.64523 15.1655 8.71045 15.1729 8.77567C15.1692 9.03656 15.1692 9.30512 15.1692 9.56984Z" fill="#2b74fe"/>
<path d="M5.42053 0.868466C5.48363 1.08331 5.35743 1.24445 5.19412 1.41325C4.17339 2.45679 3.1638 3.51184 2.15049 4.56306C1.81643 4.90834 1.81643 5.18457 2.1542 5.52986C3.21205 6.62328 4.26989 7.71669 5.32774 8.80627C5.39826 8.87916 5.43538 8.95589 5.42796 9.05948C5.41682 9.25131 5.43167 9.45081 5.40569 9.6388C5.3463 10.034 4.86748 10.2143 4.56312 9.96874C4.51116 9.92654 4.46662 9.8805 4.42208 9.83063C3.02646 8.39576 1.63827 6.96089 0.25008 5.52603C-0.0839762 5.18074 -0.0839762 4.90451 0.253792 4.55922C1.64941 3.11284 3.04502 1.6703 4.44063 0.227764C4.68932 -0.0292847 4.91574 -0.0638136 5.17927 0.104994C5.34259 0.208581 5.40569 0.369716 5.41682 0.55387C5.42425 0.645947 5.42053 0.738024 5.42053 0.868466Z" fill="#2b74fe"/>
</svg>
