<svg width="18" height="18" viewBox="0 0 18 18" fill="none" xmlns="http://www.w3.org/2000/svg">
<path d="M17 9V13.8C17 15.5673 15.5673 17 13.8 17H4.2C2.43269 17 1 15.5673 1 13.8V4.2C1 2.43269 2.43269 1 4.2 1H9M11.9491 2.6182C11.9491 2.6182 11.9491 3.76244 13.0933 4.90667C14.2376 6.05091 15.3818 6.05091 15.3818 6.05091M6.72374 12.1917L9.12664 11.8484C9.47325 11.7989 9.79445 11.6383 10.042 11.3907L16.526 4.90667C17.158 4.27473 17.158 3.25014 16.526 2.6182L15.3818 1.47396C14.7499 0.842014 13.7253 0.842014 13.0933 1.47396L6.60931 7.95797C6.36174 8.20555 6.20114 8.52675 6.15162 8.87336L5.80835 11.2763C5.73207 11.8102 6.18976 12.2679 6.72374 12.1917Z" stroke="#27AE60" stroke-width="1.5" stroke-linecap="round"/>
</svg>
