<svg width="40" height="40" viewBox="0 0 40 40" fill="none" xmlns="http://www.w3.org/2000/svg">
<path d="M25.3725 39.2946C23.8887 39.2946 22.405 39.2823 20.9213 39.3008C20.2209 39.3085 19.6053 39.1315 19.0019 38.7667C16.3854 37.1829 13.7488 35.6299 11.1215 34.0615C9.59158 33.1473 8.06628 32.2268 6.54253 31.3049C6.04076 31.0017 5.76526 30.5538 5.8376 29.9612C5.90994 29.3656 6.25009 28.9562 6.83189 28.7684C7.17512 28.6576 7.51835 28.6806 7.83695 28.8499C8.64962 29.2794 9.45767 29.7196 10.2673 30.1551C11.4709 30.8031 12.6745 31.4496 13.8766 32.0991C14.4322 32.3992 14.9863 32.704 15.5358 33.0164C15.602 33.0549 15.6527 33.1473 15.6774 33.2258C16.0452 34.337 16.8056 35.0142 17.9461 35.2451C18.3832 35.3344 18.828 35.262 19.2559 35.1497C20.972 34.6972 22.6851 34.2354 24.3982 33.7768C25.157 33.5736 25.9143 33.3704 26.6746 33.1734C26.8162 33.1365 26.8408 33.0826 26.8008 32.9456C26.7008 32.6101 26.613 32.2699 26.5345 31.9282C26.5038 31.799 26.4591 31.7589 26.3252 31.7943C25.3571 32.0529 24.3874 32.3038 23.4193 32.5593C21.8632 32.9687 20.3071 33.3689 18.7541 33.7891C17.806 34.0461 16.9887 33.2889 16.9933 32.4392C16.9964 31.8636 17.355 31.3388 17.9215 31.1618C18.554 30.9647 19.2005 30.8108 19.8423 30.6384C21.9325 30.0782 24.0226 29.5195 26.1113 28.9577C26.5653 28.8361 27.0224 28.7684 27.4934 28.773C28.3307 28.7791 29.1696 28.7791 30.0069 28.773C30.4547 28.7699 30.8626 28.8915 31.2428 29.1208C32.0031 29.578 32.765 30.0351 33.5284 30.4876C33.6362 30.5507 33.6762 30.6277 33.6762 30.7508C33.6762 33.1226 33.6762 35.4945 33.6808 37.8663C33.6808 38.051 33.6269 38.1433 33.4422 38.2126C32.7188 38.4819 32.0016 38.7698 31.2874 39.0607C30.8903 39.2223 30.4794 39.2962 30.053 39.2962C28.4923 39.2962 26.9316 39.2962 25.3709 39.2962L25.3725 39.2946Z" fill="white"/>
<path d="M5.60537 1.37296C5.71927 1.37296 5.82085 1.36681 5.9209 1.37296C6.7505 1.42683 7.53239 1.27754 8.26502 0.865045C8.6375 0.655721 9.02998 0.483336 9.41015 0.284786C9.76877 0.0985486 10.1489 0.00619967 10.5522 0.00619967C11.7358 0.00619967 12.9179 0.00158223 14.1015 0.00158223C15.7899 0.00158223 17.4784 0.00466052 19.1668 4.30761e-05C20.0257 -0.00303522 20.8506 0.158575 21.5987 0.580302C21.9958 0.805018 22.3821 1.07283 22.7099 1.38682C23.615 2.25336 24.4877 3.15222 25.3742 4.04031C25.4127 4.07879 25.4465 4.12496 25.5096 4.1973C25.3865 4.205 25.3003 4.21423 25.2126 4.21423C23.461 4.21423 21.708 4.21885 19.9564 4.20962C19.8456 4.20962 19.7117 4.14343 19.6255 4.06494C19.0868 3.57549 18.5589 3.07218 18.0402 2.58735C17.7708 2.85516 17.4399 3.18608 17.0674 3.55702C17.1829 3.65706 17.326 3.76634 17.4507 3.89255C18.9452 5.39168 20.4351 6.89389 21.928 8.39302C22.3313 8.79782 22.5175 9.27496 22.3698 9.83982C22.1204 10.7879 20.9245 11.1789 20.1673 10.5555C19.9272 10.357 19.7224 10.1153 19.5024 9.89369C18.3418 8.7301 17.1798 7.56804 16.0223 6.40136C15.9238 6.30286 15.8623 6.29824 15.7561 6.39521C15.2404 6.87234 14.6725 7.26483 13.9845 7.46184C12.944 7.75889 11.9728 7.59728 11.0617 7.04319C10.7908 6.8785 10.5414 6.67533 10.2536 6.46755C9.97194 6.82155 9.68412 7.18171 9.38398 7.55727C9.47018 7.63114 9.54713 7.69579 9.62409 7.75889C10.0704 8.12675 10.5522 8.43458 11.094 8.64698C11.1494 8.66853 11.2171 8.75165 11.2171 8.80552C11.2217 9.86599 11.2171 10.928 11.211 11.9885C11.211 12.0131 11.1986 12.0362 11.1802 12.1085C10.7877 12.0439 10.3906 11.9946 10.0027 11.91C9.23007 11.7422 8.5313 11.3897 7.89717 10.9311C7.46159 10.6156 7.01985 10.4432 6.47961 10.5124C6.24104 10.5432 5.99478 10.5124 5.75159 10.5186C5.64693 10.5201 5.59922 10.4847 5.60383 10.3754C5.60999 10.2092 5.60383 10.043 5.60383 9.87676C5.60383 7.07705 5.60383 4.2758 5.60229 1.47609C5.60229 1.45146 5.60537 1.4253 5.60845 1.36681L5.60537 1.37296Z" fill="white"/>
<path d="M21.1938 5.62866H39.2804V21.0263H12.6346C12.63 20.9817 12.6223 20.9463 12.6223 20.9093C12.6223 17.003 12.6223 13.0951 12.6177 9.18871C12.6177 8.99786 12.7131 8.99786 12.8439 9.00248C13.7936 9.03634 14.6801 8.8147 15.5113 8.35757C15.5944 8.3114 15.6744 8.25907 15.7575 8.20828C16.1516 8.60692 16.544 9.00402 16.9504 9.41497C16.6179 9.84439 16.1731 10.1476 15.6513 10.3538C15.1326 10.5601 14.5862 10.5185 14.026 10.5262C14.026 10.7463 14.026 10.9433 14.026 11.1404C14.0275 12.7457 14.0322 14.351 14.0275 15.9548C14.0275 16.1118 14.0706 16.1457 14.223 16.138C14.9218 16.1072 15.6036 16.1688 16.2116 16.5674C17.0535 17.1184 17.5014 17.8911 17.5245 18.9023C17.5291 19.1439 17.5245 19.384 17.5245 19.6365H34.3797C34.3797 19.4471 34.3797 19.2517 34.3797 19.0577C34.3735 18.2435 34.666 17.5463 35.2262 16.9645C35.7849 16.3827 36.4868 16.138 37.2825 16.138C37.4365 16.138 37.5904 16.1287 37.7427 16.1334C37.8643 16.1364 37.9059 16.0949 37.9059 15.9671C37.8997 14.2033 37.8982 12.4379 37.8997 10.674C37.8997 10.5432 37.8413 10.5278 37.7381 10.5262C37.4318 10.5216 37.1209 10.5385 36.8177 10.4985C35.4679 10.3231 34.3966 9.09944 34.3797 7.73576C34.3766 7.50181 34.3797 7.26632 34.3797 7.02159C34.2227 7.02159 34.0903 7.02159 33.958 7.02159C30.2409 7.02159 26.5254 7.02159 22.8084 7.02467C22.6422 7.02467 22.5236 6.9785 22.4082 6.8569C22.0496 6.48289 21.6771 6.12273 21.3108 5.75795C21.2769 5.72409 21.2461 5.68715 21.1954 5.62866H21.1938Z" fill="white"/>
<path d="M17.9616 10.4278C18.2371 10.691 18.5142 10.9296 18.7604 11.1959C19.253 11.7269 19.8163 12.1147 20.552 12.2179C21.4108 12.3379 22.1912 12.184 22.8592 11.6007C22.8715 11.5899 22.8853 11.5822 22.9115 11.5653C21.8664 13.3645 22.6622 15.6178 24.3183 16.4628C25.8097 17.2232 27.7244 16.8399 28.7433 15.5132C29.7807 14.1603 29.673 12.1871 28.5433 10.9434C27.4166 9.70288 25.0448 9.35042 23.4995 10.8034C23.8981 10.0446 23.9335 9.26269 23.6365 8.43001C23.795 8.43001 23.9289 8.43001 24.0613 8.43001C26.9718 8.43001 29.8808 8.43308 32.7913 8.42847C32.9775 8.42847 33.0422 8.47772 33.0914 8.67011C33.5255 10.3509 34.5721 11.4298 36.279 11.8331C36.4376 11.87 36.4868 11.93 36.4853 12.0855C36.4806 12.9289 36.4822 13.7739 36.4883 14.6174C36.4883 14.7467 36.456 14.8036 36.3175 14.8344C34.5598 15.2392 33.5116 16.3582 33.073 18.0835C33.0453 18.1944 33.0145 18.2575 32.8744 18.2575C30.0162 18.2513 27.158 18.2513 24.2998 18.2498C22.6114 18.2498 20.9229 18.2498 19.236 18.2498C18.9036 18.2498 18.8989 18.2498 18.8189 17.9327C18.5003 16.666 17.7477 15.7425 16.5856 15.1622C16.2762 15.0083 15.9269 14.9268 15.5898 14.8329C15.4651 14.7975 15.4236 14.7467 15.4251 14.6266C15.4282 13.7632 15.4297 12.8997 15.4282 12.0378C15.4282 11.9254 15.4651 11.8654 15.5852 11.8423C16.5256 11.6653 17.3029 11.2097 17.9124 10.4725C17.9277 10.454 17.9508 10.4386 17.9616 10.4294V10.4278Z" fill="white"/>
<path d="M-0.000244141 12.6103V0.0185547H4.17393C4.18009 0.0908947 4.19394 0.163235 4.19394 0.237114C4.19548 4.09268 4.19702 7.94671 4.19855 11.8023C4.19855 12.0255 4.20163 12.2502 4.20625 12.4733C4.20933 12.5842 4.17239 12.6334 4.0508 12.6334C2.94415 12.6242 1.83904 12.618 0.732391 12.6119C0.490744 12.6119 0.250637 12.6119 -0.000244141 12.6119L-0.000244141 12.6103Z" fill="white"/>
<path d="M39.2835 28.0755V39.2836C39.2297 39.2867 39.1758 39.2944 39.1204 39.2944C37.8475 39.2944 36.5746 39.2913 35.3033 39.299C35.1232 39.299 35.0924 39.2313 35.0924 39.0774C35.0909 38.1185 35.0786 37.1596 35.0786 36.2007C35.0755 33.5472 35.0786 30.8952 35.074 28.2417C35.074 28.134 35.0924 28.074 35.2156 28.074C36.5639 28.0755 37.9137 28.074 39.2835 28.074V28.0755Z" fill="white"/>
<path d="M28.0553 13.3461C28.0492 14.5266 27.1165 15.4301 25.9082 15.427C24.8093 15.4239 23.8612 14.4342 23.855 13.3107C23.8489 12.1394 24.9186 11.2113 25.9775 11.2313C27.1349 11.2528 28.0615 12.1825 28.0553 13.3461Z" fill="white"/>
</svg>
