<svg width="32" height="42" viewBox="0 0 32 42" fill="none" xmlns="http://www.w3.org/2000/svg">
<path d="M15.4108 41.3114C12.8912 41.3114 10.37 41.3114 7.85044 41.3114C7.12709 41.3114 6.78403 40.97 6.78403 40.2515C6.78403 37.9374 6.77432 35.6233 6.79212 33.3109C6.79536 32.8465 6.61897 32.5325 6.27591 32.2396C5.67393 31.725 5.06871 31.2072 4.52984 30.6295C2.55237 28.5096 1.30148 26.0127 0.772317 23.1565C0.56842 22.0626 0.474563 20.9606 0.492364 19.8472C0.502073 19.1886 0.492364 18.5284 0.493982 17.8698C0.502073 16.3066 1.77885 15.0735 3.33721 15.122C4.63988 15.1609 5.74675 16.1739 5.9377 17.504C5.96359 17.6837 5.97492 17.8649 5.97653 18.0462C5.97977 18.9006 5.98786 19.755 5.97653 20.6094C5.94741 22.5869 6.53806 24.3767 7.66758 25.9755C9.12722 28.0436 11.1031 29.3835 13.5968 29.8673C16.3963 30.411 18.9887 29.8673 21.2672 28.1212C23.3336 26.537 24.5942 24.4414 24.9551 21.8425C25.0247 21.3392 25.0004 20.823 25.0101 20.3133C25.0279 19.4119 24.9891 18.5073 25.0635 17.6125C25.1574 16.4959 25.748 15.6835 26.8209 15.2952C27.8663 14.9181 28.834 15.1123 29.6399 15.8745C30.2176 16.4215 30.4991 17.1302 30.4959 17.9394C30.4927 18.6595 30.4943 19.378 30.4959 20.0981C30.5024 22.3684 30.0282 24.5369 29.1075 26.6098C28.3987 28.2054 27.4423 29.6278 26.2092 30.8658C25.6623 31.4143 25.1169 31.9597 24.481 32.4063C24.1719 32.6231 24.0376 32.9096 24.0392 33.2996C24.0505 35.6266 24.0457 37.9536 24.044 40.2806C24.044 40.9635 23.6961 41.3098 23.0132 41.3098C20.4791 41.3098 17.9466 41.3098 15.4124 41.3098L15.4108 41.3114Z" fill="#1778F2"/>
<path d="M22.0407 5.00001C21.9485 5.18935 21.8886 5.40133 21.7607 5.56316C21.1992 6.27518 20.628 6.98072 20.0406 7.67009C19.7833 7.9727 19.6765 8.2931 19.7024 8.68633C19.7622 9.61196 19.8124 10.5376 19.8496 11.4648C19.8804 12.2076 19.2784 12.6364 18.5825 12.3678C17.7945 12.0652 17.0048 11.761 16.2296 11.4244C15.7345 11.2092 15.2797 11.2011 14.7813 11.4244C14.0159 11.7642 13.2197 12.0344 12.4511 12.3662C11.7148 12.685 11.0837 12.07 11.1322 11.4357C11.2034 10.5117 11.2245 9.58283 11.2827 8.65721C11.3054 8.30281 11.2293 7.99535 11.0012 7.72187C10.4607 7.06973 9.92665 6.41434 9.3894 5.75896C9.31658 5.66996 9.24376 5.58257 9.17903 5.48872C8.82464 4.96441 9.01883 4.34301 9.62243 4.13264C10.0205 3.99348 10.4332 3.89638 10.8393 3.78149C11.4073 3.62128 11.9737 3.45946 12.5417 3.29926C12.7764 3.23291 12.9689 3.10669 13.1049 2.90117C13.6194 2.12281 14.1357 1.34444 14.6486 0.564452C14.7991 0.336282 14.9642 0.129149 15.2393 0.0433833C15.618 -0.0747473 15.9885 0.048238 16.2394 0.413957C16.6455 1.00623 17.0355 1.60983 17.432 2.20857C17.5064 2.32023 17.589 2.42865 17.6488 2.5484C17.9013 3.05167 18.322 3.29116 18.856 3.42224C19.6829 3.62452 20.4985 3.87049 21.3157 4.10675C21.7413 4.22974 21.9922 4.56633 22.0391 5.00163L22.0407 5.00001Z" fill="#1778F2"/>
<path d="M20.06 20.658C20.0098 23.2925 17.9482 25.2894 15.4286 25.2651C12.6129 25.2392 10.7908 23.0222 10.7989 20.5981C10.8069 18.1579 12.7423 15.9943 15.4901 15.9781C17.9935 15.9635 20.0859 18.1481 20.0583 20.658H20.06Z" fill="#1778F2"/>
<path d="M7.4718 10.065C7.4459 10.5036 7.20964 10.892 6.73874 11.1007C6.29211 11.2998 5.83415 11.2933 5.45872 10.9405C4.90205 10.4146 4.36804 9.866 3.82593 9.3239C2.72715 8.22674 1.63162 7.12796 0.532839 6.0308C0.264213 5.76056 0.0247156 5.47737 0.0020604 5.06796C-0.0270677 4.53556 0.254504 4.04686 0.728644 3.82354C1.19469 3.60346 1.70929 3.68276 2.1009 4.07275C3.66734 5.63272 5.22732 7.19755 6.7889 8.76237C6.92645 8.89992 7.064 9.03909 7.19023 9.18635C7.38441 9.41452 7.47018 9.68638 7.4718 10.0634V10.065Z" fill="#1778F2"/>
<path d="M25.0636 11.2124C24.5749 11.1897 24.201 10.9697 23.9793 10.5311C23.7576 10.0942 23.79 9.65891 24.0732 9.25435C24.1654 9.12327 24.2803 9.00676 24.3936 8.89349C25.9552 7.32866 27.52 5.76545 29.0849 4.20386C29.1933 4.09544 29.3114 3.99026 29.4409 3.90773C29.936 3.59379 30.5073 3.65367 30.9183 4.05337C31.3374 4.46116 31.441 5.07771 31.1578 5.56641C31.0817 5.6991 30.983 5.82209 30.8746 5.93051C29.2709 7.53903 27.6624 9.14431 26.0588 10.7512C25.7821 11.0279 25.4746 11.2237 25.0652 11.2108L25.0636 11.2124Z" fill="#1778F2"/>
</svg>
