<svg width="43" height="41" viewBox="0 0 43 41" fill="none" xmlns="http://www.w3.org/2000/svg">
<path d="M9.53229 18.3053C9.8588 18.0604 10.1622 17.8404 10.4586 17.6097C12.3999 16.1066 13.9118 14.2292 15.122 12.114C15.8744 10.799 16.5257 9.42732 17.2142 8.07691C17.649 7.22514 18.0695 6.36449 18.4972 5.50917C18.6498 5.20572 18.8486 4.94842 19.1751 4.81178C19.7873 4.5527 20.4297 4.76742 20.7899 5.3743C21.2246 6.10896 21.647 6.85248 22.0729 7.59246C25.4391 13.4218 28.8036 19.2511 32.1735 25.0786C32.4734 25.5968 32.5479 26.0955 32.1753 26.603C31.9037 26.9738 31.5364 27.1708 31.0733 27.1406C29.6838 27.0501 28.2944 26.9472 26.9049 26.8567C25.1747 26.7432 23.4428 26.6757 21.7126 26.8141C19.5956 26.9845 17.5585 27.476 15.6349 28.3952C15.4823 28.468 15.4077 28.4485 15.3226 28.3012C14.1886 26.3368 13.0476 24.3777 11.9102 22.4151C11.1205 21.0522 10.3344 19.6894 9.53406 18.3053H9.53229Z" fill="#1778F2"/>
<path d="M13.4557 29.5648C13.4007 29.6056 13.3581 29.6429 13.3084 29.6713C11.8799 30.4946 10.4532 31.3233 9.02114 32.1396C7.93513 32.7572 6.76394 33.0553 5.52 32.9062C2.66123 32.562 0.750069 30.5745 0.309987 27.9659C-0.0733113 25.7034 1.04996 23.228 3.14923 22.0177C4.38075 21.3079 5.6034 20.5839 6.8296 19.8688C7.04432 19.7428 7.26968 19.6345 7.48262 19.5032C7.62991 19.4127 7.6583 19.5245 7.70799 19.6115C8.25454 20.5626 8.8011 21.5138 9.34943 22.4631C10.7123 24.8215 12.0769 27.1781 13.4557 29.563V29.5648Z" fill="#1778F2"/>
<path d="M11.1222 33.5237C12.2739 32.86 13.4149 32.2034 14.5701 31.5397C14.6074 31.593 14.6429 31.6356 14.6712 31.6835C15.8584 33.7366 17.042 35.7915 18.2345 37.8411C18.6267 38.5154 18.7562 39.1986 18.3836 39.9191C18.0216 40.62 17.4111 40.966 16.6498 40.998C15.8566 41.0317 15.2444 40.6555 14.8416 39.9723C14.201 38.888 13.5693 37.7985 12.9411 36.7072C12.3377 35.662 11.7433 34.6097 11.124 33.5237H11.1222Z" fill="#1778F2"/>
<path d="M39.0833 6.88617C39.5944 6.93053 40.0061 7.2251 40.1587 7.68648C40.306 8.13366 40.1711 8.60391 39.7559 8.87186C39.2058 9.22677 38.6291 9.53909 38.0612 9.86915C37.2644 10.3305 36.4695 10.7955 35.6691 11.2515C35.1297 11.5585 34.663 11.5053 34.2761 11.1149C33.8325 10.6659 33.8609 9.95433 34.34 9.54441C34.4128 9.4823 34.4909 9.42552 34.5725 9.3776C35.8537 8.63408 37.1314 7.89055 38.4179 7.15767C38.6237 7.04055 38.8597 6.97667 39.0833 6.88794V6.88617Z" fill="#1778F2"/>
<path d="M30.0352 16.8946C28.9793 15.0668 27.9306 13.2533 26.8818 11.4397C28.0512 10.8222 29.7903 11.1824 30.6704 12.405C31.744 13.8956 31.4779 15.892 30.0369 16.8946H30.0352Z" fill="#1778F2"/>
<path d="M30.3954 6.45675C29.6093 6.4532 29.0716 5.68838 29.3165 5.00873C29.3679 4.865 29.4442 4.72836 29.5223 4.59349C30.2091 3.40101 30.9011 2.2103 31.5896 1.01782C31.776 0.694858 32.0031 0.428679 32.3882 0.339953C32.7928 0.245903 33.137 0.366571 33.4103 0.659368C33.696 0.966361 33.8131 1.33901 33.6392 1.74005C33.5026 2.05592 33.3269 2.35582 33.1548 2.65571C32.5479 3.71688 31.9339 4.77272 31.3252 5.83211C31.1034 6.21896 30.784 6.4461 30.3954 6.45497V6.45675Z" fill="#1778F2"/>
<path d="M39.3301 18.025C38.6078 18.025 37.8856 18.025 37.1634 18.025C36.5529 18.025 36.0969 17.7109 35.9762 17.2016C35.813 16.5149 36.2903 15.8832 37.0143 15.837C37.2415 15.8228 37.4704 15.8335 37.6993 15.8335C38.9521 15.8335 40.2049 15.8335 41.4577 15.8406C42.0629 15.8424 42.4799 16.1263 42.6325 16.6231C42.8294 17.2655 42.3858 17.9381 41.715 18.0055C41.5465 18.0215 41.3761 18.0268 41.2075 18.0268C40.5811 18.0286 39.9547 18.0268 39.3283 18.0268L39.3301 18.025Z" fill="#1778F2"/>
</svg>
