<svg width="41" height="41" viewBox="0 0 41 41" fill="none" xmlns="http://www.w3.org/2000/svg">
<path d="M20.5417 40.9984C-6.41108 40.6098 -7.13591 1.05468 20.1156 0.00280862C47.5255 -0.390639 48.2487 40.6836 20.5417 41V40.9984ZM20.3801 34.517V34.5105C24.0875 35.0501 20.6935 31.31 23.2239 30.7415C28.6145 29.362 29.6707 22.015 24.7732 19.3427C22.8321 18.0885 20.1124 17.8252 18.6202 15.9864C17.5787 13.6177 20.9531 13.1504 22.615 13.5535C23.5406 13.6835 24.414 13.987 25.258 14.3773C25.7984 14.6278 26.0482 14.517 26.2588 13.9678C26.7453 11.7564 28.1786 10.6596 25.0589 9.97067C24.2524 9.58365 22.4109 9.97228 22.424 8.77427C22.282 7.99541 22.8044 6.46819 21.5816 6.48746C20.6658 6.61914 18.7541 5.927 18.8308 7.3675C18.857 9.92249 18.9925 9.53387 16.6808 10.4862C13.326 11.9572 12.1408 16.8263 14.7691 19.4648C16.6596 21.5685 19.6879 21.8415 21.9489 23.3848C23.366 24.3098 23.0819 26.4698 21.4412 26.9547C19.1998 27.8123 16.7837 26.8295 14.7218 25.927C13.6672 25.4677 13.5399 28.3599 13.2019 29.0312C12.9522 30.3031 15.4972 30.6451 16.4066 30.9454C17.0645 31.2248 18.4488 30.886 18.5158 31.819C18.6317 33.4201 18.0407 34.8606 20.3768 34.5137L20.3801 34.517Z" fill="white"/>
</svg>
