<svg width="214" height="47" viewBox="0 0 214 47" fill="none" xmlns="http://www.w3.org/2000/svg">
<path d="M27.0012 32.4351V21.8791C27.0012 20.4945 25.8695 19.3738 24.4762 19.3738H17.6544C16.2589 19.3738 15.1294 20.4967 15.1294 21.8791V34.1397C18.4163 34.0301 22.5014 33.4351 27.0012 32.4351Z" fill="#1778F2"/>
<path d="M47.5863 30.6836V45.9998H59.4581V24.843C56.0449 26.8406 52.0253 28.8247 47.5863 30.6836Z" fill="#1778F2"/>
<path d="M24.7783 40.3339H27.0012V37.4326C22.7629 38.4504 18.7432 39.1707 15.1294 39.5577V46H27.0012V43.177L24.7783 40.3339Z" fill="#1778F2"/>
<path d="M38.5123 34.1019C36.0527 34.9318 33.6112 35.679 31.2147 36.3433V40.334H33.645L31.2147 43.4411V46.0001H43.0865V32.469C41.5941 33.0305 40.0678 33.5763 38.5123 34.1019Z" fill="#1778F2"/>
<path d="M40.9989 16.6471L43.0865 13.9784V13.3163C43.0865 12.0256 42.0337 10.981 40.7329 10.981H33.5683C32.2675 10.981 31.2147 12.0256 31.2147 13.3163V31.413C34.0305 30.6726 36.9522 29.8002 39.8988 28.8047C40.9899 28.4379 42.0495 28.0643 43.0865 27.6863V16.6471H40.9989Z" fill="#1778F2"/>
<path d="M47.5863 3.01089V13.7347L49.8655 16.6472H47.5863V25.9527C52.3206 24.0245 56.3199 22.0448 59.4581 20.1949V3.01089C59.4581 1.34886 58.1009 0 56.4237 0H50.6185C48.9457 0 47.5863 1.34663 47.5863 3.01089Z" fill="#1778F2"/>
<path d="M71.1135 10.0752L64.5689 14.7727L67.9528 14.7682C65.4278 18.9714 54.3428 25.1699 40.2797 29.9144C23.4076 35.6051 8.64108 37.0413 7.29744 33.1244C6.65493 31.2499 9.20243 28.4895 13.8804 25.4987V22.1903C4.58537 27.1384 -0.983065 32.2408 0.144147 35.5358C1.88456 40.6181 18.8919 39.4795 38.1312 32.9924C53.9054 27.673 66.2777 20.4075 69.2648 15.1619L71.1247 17.5532L71.1135 10.0752Z" fill="#FF772C"/>
<path d="M76.4 4.98H81.44V25H76.4V4.98ZM84.1923 25V4.98H89.2323L96.2323 16.88H96.2883V4.98H101.328V25H96.2883L89.2883 13.1H89.2323V25H84.1923ZM109.111 13.492H117.147V17.608H109.111V25H104.071V4.98H118.967V9.096H109.111V13.492ZM120.915 4.98H125.955V20.884H134.859V25H120.915V4.98ZM148.808 20.828H141.948L140.66 25H135.62L142.872 4.98H147.912L155.136 25H150.096L148.808 20.828ZM143.096 16.992H147.688L145.42 9.6H145.364L143.096 16.992ZM156.544 25V4.98H161.584L168.584 16.88H168.64V4.98H173.68V25H168.64L161.64 13.1H161.584V25H156.544ZM187.937 20.828H181.077L179.789 25H174.749L182.001 4.98H187.041L194.265 25H189.225L187.937 20.828ZM182.225 16.992H186.817L184.549 9.6H184.493L182.225 16.992ZM195.673 25V4.98H205.109C209.561 4.98 212.249 7.024 212.249 10.804C212.249 13.464 210.681 15.144 208.189 15.704V15.76C213.201 16.628 211.381 24.384 212.529 24.72V25H207.293C206.313 24.16 208.133 18.028 203.849 18.028H200.713V25H195.673ZM200.713 9.096V13.912H204.129C206.145 13.912 207.209 13.184 207.209 11.504C207.209 9.824 206.145 9.096 204.129 9.096H200.713Z" fill="white"/>
<path d="M75.828 35.42H76.908V44H75.828V35.42ZM81.3905 37.712C82.5065 37.712 83.4425 38.324 83.4425 39.728V44H82.4825V39.968C82.4825 39.176 82.1105 38.552 81.1505 38.552C80.0705 38.552 79.3505 39.236 79.3505 40.184V44H78.3905V37.88H79.3505V38.612H79.3745C79.6985 38.18 80.3465 37.712 81.3905 37.712ZM87.2517 36.26C86.4357 36.2 86.0877 36.32 86.0877 37.016V37.88H87.2517V38.72H86.0877V44H85.1277V38.72H84.2757V37.88H85.1277V36.92C85.1277 35.672 85.7517 35.348 86.5677 35.348C86.7837 35.348 87.0357 35.372 87.2517 35.42V36.26ZM88.2233 35.42H89.1833V44H88.2233V35.42ZM94.5988 37.88H95.5588V44H94.5988V43.268H94.5748C94.2508 43.7 93.6028 44.168 92.5588 44.168C91.4428 44.168 90.5068 43.556 90.5068 42.152V37.88H91.4668V41.912C91.4668 42.704 91.8388 43.328 92.7988 43.328C93.8788 43.328 94.5988 42.644 94.5988 41.696V37.88ZM99.4867 43.328C100.711 43.328 101.167 42.536 101.275 42.116H102.235C101.923 43.256 101.047 44.168 99.5227 44.168C97.6627 44.168 96.5347 42.86 96.5347 40.94C96.5347 38.9 97.6867 37.712 99.4747 37.712C101.395 37.712 102.331 39.02 102.331 41.192H97.4947C97.4947 42.296 98.1547 43.328 99.4867 43.328ZM99.4747 38.552C98.3227 38.552 97.4947 39.368 97.4947 40.352H101.371C101.371 39.368 100.627 38.552 99.4747 38.552ZM106.281 37.712C107.397 37.712 108.333 38.324 108.333 39.728V44H107.373V39.968C107.373 39.176 107.001 38.552 106.041 38.552C104.961 38.552 104.241 39.236 104.241 40.184V44H103.281V37.88H104.241V38.612H104.265C104.589 38.18 105.237 37.712 106.281 37.712ZM113.965 40.088C113.917 39.416 113.461 38.552 112.237 38.552C110.785 38.552 110.233 39.788 110.233 40.94C110.233 42.092 110.785 43.328 112.237 43.328C113.473 43.328 113.917 42.476 113.965 41.744H114.925C114.841 43.136 113.749 44.168 112.237 44.168C110.449 44.168 109.273 42.86 109.273 40.94C109.273 39.02 110.449 37.712 112.237 37.712C113.749 37.712 114.781 38.72 114.925 40.088H113.965ZM118.448 43.328C119.672 43.328 120.128 42.536 120.236 42.116H121.196C120.884 43.256 120.008 44.168 118.484 44.168C116.624 44.168 115.496 42.86 115.496 40.94C115.496 38.9 116.648 37.712 118.436 37.712C120.356 37.712 121.292 39.02 121.292 41.192H116.456C116.456 42.296 117.116 43.328 118.448 43.328ZM118.436 38.552C117.284 38.552 116.456 39.368 116.456 40.352H120.332C120.332 39.368 119.588 38.552 118.436 38.552ZM124.918 37.712C125.146 37.712 125.314 37.724 125.482 37.748V38.708H125.458C124.126 38.492 123.202 39.428 123.202 40.736V44H122.242V37.88H123.202V39.092H123.226C123.55 38.288 124.042 37.712 124.918 37.712ZM128.902 35.42H129.982V39.068H134.566V35.42H135.646V44H134.566V40.028H129.982V44H128.902V35.42ZM137.713 36.692C137.449 36.692 137.113 36.488 137.113 36.116C137.113 35.744 137.449 35.54 137.713 35.54C137.989 35.54 138.313 35.744 138.313 36.116C138.313 36.488 137.989 36.692 137.713 36.692ZM137.233 37.88H138.193V44H137.233V37.88ZM142.309 37.712C142.537 37.712 142.705 37.724 142.873 37.748V38.708H142.849C141.517 38.492 140.593 39.428 140.593 40.736V44H139.633V37.88H140.593V39.092H140.617C140.941 38.288 141.433 37.712 142.309 37.712ZM144.346 36.692C144.082 36.692 143.746 36.488 143.746 36.116C143.746 35.744 144.082 35.54 144.346 35.54C144.622 35.54 144.946 35.744 144.946 36.116C144.946 36.488 144.622 36.692 144.346 36.692ZM143.866 37.88H144.826V44H143.866V37.88ZM149.265 37.712C150.381 37.712 151.317 38.324 151.317 39.728V44H150.357V39.968C150.357 39.176 149.985 38.552 149.025 38.552C147.945 38.552 147.225 39.236 147.225 40.184V44H146.265V37.88H147.225V38.612H147.249C147.573 38.18 148.221 37.712 149.265 37.712ZM156.961 37.88H157.921V43.664C157.921 45.296 156.889 46.124 155.209 46.124C153.529 46.124 152.533 45.236 152.437 44.192H153.397C153.517 44.816 154.021 45.284 155.161 45.284C156.301 45.284 156.961 44.792 156.961 43.652V42.728H156.937C156.577 43.256 156.001 43.688 154.993 43.688C153.481 43.688 152.257 42.716 152.257 40.7C152.257 38.684 153.481 37.712 154.993 37.712C156.001 37.712 156.577 38.168 156.937 38.636H156.961V37.88ZM155.113 42.848C156.253 42.848 156.961 42.14 156.961 40.7C156.961 39.26 156.253 38.552 155.113 38.552C153.853 38.552 153.217 39.5 153.217 40.7C153.217 41.9 153.853 42.848 155.113 42.848ZM161.784 44V35.42H165.192C166.764 35.42 167.976 36.116 167.976 37.916C167.976 39.716 166.764 40.412 165.192 40.412H162.864V44H161.784ZM162.864 36.38V39.452H165.312C166.38 39.452 166.896 38.96 166.896 37.916C166.896 36.872 166.38 36.38 165.312 36.38H162.864ZM168.907 35.42H169.867V44H168.907V35.42ZM174.97 39.44C174.97 38.96 174.706 38.552 173.722 38.552C172.558 38.552 172.174 38.888 172.114 39.776H171.154C171.214 38.6 171.946 37.712 173.722 37.712C174.886 37.712 175.93 38.168 175.93 39.644V42.62C175.93 43.1 176.014 43.364 176.626 43.292V43.964C176.374 44.048 176.242 44.06 176.062 44.06C175.486 44.06 175.138 43.904 174.97 43.232H174.946C174.562 43.808 173.878 44.168 172.87 44.168C171.634 44.168 170.854 43.46 170.854 42.428C170.854 41.036 171.886 40.676 173.47 40.376C174.502 40.184 174.97 40.052 174.97 39.44ZM172.966 43.328C174.106 43.328 174.97 42.812 174.97 41.636V40.616C174.79 40.796 174.202 40.964 173.554 41.096C172.366 41.348 171.814 41.648 171.814 42.38C171.814 42.98 172.174 43.328 172.966 43.328ZM179.89 38.72H178.69V42.404C178.69 43.1 179.074 43.22 179.89 43.16V44C179.674 44.048 179.422 44.072 179.17 44.072C178.354 44.072 177.73 43.748 177.73 42.5V38.72H176.83V37.88H177.73V35.84H178.69V37.88H179.89V38.72ZM183.299 36.26C182.483 36.2 182.135 36.32 182.135 37.016V37.88H183.299V38.72H182.135V44H181.175V38.72H180.323V37.88H181.175V36.92C181.175 35.672 181.799 35.348 182.615 35.348C182.831 35.348 183.083 35.372 183.299 35.42V36.26ZM186.71 44.168C184.838 44.168 183.71 42.848 183.71 40.94C183.71 39.032 184.838 37.712 186.71 37.712C188.57 37.712 189.698 39.032 189.698 40.94C189.698 42.848 188.57 44.168 186.71 44.168ZM186.71 43.328C188.078 43.328 188.738 42.248 188.738 40.94C188.738 39.632 188.078 38.552 186.71 38.552C185.33 38.552 184.67 39.632 184.67 40.94C184.67 42.248 185.33 43.328 186.71 43.328ZM193.344 37.712C193.572 37.712 193.74 37.724 193.908 37.748V38.708H193.884C192.552 38.492 191.628 39.428 191.628 40.736V44H190.668V37.88H191.628V39.092H191.652C191.976 38.288 192.468 37.712 193.344 37.712ZM201.177 37.712C202.413 37.712 203.013 38.444 203.013 39.728V44H202.053V39.968C202.053 39.176 201.897 38.552 200.937 38.552C199.977 38.552 199.377 39.236 199.377 40.184V44H198.417V39.968C198.417 39.176 198.261 38.552 197.301 38.552C196.341 38.552 195.741 39.236 195.741 40.184V44H194.781V37.88H195.741V38.612H195.765C196.089 38.18 196.617 37.712 197.541 37.712C198.417 37.712 198.921 38.084 199.173 38.768H199.197C199.617 38.192 200.253 37.712 201.177 37.712Z" fill="white"/>
</svg>
