<svg width="23" height="24" viewBox="0 0 23 24" fill="none" xmlns="http://www.w3.org/2000/svg">
<path d="M8.7566 0C9.33436 0.106067 9.92912 0.176778 10.4984 0.32704C11.6539 0.618725 12.682 1.20209 13.5826 1.98876C14.9251 3.1555 15.8427 4.62276 16.293 6.39054C16.7773 8.28207 16.6584 10.1382 15.9277 11.9325C15.6558 12.5955 15.2819 13.2142 14.9421 13.8771C15.112 14.0627 15.3329 14.2837 15.6388 14.3544C15.7747 14.3809 15.9446 14.3721 16.0636 14.3014C16.259 14.1865 16.4459 14.1776 16.6159 14.2837C16.8368 14.4163 17.0662 14.5665 17.2446 14.761C19.0459 16.679 20.8301 18.6059 22.6229 20.5328C23.1327 21.0808 23.1242 21.6907 22.6059 22.2211C22.1386 22.6984 21.6713 23.1668 21.1955 23.6353C20.7027 24.1303 20.0994 24.1214 19.6236 23.6088C17.8054 21.6554 15.9871 19.7108 14.1774 17.7486C14.0074 17.5718 13.8885 17.3331 13.7865 17.1033C13.7016 16.9265 13.7271 16.7321 13.8375 16.5465C13.9055 16.4316 13.9395 16.2459 13.897 16.131C13.795 15.857 13.6421 15.6095 13.5401 15.4062C12.8774 15.7952 12.2827 16.1929 11.6454 16.5023C10.3539 17.1298 8.98601 17.342 7.56709 17.2182C5.89328 17.068 4.40639 16.4404 3.10642 15.362C1.9424 14.3898 1.08425 13.17 0.54897 11.7204C-0.0117997 10.2001 -0.139247 8.62679 0.149634 7.02694C0.421522 5.53317 1.03327 4.19849 1.99338 3.04943C3.02995 1.78546 4.28744 0.883892 5.80831 0.415429C6.38607 0.238651 6.99782 0.159101 7.59258 0.0441946C7.66055 0.0265168 7.73702 0.00883892 7.80499 0C8.11936 0 8.43373 0 8.7566 0ZM8.29779 2.67819C5.15408 2.66935 2.58813 5.34755 2.57964 8.61795C2.57964 11.8884 5.13709 14.5577 8.28929 14.5665C11.433 14.5754 13.9989 11.906 14.0074 8.62679C14.0159 5.36523 11.45 2.68703 8.29779 2.67819Z" fill="white"/>
</svg>
