<svg width="103" height="103" viewBox="0 0 103 103" fill="none" xmlns="http://www.w3.org/2000/svg">
<g opacity="0.5">
<path d="M2.40153 53.648C3.72597 53.648 4.79964 52.5744 4.79964 51.2499C4.79964 49.9255 3.72597 48.8518 2.40153 48.8518C1.07709 48.8518 0.00341797 49.9255 0.00341797 51.2499C0.00341797 52.5744 1.07709 53.648 2.40153 53.648Z" fill="url(#paint0_linear_269_6310)"/>
<path d="M9.38944 46.6729C10.7139 46.6729 11.7876 45.5993 11.7876 44.2748C11.7876 42.9504 10.7139 41.8767 9.38944 41.8767C8.065 41.8767 6.99133 42.9504 6.99133 44.2748C6.99133 45.5993 8.065 46.6729 9.38944 46.6729Z" fill="url(#paint1_linear_269_6310)"/>
<path d="M18.0662 35.5977C19.0074 36.5389 19.0074 38.0603 18.0662 39.0015C17.125 39.9427 15.6036 39.9427 14.6624 39.0015C13.7212 38.0603 13.7212 36.5389 14.6624 35.5977C15.6036 34.6565 17.125 34.6565 18.0662 35.5977Z" fill="url(#paint2_linear_269_6310)"/>
<path d="M23.3403 32.7098C24.6647 32.7098 25.7384 31.6361 25.7384 30.3117C25.7384 28.9872 24.6647 27.9136 23.3403 27.9136C22.0158 27.9136 20.9421 28.9872 20.9421 30.3117C20.9421 31.6361 22.0158 32.7098 23.3403 32.7098Z" fill="url(#paint3_linear_269_6310)"/>
<path d="M30.3149 25.7345C31.6393 25.7345 32.713 24.6608 32.713 23.3363C32.713 22.0119 31.6393 20.9382 30.3149 20.9382C28.9904 20.9382 27.9167 22.0119 27.9167 23.3363C27.9167 24.6608 28.9904 25.7345 30.3149 25.7345Z" fill="url(#paint4_linear_269_6310)"/>
<path d="M37.3028 18.7594C38.6272 18.7594 39.7009 17.6857 39.7009 16.3612C39.7009 15.0368 38.6272 13.9631 37.3028 13.9631C35.9783 13.9631 34.9047 15.0368 34.9047 16.3612C34.9047 17.6857 35.9783 18.7594 37.3028 18.7594Z" fill="url(#paint5_linear_269_6310)"/>
<path d="M18.0662 49.5482C19.0074 50.4894 19.0074 52.0108 18.0662 52.952C17.125 53.8931 15.6036 53.8931 14.6624 52.952C13.7212 52.0108 13.7212 50.4894 14.6624 49.5482C15.6036 48.607 17.125 48.607 18.0662 49.5482Z" fill="url(#paint6_linear_269_6310)"/>
<path d="M23.3403 46.6729C24.6647 46.6729 25.7384 45.5993 25.7384 44.2748C25.7384 42.9504 24.6647 41.8767 23.3403 41.8767C22.0158 41.8767 20.9421 42.9504 20.9421 44.2748C20.9421 45.5993 22.0158 46.6729 23.3403 46.6729Z" fill="url(#paint7_linear_269_6310)"/>
<path d="M30.3149 39.6978C31.6393 39.6978 32.713 38.6242 32.713 37.2997C32.713 35.9753 31.6393 34.9016 30.3149 34.9016C28.9904 34.9016 27.9167 35.9753 27.9167 37.2997C27.9167 38.6242 28.9904 39.6978 30.3149 39.6978Z" fill="url(#paint8_linear_269_6310)"/>
<path d="M37.3028 32.7098C38.6272 32.7098 39.7009 31.6361 39.7009 30.3117C39.7009 28.9872 38.6272 27.9136 37.3028 27.9136C35.9783 27.9136 34.9047 28.9872 34.9047 30.3117C34.9047 31.6361 35.9783 32.7098 37.3028 32.7098Z" fill="url(#paint9_linear_269_6310)"/>
<path d="M45.9804 21.6346C46.9216 22.5758 46.9216 24.0972 45.9804 25.0384C45.0392 25.9796 43.5178 25.9796 42.5766 25.0384C41.6354 24.0972 41.6354 22.5758 42.5766 21.6346C43.5178 20.6934 45.0392 20.6934 45.9804 21.6346Z" fill="url(#paint10_linear_269_6310)"/>
<path d="M23.3403 60.6231C24.6647 60.6231 25.7384 59.5495 25.7384 58.225C25.7384 56.9006 24.6647 55.8269 23.3403 55.8269C22.0158 55.8269 20.9421 56.9006 20.9421 58.225C20.9421 59.5495 22.0158 60.6231 23.3403 60.6231Z" fill="url(#paint11_linear_269_6310)"/>
<path d="M30.3149 53.648C31.6393 53.648 32.713 52.5744 32.713 51.2499C32.713 49.9255 31.6393 48.8518 30.3149 48.8518C28.9904 48.8518 27.9167 49.9255 27.9167 51.2499C27.9167 52.5744 28.9904 53.648 30.3149 53.648Z" fill="url(#paint12_linear_269_6310)"/>
<path d="M37.3028 46.6729C38.6272 46.6729 39.7009 45.5993 39.7009 44.2748C39.7009 42.9504 38.6272 41.8767 37.3028 41.8767C35.9783 41.8767 34.9047 42.9504 34.9047 44.2748C34.9047 45.5993 35.9783 46.6729 37.3028 46.6729Z" fill="url(#paint13_linear_269_6310)"/>
<path d="M45.9804 35.5977C46.9216 36.5389 46.9216 38.0603 45.9804 39.0015C45.0392 39.9427 43.5178 39.9427 42.5766 39.0015C41.6354 38.0603 41.6354 36.5389 42.5766 35.5977C43.5178 34.6565 45.0392 34.6565 45.9804 35.5977Z" fill="url(#paint14_linear_269_6310)"/>
<path d="M51.2535 32.7098C52.5779 32.7098 53.6516 31.6361 53.6516 30.3117C53.6516 28.9872 52.5779 27.9136 51.2535 27.9136C49.929 27.9136 48.8553 28.9872 48.8553 30.3117C48.8553 31.6361 49.929 32.7098 51.2535 32.7098Z" fill="url(#paint15_linear_269_6310)"/>
<path d="M30.3149 67.6112C31.6393 67.6112 32.713 66.5375 32.713 65.2131C32.713 63.8886 31.6393 62.8149 30.3149 62.8149C28.9904 62.8149 27.9167 63.8886 27.9167 65.2131C27.9167 66.5375 28.9904 67.6112 30.3149 67.6112Z" fill="url(#paint16_linear_269_6310)"/>
<path d="M37.3028 60.6231C38.6272 60.6231 39.7009 59.5495 39.7009 58.225C39.7009 56.9006 38.6272 55.8269 37.3028 55.8269C35.9783 55.8269 34.9047 56.9006 34.9047 58.225C34.9047 59.5495 35.9783 60.6231 37.3028 60.6231Z" fill="url(#paint17_linear_269_6310)"/>
<path d="M45.9804 49.5482C46.9216 50.4894 46.9216 52.0108 45.9804 52.952C45.0392 53.8931 43.5178 53.8931 42.5766 52.952C41.6354 52.0108 41.6354 50.4894 42.5766 49.5482C43.5178 48.607 45.0392 48.607 45.9804 49.5482Z" fill="url(#paint18_linear_269_6310)"/>
<path d="M51.2535 46.6729C52.5779 46.6729 53.6516 45.5993 53.6516 44.2748C53.6516 42.9504 52.5779 41.8767 51.2535 41.8767C49.929 41.8767 48.8553 42.9504 48.8553 44.2748C48.8553 45.5993 49.929 46.6729 51.2535 46.6729Z" fill="url(#paint19_linear_269_6310)"/>
<path d="M58.2283 39.6978C59.5528 39.6978 60.6264 38.6242 60.6264 37.2997C60.6264 35.9753 59.5528 34.9016 58.2283 34.9016C56.9039 34.9016 55.8302 35.9753 55.8302 37.2997C55.8302 38.6242 56.9039 39.6978 58.2283 39.6978Z" fill="url(#paint20_linear_269_6310)"/>
<path d="M37.3028 74.5865C38.6272 74.5865 39.7009 73.5128 39.7009 72.1884C39.7009 70.864 38.6272 69.7903 37.3028 69.7903C35.9783 69.7903 34.9047 70.864 34.9047 72.1884C34.9047 73.5128 35.9783 74.5865 37.3028 74.5865Z" fill="url(#paint21_linear_269_6310)"/>
<path d="M45.9804 63.5113C46.9216 64.4525 46.9216 65.9739 45.9804 66.9151C45.0392 67.8563 43.5178 67.8563 42.5766 66.9151C41.6354 65.9739 41.6354 64.4525 42.5766 63.5113C43.5178 62.5701 45.0392 62.5701 45.9804 63.5113Z" fill="url(#paint22_linear_269_6310)"/>
<path d="M51.2535 60.6231C52.5779 60.6231 53.6516 59.5495 53.6516 58.225C53.6516 56.9006 52.5779 55.8269 51.2535 55.8269C49.929 55.8269 48.8553 56.9006 48.8553 58.225C48.8553 59.5495 49.929 60.6231 51.2535 60.6231Z" fill="url(#paint23_linear_269_6310)"/>
<path d="M58.2283 53.648C59.5528 53.648 60.6264 52.5744 60.6264 51.2499C60.6264 49.9255 59.5528 48.8518 58.2283 48.8518C56.9039 48.8518 55.8302 49.9255 55.8302 51.2499C55.8302 52.5744 56.9039 53.648 58.2283 53.648Z" fill="url(#paint24_linear_269_6310)"/>
<path d="M65.2168 46.6729C66.5413 46.6729 67.6149 45.5993 67.6149 44.2748C67.6149 42.9504 66.5413 41.8767 65.2168 41.8767C63.8924 41.8767 62.8187 42.9504 62.8187 44.2748C62.8187 45.5993 63.8924 46.6729 65.2168 46.6729Z" fill="url(#paint25_linear_269_6310)"/>
<path d="M45.9804 77.4615C46.9216 78.4027 46.9216 79.9241 45.9804 80.8653C45.0392 81.8065 43.5178 81.8065 42.5766 80.8653C41.6354 79.9241 41.6354 78.4027 42.5766 77.4615C43.5178 76.5203 45.0392 76.5203 45.9804 77.4615Z" fill="url(#paint26_linear_269_6310)"/>
<path d="M51.2535 74.5865C52.5779 74.5865 53.6516 73.5128 53.6516 72.1884C53.6516 70.864 52.5779 69.7903 51.2535 69.7903C49.929 69.7903 48.8553 70.864 48.8553 72.1884C48.8553 73.5128 49.929 74.5865 51.2535 74.5865Z" fill="url(#paint27_linear_269_6310)"/>
<path d="M58.2283 67.6112C59.5528 67.6112 60.6264 66.5375 60.6264 65.2131C60.6264 63.8886 59.5528 62.8149 58.2283 62.8149C56.9039 62.8149 55.8302 63.8886 55.8302 65.2131C55.8302 66.5375 56.9039 67.6112 58.2283 67.6112Z" fill="url(#paint28_linear_269_6310)"/>
<path d="M65.2168 60.6231C66.5413 60.6231 67.6149 59.5495 67.6149 58.225C67.6149 56.9006 66.5413 55.8269 65.2168 55.8269C63.8924 55.8269 62.8187 56.9006 62.8187 58.225C62.8187 59.5495 63.8924 60.6231 65.2168 60.6231Z" fill="url(#paint29_linear_269_6310)"/>
<path d="M73.8937 49.5482C74.8349 50.4894 74.8349 52.0108 73.8937 52.952C72.9525 53.8931 71.4311 53.8931 70.49 52.952C69.5488 52.0108 69.5488 50.4894 70.49 49.5482C71.4311 48.607 72.9525 48.607 73.8937 49.5482Z" fill="url(#paint30_linear_269_6310)"/>
<path d="M51.2535 88.5367C52.5779 88.5367 53.6516 87.463 53.6516 86.1386C53.6516 84.8142 52.5779 83.7405 51.2535 83.7405C49.929 83.7405 48.8553 84.8142 48.8553 86.1386C48.8553 87.463 49.929 88.5367 51.2535 88.5367Z" fill="url(#paint31_linear_269_6310)"/>
<path d="M58.2283 81.5616C59.5528 81.5616 60.6264 80.4879 60.6264 79.1635C60.6264 77.8391 59.5528 76.7654 58.2283 76.7654C56.9039 76.7654 55.8302 77.8391 55.8302 79.1635C55.8302 80.4879 56.9039 81.5616 58.2283 81.5616Z" fill="url(#paint32_linear_269_6310)"/>
<path d="M65.2168 74.5865C66.5413 74.5865 67.6149 73.5128 67.6149 72.1884C67.6149 70.864 66.5413 69.7903 65.2168 69.7903C63.8924 69.7903 62.8187 70.864 62.8187 72.1884C62.8187 73.5128 63.8924 74.5865 65.2168 74.5865Z" fill="url(#paint33_linear_269_6310)"/>
<path d="M73.8937 63.5113C74.8349 64.4525 74.8349 65.9739 73.8937 66.9151C72.9525 67.8563 71.4311 67.8563 70.49 66.9151C69.5488 65.9739 69.5488 64.4525 70.49 63.5113C71.4311 62.5701 72.9525 62.5701 73.8937 63.5113Z" fill="url(#paint34_linear_269_6310)"/>
<path d="M79.1668 60.6231C80.4912 60.6231 81.5649 59.5495 81.5649 58.225C81.5649 56.9006 80.4912 55.8269 79.1668 55.8269C77.8423 55.8269 76.7687 56.9006 76.7687 58.225C76.7687 59.5495 77.8423 60.6231 79.1668 60.6231Z" fill="url(#paint35_linear_269_6310)"/>
<path d="M58.2283 95.5247C59.5528 95.5247 60.6264 94.4511 60.6264 93.1266C60.6264 91.8022 59.5528 90.7285 58.2283 90.7285C56.9039 90.7285 55.8302 91.8022 55.8302 93.1266C55.8302 94.4511 56.9039 95.5247 58.2283 95.5247Z" fill="url(#paint36_linear_269_6310)"/>
<path d="M65.2168 88.5367C66.5413 88.5367 67.6149 87.463 67.6149 86.1386C67.6149 84.8142 66.5413 83.7405 65.2168 83.7405C63.8924 83.7405 62.8187 84.8142 62.8187 86.1386C62.8187 87.463 63.8924 88.5367 65.2168 88.5367Z" fill="url(#paint37_linear_269_6310)"/>
<path d="M73.8937 77.4615C74.8349 78.4027 74.8349 79.9241 73.8937 80.8653C72.9525 81.8065 71.4311 81.8065 70.49 80.8653C69.5488 79.9241 69.5488 78.4027 70.49 77.4615C71.4311 76.5203 72.9525 76.5203 73.8937 77.4615Z" fill="url(#paint38_linear_269_6310)"/>
<path d="M79.1668 74.5865C80.4912 74.5865 81.5649 73.5128 81.5649 72.1884C81.5649 70.864 80.4912 69.7903 79.1668 69.7903C77.8423 69.7903 76.7687 70.864 76.7687 72.1884C76.7687 73.5128 77.8423 74.5865 79.1668 74.5865Z" fill="url(#paint39_linear_269_6310)"/>
<path d="M86.1423 67.6112C87.4667 67.6112 88.5404 66.5375 88.5404 65.2131C88.5404 63.8886 87.4667 62.8149 86.1423 62.8149C84.8178 62.8149 83.7441 63.8886 83.7441 65.2131C83.7441 66.5375 84.8178 67.6112 86.1423 67.6112Z" fill="url(#paint40_linear_269_6310)"/>
<path d="M45.98 7.68417C46.9212 8.62536 46.9212 10.1467 45.98 11.0879C45.0388 12.0291 43.5175 12.0291 42.5763 11.0879C41.6351 10.1467 41.6351 8.62536 42.5763 7.68417C43.5175 6.74297 45.0388 6.74297 45.98 7.68417Z" fill="url(#paint41_linear_269_6310)"/>
<path d="M51.2533 4.79622C52.5778 4.79622 53.6514 3.72255 53.6514 2.39811C53.6514 1.07367 52.5778 0 51.2533 0C49.9289 0 48.8552 1.07367 48.8552 2.39811C48.8552 3.72255 49.9289 4.79622 51.2533 4.79622Z" fill="url(#paint42_linear_269_6310)"/>
<path d="M51.2533 18.7594C52.5778 18.7594 53.6514 17.6857 53.6514 16.3612C53.6514 15.0368 52.5778 13.9631 51.2533 13.9631C49.9289 13.9631 48.8552 15.0368 48.8552 16.3612C48.8552 17.6857 49.9289 18.7594 51.2533 18.7594Z" fill="url(#paint43_linear_269_6310)"/>
<path d="M58.2279 11.7843C59.5524 11.7843 60.6261 10.7106 60.6261 9.38615C60.6261 8.06171 59.5524 6.98804 58.2279 6.98804C56.9035 6.98804 55.8298 8.06171 55.8298 9.38615C55.8298 10.7106 56.9035 11.7843 58.2279 11.7843Z" fill="url(#paint44_linear_269_6310)"/>
<path d="M58.2279 25.7345C59.5524 25.7345 60.6261 24.6608 60.6261 23.3363C60.6261 22.0119 59.5524 20.9382 58.2279 20.9382C56.9035 20.9382 55.8298 22.0119 55.8298 23.3363C55.8298 24.6608 56.9035 25.7345 58.2279 25.7345Z" fill="url(#paint45_linear_269_6310)"/>
<path d="M65.2167 18.7594C66.5412 18.7594 67.6148 17.6857 67.6148 16.3612C67.6148 15.0368 66.5412 13.9631 65.2167 13.9631C63.8923 13.9631 62.8186 15.0368 62.8186 16.3612C62.8186 17.6857 63.8923 18.7594 65.2167 18.7594Z" fill="url(#paint46_linear_269_6310)"/>
<path d="M65.2167 32.7098C66.5412 32.7098 67.6148 31.6361 67.6148 30.3117C67.6148 28.9872 66.5412 27.9136 65.2167 27.9136C63.8923 27.9136 62.8186 28.9872 62.8186 30.3117C62.8186 31.6361 63.8923 32.7098 65.2167 32.7098Z" fill="url(#paint47_linear_269_6310)"/>
<path d="M73.8935 21.6346C74.8347 22.5758 74.8347 24.0972 73.8935 25.0384C72.9523 25.9796 71.4309 25.9796 70.4897 25.0384C69.5485 24.0972 69.5485 22.5758 70.4897 21.6346C71.4309 20.6934 72.9523 20.6934 73.8935 21.6346Z" fill="url(#paint48_linear_269_6310)"/>
<path d="M73.8935 35.5977C74.8347 36.5389 74.8347 38.0603 73.8935 39.0015C72.9523 39.9427 71.4309 39.9427 70.4897 39.0015C69.5485 38.0603 69.5485 36.5389 70.4897 35.5977C71.4309 34.6565 72.9523 34.6565 73.8935 35.5977Z" fill="url(#paint49_linear_269_6310)"/>
<path d="M79.167 32.7098C80.4915 32.7098 81.5651 31.6361 81.5651 30.3117C81.5651 28.9872 80.4915 27.9136 79.167 27.9136C77.8426 27.9136 76.7689 28.9872 76.7689 30.3117C76.7689 31.6361 77.8426 32.7098 79.167 32.7098Z" fill="url(#paint50_linear_269_6310)"/>
<path d="M79.167 46.6729C80.4915 46.6729 81.5651 45.5993 81.5651 44.2748C81.5651 42.9504 80.4915 41.8767 79.167 41.8767C77.8426 41.8767 76.7689 42.9504 76.7689 44.2748C76.7689 45.5993 77.8426 46.6729 79.167 46.6729Z" fill="url(#paint51_linear_269_6310)"/>
<path d="M86.1421 39.6978C87.4666 39.6978 88.5402 38.6242 88.5402 37.2997C88.5402 35.9753 87.4666 34.9016 86.1421 34.9016C84.8177 34.9016 83.744 35.9753 83.744 37.2997C83.744 38.6242 84.8177 39.6978 86.1421 39.6978Z" fill="url(#paint52_linear_269_6310)"/>
<path d="M86.1421 53.648C87.4666 53.648 88.5402 52.5744 88.5402 51.2499C88.5402 49.9255 87.4666 48.8518 86.1421 48.8518C84.8177 48.8518 83.744 49.9255 83.744 51.2499C83.744 52.5744 84.8177 53.648 86.1421 53.648Z" fill="url(#paint53_linear_269_6310)"/>
<path d="M93.1303 46.6729C94.4547 46.6729 95.5284 45.5993 95.5284 44.2748C95.5284 42.9504 94.4547 41.8767 93.1303 41.8767C91.8058 41.8767 90.7322 42.9504 90.7322 44.2748C90.7322 45.5993 91.8058 46.6729 93.1303 46.6729Z" fill="url(#paint54_linear_269_6310)"/>
<path d="M93.1303 60.6231C94.4547 60.6231 95.5284 59.5495 95.5284 58.225C95.5284 56.9006 94.4547 55.8269 93.1303 55.8269C91.8058 55.8269 90.7322 56.9006 90.7322 58.225C90.7322 59.5495 91.8058 60.6231 93.1303 60.6231Z" fill="url(#paint55_linear_269_6310)"/>
<path d="M101.807 49.5479C102.748 50.4891 102.748 52.0105 101.807 52.9517C100.866 53.8929 99.3446 53.8929 98.4034 52.9517C97.4622 52.0105 97.4622 50.4891 98.4034 49.5479C99.3446 48.6067 100.866 48.6067 101.807 49.5479Z" fill="url(#paint56_linear_269_6310)"/>
<path d="M9.38944 60.6231C10.7139 60.6231 11.7876 59.5495 11.7876 58.225C11.7876 56.9006 10.7139 55.8269 9.38944 55.8269C8.065 55.8269 6.99133 56.9006 6.99133 58.225C6.99133 59.5495 8.065 60.6231 9.38944 60.6231Z" fill="url(#paint57_linear_269_6310)"/>
<path d="M18.0662 66.9021C17.125 67.8433 15.6036 67.8433 14.6624 66.9021C13.7212 65.961 13.7212 64.4396 14.6624 63.4984C15.6036 62.5572 17.125 62.5572 18.0662 63.4984C19.0074 64.4396 19.0074 65.961 18.0662 66.9021Z" fill="url(#paint58_linear_269_6310)"/>
<path d="M23.3403 74.5865C24.6647 74.5865 25.7384 73.5128 25.7384 72.1884C25.7384 70.864 24.6647 69.7903 23.3403 69.7903C22.0158 69.7903 20.9421 70.864 20.9421 72.1884C20.9421 73.5128 22.0158 74.5865 23.3403 74.5865Z" fill="url(#paint59_linear_269_6310)"/>
<path d="M30.3149 81.5616C31.6393 81.5616 32.713 80.4879 32.713 79.1635C32.713 77.8391 31.6393 76.7654 30.3149 76.7654C28.9904 76.7654 27.9167 77.8391 27.9167 79.1635C27.9167 80.4879 28.9904 81.5616 30.3149 81.5616Z" fill="url(#paint60_linear_269_6310)"/>
<path d="M37.3028 88.5367C38.6272 88.5367 39.7009 87.463 39.7009 86.1386C39.7009 84.8142 38.6272 83.7405 37.3028 83.7405C35.9783 83.7405 34.9047 84.8142 34.9047 86.1386C34.9047 87.463 35.9783 88.5367 37.3028 88.5367Z" fill="url(#paint61_linear_269_6310)"/>
<path d="M45.9804 94.8157C45.0392 95.7569 43.5178 95.7569 42.5766 94.8157C41.6354 93.8745 41.6354 92.3531 42.5766 91.412C43.5178 90.4708 45.0392 90.4708 45.9804 91.412C46.9216 92.3531 46.9216 93.8745 45.9804 94.8157Z" fill="url(#paint62_linear_269_6310)"/>
<path d="M51.2535 102.5C52.5779 102.5 53.6516 101.426 53.6516 100.102C53.6516 98.7773 52.5779 97.7036 51.2535 97.7036C49.929 97.7036 48.8553 98.7773 48.8553 100.102C48.8553 101.426 49.929 102.5 51.2535 102.5Z" fill="url(#paint63_linear_269_6310)"/>
</g>
<defs>
<linearGradient id="paint0_linear_269_6310" x1="2.42238" y1="50.0216" x2="2.25862" y2="53.6416" gradientUnits="userSpaceOnUse">
<stop stop-color="#F16529"/>
<stop offset="1" stop-color="#E44D26"/>
</linearGradient>
<linearGradient id="paint1_linear_269_6310" x1="9.4103" y1="43.0465" x2="9.24653" y2="46.6665" gradientUnits="userSpaceOnUse">
<stop stop-color="#F16529"/>
<stop offset="1" stop-color="#E44D26"/>
</linearGradient>
<linearGradient id="paint2_linear_269_6310" x1="16.3853" y1="36.0664" x2="16.2208" y2="39.7009" gradientUnits="userSpaceOnUse">
<stop stop-color="#F16529"/>
<stop offset="1" stop-color="#E44D26"/>
</linearGradient>
<linearGradient id="paint3_linear_269_6310" x1="23.3611" y1="29.0834" x2="23.1973" y2="32.7033" gradientUnits="userSpaceOnUse">
<stop stop-color="#F16529"/>
<stop offset="1" stop-color="#E44D26"/>
</linearGradient>
<linearGradient id="paint4_linear_269_6310" x1="30.3357" y1="22.108" x2="30.1719" y2="25.728" gradientUnits="userSpaceOnUse">
<stop stop-color="#F16529"/>
<stop offset="1" stop-color="#E44D26"/>
</linearGradient>
<linearGradient id="paint5_linear_269_6310" x1="37.3236" y1="15.1329" x2="37.1599" y2="18.7529" gradientUnits="userSpaceOnUse">
<stop stop-color="#F16529"/>
<stop offset="1" stop-color="#E44D26"/>
</linearGradient>
<linearGradient id="paint6_linear_269_6310" x1="16.3853" y1="50.0168" x2="16.2208" y2="53.6514" gradientUnits="userSpaceOnUse">
<stop stop-color="#F16529"/>
<stop offset="1" stop-color="#E44D26"/>
</linearGradient>
<linearGradient id="paint7_linear_269_6310" x1="23.3611" y1="43.0465" x2="23.1973" y2="46.6665" gradientUnits="userSpaceOnUse">
<stop stop-color="#F16529"/>
<stop offset="1" stop-color="#E44D26"/>
</linearGradient>
<linearGradient id="paint8_linear_269_6310" x1="30.3357" y1="36.0714" x2="30.1719" y2="39.6914" gradientUnits="userSpaceOnUse">
<stop stop-color="#F16529"/>
<stop offset="1" stop-color="#E44D26"/>
</linearGradient>
<linearGradient id="paint9_linear_269_6310" x1="37.3236" y1="29.0834" x2="37.1599" y2="32.7033" gradientUnits="userSpaceOnUse">
<stop stop-color="#F16529"/>
<stop offset="1" stop-color="#E44D26"/>
</linearGradient>
<linearGradient id="paint10_linear_269_6310" x1="44.2994" y1="22.1032" x2="44.135" y2="25.7378" gradientUnits="userSpaceOnUse">
<stop stop-color="#F16529"/>
<stop offset="1" stop-color="#E44D26"/>
</linearGradient>
<linearGradient id="paint11_linear_269_6310" x1="23.3611" y1="56.9967" x2="23.1973" y2="60.6167" gradientUnits="userSpaceOnUse">
<stop stop-color="#F16529"/>
<stop offset="1" stop-color="#E44D26"/>
</linearGradient>
<linearGradient id="paint12_linear_269_6310" x1="30.3357" y1="50.0216" x2="30.1719" y2="53.6416" gradientUnits="userSpaceOnUse">
<stop stop-color="#F16529"/>
<stop offset="1" stop-color="#E44D26"/>
</linearGradient>
<linearGradient id="paint13_linear_269_6310" x1="37.3236" y1="43.0465" x2="37.1599" y2="46.6665" gradientUnits="userSpaceOnUse">
<stop stop-color="#F16529"/>
<stop offset="1" stop-color="#E44D26"/>
</linearGradient>
<linearGradient id="paint14_linear_269_6310" x1="44.2994" y1="36.0664" x2="44.135" y2="39.7009" gradientUnits="userSpaceOnUse">
<stop stop-color="#F16529"/>
<stop offset="1" stop-color="#E44D26"/>
</linearGradient>
<linearGradient id="paint15_linear_269_6310" x1="51.2743" y1="29.0834" x2="51.1105" y2="32.7033" gradientUnits="userSpaceOnUse">
<stop stop-color="#F16529"/>
<stop offset="1" stop-color="#E44D26"/>
</linearGradient>
<linearGradient id="paint16_linear_269_6310" x1="30.3357" y1="63.9848" x2="30.1719" y2="67.6047" gradientUnits="userSpaceOnUse">
<stop stop-color="#F16529"/>
<stop offset="1" stop-color="#E44D26"/>
</linearGradient>
<linearGradient id="paint17_linear_269_6310" x1="37.3236" y1="56.9967" x2="37.1599" y2="60.6167" gradientUnits="userSpaceOnUse">
<stop stop-color="#F16529"/>
<stop offset="1" stop-color="#E44D26"/>
</linearGradient>
<linearGradient id="paint18_linear_269_6310" x1="44.2994" y1="50.0168" x2="44.135" y2="53.6514" gradientUnits="userSpaceOnUse">
<stop stop-color="#F16529"/>
<stop offset="1" stop-color="#E44D26"/>
</linearGradient>
<linearGradient id="paint19_linear_269_6310" x1="51.2743" y1="43.0465" x2="51.1105" y2="46.6665" gradientUnits="userSpaceOnUse">
<stop stop-color="#F16529"/>
<stop offset="1" stop-color="#E44D26"/>
</linearGradient>
<linearGradient id="paint20_linear_269_6310" x1="58.2492" y1="36.0714" x2="58.0854" y2="39.6914" gradientUnits="userSpaceOnUse">
<stop stop-color="#F16529"/>
<stop offset="1" stop-color="#E44D26"/>
</linearGradient>
<linearGradient id="paint21_linear_269_6310" x1="37.3236" y1="70.9601" x2="37.1599" y2="74.58" gradientUnits="userSpaceOnUse">
<stop stop-color="#F16529"/>
<stop offset="1" stop-color="#E44D26"/>
</linearGradient>
<linearGradient id="paint22_linear_269_6310" x1="44.2994" y1="63.9799" x2="44.135" y2="67.6145" gradientUnits="userSpaceOnUse">
<stop stop-color="#F16529"/>
<stop offset="1" stop-color="#E44D26"/>
</linearGradient>
<linearGradient id="paint23_linear_269_6310" x1="51.2743" y1="56.9967" x2="51.1105" y2="60.6167" gradientUnits="userSpaceOnUse">
<stop stop-color="#F16529"/>
<stop offset="1" stop-color="#E44D26"/>
</linearGradient>
<linearGradient id="paint24_linear_269_6310" x1="58.2492" y1="50.0216" x2="58.0854" y2="53.6416" gradientUnits="userSpaceOnUse">
<stop stop-color="#F16529"/>
<stop offset="1" stop-color="#E44D26"/>
</linearGradient>
<linearGradient id="paint25_linear_269_6310" x1="65.2377" y1="43.0465" x2="65.0739" y2="46.6665" gradientUnits="userSpaceOnUse">
<stop stop-color="#F16529"/>
<stop offset="1" stop-color="#E44D26"/>
</linearGradient>
<linearGradient id="paint26_linear_269_6310" x1="44.2994" y1="77.9301" x2="44.135" y2="81.5647" gradientUnits="userSpaceOnUse">
<stop stop-color="#F16529"/>
<stop offset="1" stop-color="#E44D26"/>
</linearGradient>
<linearGradient id="paint27_linear_269_6310" x1="51.2743" y1="70.9601" x2="51.1105" y2="74.58" gradientUnits="userSpaceOnUse">
<stop stop-color="#F16529"/>
<stop offset="1" stop-color="#E44D26"/>
</linearGradient>
<linearGradient id="paint28_linear_269_6310" x1="58.2492" y1="63.9848" x2="58.0854" y2="67.6047" gradientUnits="userSpaceOnUse">
<stop stop-color="#F16529"/>
<stop offset="1" stop-color="#E44D26"/>
</linearGradient>
<linearGradient id="paint29_linear_269_6310" x1="65.2377" y1="56.9967" x2="65.0739" y2="60.6167" gradientUnits="userSpaceOnUse">
<stop stop-color="#F16529"/>
<stop offset="1" stop-color="#E44D26"/>
</linearGradient>
<linearGradient id="paint30_linear_269_6310" x1="72.2128" y1="50.0168" x2="72.0484" y2="53.6514" gradientUnits="userSpaceOnUse">
<stop stop-color="#F16529"/>
<stop offset="1" stop-color="#E44D26"/>
</linearGradient>
<linearGradient id="paint31_linear_269_6310" x1="51.2743" y1="84.9103" x2="51.1105" y2="88.5302" gradientUnits="userSpaceOnUse">
<stop stop-color="#F16529"/>
<stop offset="1" stop-color="#E44D26"/>
</linearGradient>
<linearGradient id="paint32_linear_269_6310" x1="58.2492" y1="77.9352" x2="58.0854" y2="81.5551" gradientUnits="userSpaceOnUse">
<stop stop-color="#F16529"/>
<stop offset="1" stop-color="#E44D26"/>
</linearGradient>
<linearGradient id="paint33_linear_269_6310" x1="65.2377" y1="70.9601" x2="65.0739" y2="74.58" gradientUnits="userSpaceOnUse">
<stop stop-color="#F16529"/>
<stop offset="1" stop-color="#E44D26"/>
</linearGradient>
<linearGradient id="paint34_linear_269_6310" x1="72.2128" y1="63.9799" x2="72.0484" y2="67.6145" gradientUnits="userSpaceOnUse">
<stop stop-color="#F16529"/>
<stop offset="1" stop-color="#E44D26"/>
</linearGradient>
<linearGradient id="paint35_linear_269_6310" x1="79.1876" y1="56.9967" x2="79.0239" y2="60.6167" gradientUnits="userSpaceOnUse">
<stop stop-color="#F16529"/>
<stop offset="1" stop-color="#E44D26"/>
</linearGradient>
<linearGradient id="paint36_linear_269_6310" x1="58.2492" y1="91.8983" x2="58.0854" y2="95.5183" gradientUnits="userSpaceOnUse">
<stop stop-color="#F16529"/>
<stop offset="1" stop-color="#E44D26"/>
</linearGradient>
<linearGradient id="paint37_linear_269_6310" x1="65.2377" y1="84.9103" x2="65.0739" y2="88.5302" gradientUnits="userSpaceOnUse">
<stop stop-color="#F16529"/>
<stop offset="1" stop-color="#E44D26"/>
</linearGradient>
<linearGradient id="paint38_linear_269_6310" x1="72.2128" y1="77.9301" x2="72.0484" y2="81.5647" gradientUnits="userSpaceOnUse">
<stop stop-color="#F16529"/>
<stop offset="1" stop-color="#E44D26"/>
</linearGradient>
<linearGradient id="paint39_linear_269_6310" x1="79.1876" y1="70.9601" x2="79.0239" y2="74.58" gradientUnits="userSpaceOnUse">
<stop stop-color="#F16529"/>
<stop offset="1" stop-color="#E44D26"/>
</linearGradient>
<linearGradient id="paint40_linear_269_6310" x1="86.1631" y1="63.9848" x2="85.9993" y2="67.6047" gradientUnits="userSpaceOnUse">
<stop stop-color="#F16529"/>
<stop offset="1" stop-color="#E44D26"/>
</linearGradient>
<linearGradient id="paint41_linear_269_6310" x1="44.2991" y1="8.1528" x2="44.1347" y2="11.7873" gradientUnits="userSpaceOnUse">
<stop stop-color="#F16529"/>
<stop offset="1" stop-color="#E44D26"/>
</linearGradient>
<linearGradient id="paint42_linear_269_6310" x1="51.2742" y1="1.16981" x2="51.1104" y2="4.78976" gradientUnits="userSpaceOnUse">
<stop stop-color="#F16529"/>
<stop offset="1" stop-color="#E44D26"/>
</linearGradient>
<linearGradient id="paint43_linear_269_6310" x1="51.2742" y1="15.1329" x2="51.1104" y2="18.7529" gradientUnits="userSpaceOnUse">
<stop stop-color="#F16529"/>
<stop offset="1" stop-color="#E44D26"/>
</linearGradient>
<linearGradient id="paint44_linear_269_6310" x1="58.2488" y1="8.15785" x2="58.085" y2="11.7778" gradientUnits="userSpaceOnUse">
<stop stop-color="#F16529"/>
<stop offset="1" stop-color="#E44D26"/>
</linearGradient>
<linearGradient id="paint45_linear_269_6310" x1="58.2488" y1="22.108" x2="58.085" y2="25.728" gradientUnits="userSpaceOnUse">
<stop stop-color="#F16529"/>
<stop offset="1" stop-color="#E44D26"/>
</linearGradient>
<linearGradient id="paint46_linear_269_6310" x1="65.2376" y1="15.1329" x2="65.0738" y2="18.7529" gradientUnits="userSpaceOnUse">
<stop stop-color="#F16529"/>
<stop offset="1" stop-color="#E44D26"/>
</linearGradient>
<linearGradient id="paint47_linear_269_6310" x1="65.2376" y1="29.0834" x2="65.0738" y2="32.7033" gradientUnits="userSpaceOnUse">
<stop stop-color="#F16529"/>
<stop offset="1" stop-color="#E44D26"/>
</linearGradient>
<linearGradient id="paint48_linear_269_6310" x1="72.2125" y1="22.1032" x2="72.0481" y2="25.7378" gradientUnits="userSpaceOnUse">
<stop stop-color="#F16529"/>
<stop offset="1" stop-color="#E44D26"/>
</linearGradient>
<linearGradient id="paint49_linear_269_6310" x1="72.2125" y1="36.0664" x2="72.0481" y2="39.7009" gradientUnits="userSpaceOnUse">
<stop stop-color="#F16529"/>
<stop offset="1" stop-color="#E44D26"/>
</linearGradient>
<linearGradient id="paint50_linear_269_6310" x1="79.1879" y1="29.0834" x2="79.0241" y2="32.7033" gradientUnits="userSpaceOnUse">
<stop stop-color="#F16529"/>
<stop offset="1" stop-color="#E44D26"/>
</linearGradient>
<linearGradient id="paint51_linear_269_6310" x1="79.1879" y1="43.0465" x2="79.0241" y2="46.6665" gradientUnits="userSpaceOnUse">
<stop stop-color="#F16529"/>
<stop offset="1" stop-color="#E44D26"/>
</linearGradient>
<linearGradient id="paint52_linear_269_6310" x1="86.163" y1="36.0714" x2="85.9992" y2="39.6914" gradientUnits="userSpaceOnUse">
<stop stop-color="#F16529"/>
<stop offset="1" stop-color="#E44D26"/>
</linearGradient>
<linearGradient id="paint53_linear_269_6310" x1="86.163" y1="50.0216" x2="85.9992" y2="53.6416" gradientUnits="userSpaceOnUse">
<stop stop-color="#F16529"/>
<stop offset="1" stop-color="#E44D26"/>
</linearGradient>
<linearGradient id="paint54_linear_269_6310" x1="93.1511" y1="43.0465" x2="92.9874" y2="46.6665" gradientUnits="userSpaceOnUse">
<stop stop-color="#F16529"/>
<stop offset="1" stop-color="#E44D26"/>
</linearGradient>
<linearGradient id="paint55_linear_269_6310" x1="93.1511" y1="56.9967" x2="92.9874" y2="60.6167" gradientUnits="userSpaceOnUse">
<stop stop-color="#F16529"/>
<stop offset="1" stop-color="#E44D26"/>
</linearGradient>
<linearGradient id="paint56_linear_269_6310" x1="100.126" y1="50.0166" x2="99.9618" y2="53.6511" gradientUnits="userSpaceOnUse">
<stop stop-color="#F16529"/>
<stop offset="1" stop-color="#E44D26"/>
</linearGradient>
<linearGradient id="paint57_linear_269_6310" x1="9.4103" y1="56.9967" x2="9.24653" y2="60.6167" gradientUnits="userSpaceOnUse">
<stop stop-color="#F16529"/>
<stop offset="1" stop-color="#E44D26"/>
</linearGradient>
<linearGradient id="paint58_linear_269_6310" x1="16.3853" y1="63.967" x2="16.2208" y2="67.6016" gradientUnits="userSpaceOnUse">
<stop stop-color="#F16529"/>
<stop offset="1" stop-color="#E44D26"/>
</linearGradient>
<linearGradient id="paint59_linear_269_6310" x1="23.3611" y1="70.9601" x2="23.1973" y2="74.58" gradientUnits="userSpaceOnUse">
<stop stop-color="#F16529"/>
<stop offset="1" stop-color="#E44D26"/>
</linearGradient>
<linearGradient id="paint60_linear_269_6310" x1="30.3357" y1="77.9352" x2="30.1719" y2="81.5551" gradientUnits="userSpaceOnUse">
<stop stop-color="#F16529"/>
<stop offset="1" stop-color="#E44D26"/>
</linearGradient>
<linearGradient id="paint61_linear_269_6310" x1="37.3236" y1="84.9103" x2="37.1599" y2="88.5302" gradientUnits="userSpaceOnUse">
<stop stop-color="#F16529"/>
<stop offset="1" stop-color="#E44D26"/>
</linearGradient>
<linearGradient id="paint62_linear_269_6310" x1="44.2994" y1="91.8806" x2="44.135" y2="95.5151" gradientUnits="userSpaceOnUse">
<stop stop-color="#F16529"/>
<stop offset="1" stop-color="#E44D26"/>
</linearGradient>
<linearGradient id="paint63_linear_269_6310" x1="51.2743" y1="98.8734" x2="51.1105" y2="102.493" gradientUnits="userSpaceOnUse">
<stop stop-color="#F16529"/>
<stop offset="1" stop-color="#E44D26"/>
</linearGradient>
</defs>
</svg>
