<svg width="162" height="159" viewBox="0 0 162 159" fill="none" xmlns="http://www.w3.org/2000/svg">
<g opacity="0.5">
<path d="M99.7314 115.141C97.6991 114.45 95.7286 113.664 93.7567 112.741C93.9992 112.853 94.2101 112.946 94.4526 113.058C90.6246 111.243 86.9698 108.953 83.7609 106.187C83.9622 106.363 84.1318 106.519 84.333 106.695C81.7279 104.457 79.4132 101.911 77.5047 99.089C77.633 99.3079 77.7818 99.4952 77.9101 99.7142C76.9931 98.3497 76.149 96.9426 75.4509 95.4499C75.0757 94.709 74.7418 93.9048 74.4395 93.1212C74.3098 92.7659 74.18 92.4106 74.0503 92.0553C74.3857 92.9959 74.1152 92.233 74.0392 92.003C73.9633 91.773 73.8874 91.5429 73.8432 91.3336C73.3434 89.7443 73.0211 88.0902 72.783 86.4457C72.7263 86.0476 72.6901 85.6179 72.6334 85.2198C72.6098 84.9788 72.5486 84.1716 72.6223 85.1674C72.6304 84.947 72.5862 84.7377 72.5626 84.4967C72.511 83.6055 72.5117 82.7032 72.5124 81.801C72.5677 80.1218 72.7181 78.5044 73.0254 76.8539C72.9967 77.106 72.9362 77.3374 72.9075 77.5895C73.1257 76.4226 73.3438 75.2558 73.5303 74.0683C73.6578 73.2486 73.7964 72.4812 73.6305 71.6962C73.3179 69.958 71.4508 69.0129 69.8725 69.5651C69.0573 69.8467 68.4351 70.525 67.8115 71.0668C66.7198 71.9808 65.5647 72.8535 64.3669 73.6534C64.5858 73.5251 64.773 73.3763 64.9919 73.248C61.7316 75.413 58.2162 77.2766 54.5585 78.5961C54.4538 78.6182 54.3808 78.661 54.2762 78.6831C55.0391 78.4126 54.7045 78.5106 54.5585 78.5961C54.3285 78.672 54.1509 78.7369 53.9209 78.8128C53.5133 78.9536 53.0739 79.0738 52.6869 79.1829C51.9335 79.3694 51.1802 79.5559 50.3841 79.6695C50.0178 79.7469 49.6403 79.7719 49.2423 79.8287C49.0536 79.8412 48.8649 79.8537 48.6762 79.8663C48.4875 79.8788 48.1623 79.8929 49.0218 79.8207C48.8854 79.8221 48.7808 79.8441 48.6445 79.8456C47.8896 79.8957 47.103 79.9254 46.3261 79.8708C44.4898 79.8488 42.6618 79.6062 40.8226 79.3113C41.0747 79.3401 41.3062 79.4006 41.5583 79.4294C34.6202 78.1616 28.0752 75.3892 21.614 72.6265C19.8957 71.8688 18.1568 71.1427 16.4178 70.4167C15.817 70.1609 14.8323 70.2869 14.2897 70.5656C13.7265 70.8759 13.3012 71.3213 13.0137 71.9014C12.4085 73.1774 12.8339 74.673 14.0177 75.489C16.5867 77.2972 19.1557 79.1054 21.7564 80.9342C24.2303 82.6804 26.7978 84.3522 29.1066 86.352C28.9054 86.1759 28.7358 86.0204 28.5345 85.8442C30.5153 87.5853 32.3928 89.4848 34.1451 91.4382C35.0053 92.4046 35.8449 93.4026 36.6846 94.4007C37.3546 95.2433 38.077 96.0748 38.7058 96.9808C38.5776 96.7619 38.4287 96.5745 38.3004 96.3556C39.0258 97.4598 39.6051 98.6497 40.0592 99.8932C40.1241 100.071 40.189 100.248 40.2856 100.447C40.4264 100.854 40.0468 99.7044 40.2635 100.342C40.4043 100.75 40.5134 101.137 40.6542 101.544C40.8931 102.287 41.0795 103.04 41.2661 103.793C41.6295 105.384 41.92 107.018 42.1581 108.662C42.2149 109.06 42.2399 109.438 42.2967 109.836C42.3092 110.024 42.3217 110.213 42.366 110.423C42.3881 110.527 42.4103 110.632 42.38 110.748C42.3786 110.611 42.3092 110.025 42.377 110.475C42.4271 111.23 42.4567 112.016 42.5068 112.771C42.523 114.271 42.487 115.782 42.1988 117.265C42.2275 117.013 42.2879 116.781 42.3167 116.529C42.2864 116.645 42.2562 116.76 42.2577 116.897C42.1081 117.612 42.0742 118.357 42.4067 119.025C42.717 119.588 43.1622 120.013 43.7424 120.301C45.0184 120.906 46.5457 120.501 47.33 119.297C47.6809 118.758 48.0635 118.24 48.4571 117.774C48.2809 117.975 48.1254 118.145 47.9492 118.346C48.7888 117.403 49.7552 116.543 50.8071 115.829C50.5882 115.957 50.4009 116.106 50.182 116.234C50.8277 115.797 51.4846 115.412 52.1841 115.1C52.5284 114.918 52.8836 114.788 53.2278 114.606C53.4055 114.542 53.6038 114.445 53.7815 114.38C53.8545 114.337 53.9592 114.315 54.0321 114.272C54.0845 114.261 54.1368 114.25 54.1574 114.219C54.4921 114.121 53.6975 114.37 53.7498 114.359C55.3391 113.86 56.9505 113.464 58.6157 113.195C59.0454 113.158 59.4641 113.07 59.8938 113.034C60.0825 113.021 60.3236 112.998 60.5123 112.985C60.9944 112.938 60.0302 113.032 60.2189 113.02C60.3552 113.018 60.46 112.996 60.5963 112.995C61.5082 112.912 62.4105 112.912 63.3334 112.881C65.2426 112.861 67.1532 112.976 69.0543 113.176C71.2598 113.393 73.4875 113.716 75.6738 114.101C75.4217 114.072 75.1903 114.012 74.9382 113.983C81.3609 115.141 87.696 116.919 93.9087 119.023C95.3513 119.511 96.7415 120.01 98.1635 120.53C99.5538 121.029 101.327 120.107 101.711 118.687C101.988 117.152 101.237 115.671 99.7314 115.141C96.4135 113.929 93.0542 112.78 89.6442 111.778C85.6761 110.593 81.6048 109.568 77.5255 108.762C73.2257 107.948 68.8544 107.314 64.4684 107.256C60.5439 107.183 56.4557 107.5 52.7236 108.726C50.936 109.323 49.1706 110.024 47.5872 111.069C45.8372 112.231 44.3615 113.527 43.0472 115.199C42.7884 115.527 42.5614 115.876 42.355 116.193C44.0527 116.982 45.7297 117.803 47.4274 118.593C48.1055 115.333 47.986 112.051 47.6461 108.76C47.3063 105.469 46.6619 102.161 45.5893 99.0255C45.0688 97.468 44.5071 95.9737 43.6837 94.5348C42.7003 92.8564 41.425 91.349 40.1814 89.8622C37.1525 86.265 33.9157 82.8483 30.1709 80.0037C28.0553 78.4004 25.8254 76.9034 23.6478 75.3952C21.4069 73.8458 19.2183 72.2852 16.9774 70.7358C16.1879 72.4335 15.3667 74.1105 14.5773 75.8082C21.6281 78.7743 28.5883 82.0876 35.9951 84.0217C39.7509 84.9778 43.6718 85.6802 47.5727 85.5121C49.5549 85.4487 51.5245 85.1966 53.4499 84.7351C55.626 84.166 57.7784 83.3558 59.8247 82.4313C62.101 81.431 64.3124 80.2531 66.4066 78.9085C67.6155 78.161 68.7817 77.3405 69.9368 76.4677C70.8523 75.7549 71.7044 75.0007 72.5882 74.2673C72.3693 74.3955 72.182 74.5445 71.9631 74.6728C71.4921 74.7723 71.0735 74.8607 70.6024 74.9602C70.3503 74.9314 70.1188 74.8711 69.8667 74.8423C69.6242 74.7296 69.4134 74.6374 69.1709 74.5246C68.9696 74.3484 68.8 74.1929 68.5988 74.0168C68.4705 73.7978 68.3217 73.6105 68.1934 73.3916C68.032 73.0156 67.8484 72.5351 67.9074 72.1673C67.8978 72.2513 67.9088 72.3036 67.8992 72.3877C67.8911 72.6081 67.8513 72.8078 67.8432 73.0282C67.7762 73.6165 67.6568 74.2158 67.5374 74.8151C67.5661 74.563 67.6265 74.3315 67.6552 74.0794C67.3479 75.7299 67.0199 77.412 66.86 79.1133C66.6713 81.0668 66.6714 83.0077 66.8078 84.9471C67.1359 89.0876 68.092 93.0955 69.7904 96.8645C72.9846 104.09 78.6725 110.05 85.2133 114.354C89.1438 116.914 93.4569 118.955 97.8798 120.481C99.2907 120.948 101.055 120.111 101.427 118.638C101.967 117.184 101.258 115.639 99.7314 115.141Z" fill="#231F20"/>
<path d="M125.449 99.1006C126.057 97.1609 126.822 95.2663 127.729 93.458C127.848 93.234 127.952 93.0047 128.079 92.7998C128.136 92.6947 128.192 92.5896 128.249 92.4844C128.327 92.3241 128.106 92.7307 128.244 92.4982C128.284 92.4346 128.316 92.3517 128.357 92.288C128.608 91.8453 128.872 91.408 129.137 90.9706C129.68 90.1012 130.278 89.2533 130.907 88.4489C131.211 88.0744 131.515 87.6998 131.832 87.3306C131.995 87.1556 132.145 86.9753 132.322 86.8056C132.351 86.7695 132.433 86.7219 132.455 86.6666C132.401 86.8047 132.302 86.814 132.395 86.7388C132.493 86.6497 132.577 86.5553 132.675 86.4662C133.29 85.8628 133.963 85.3137 134.661 84.822C134.817 84.7076 134.986 84.5985 135.155 84.4894C135.243 84.4279 135.344 84.3718 135.431 84.3103C135.469 84.2934 135.513 84.2627 135.538 84.2404C135.303 84.4355 135.456 84.2881 135.518 84.2489C135.89 84.0276 136.289 83.8169 136.683 83.6201C137.071 83.4371 137.454 83.2679 137.865 83.1094C138.051 83.0386 138.251 82.9731 138.451 82.9077C138.542 82.8792 138.632 82.8507 138.722 82.8222C138.865 82.7821 138.451 82.9077 138.67 82.8338C138.742 82.8137 138.794 82.8021 138.865 82.7821C139.326 82.6588 139.795 82.5546 140.267 82.4834C140.739 82.4122 141.203 82.4016 141.684 82.3495C141.665 82.358 141.412 82.3553 141.585 82.3588C141.651 82.3526 141.712 82.3602 141.778 82.354C141.904 82.3553 142.03 82.3567 142.171 82.3634C142.405 82.3745 142.638 82.3857 142.881 82.416C143.357 82.4575 143.831 82.5457 144.294 82.6616C144.539 82.7249 144.912 82.5833 145.097 82.4327C145.288 82.2684 145.415 82.0635 145.478 81.8181C145.601 81.2944 145.328 80.7282 144.804 80.5251C143.791 80.1486 142.783 79.7583 141.801 79.2989C141.572 79.1942 141.362 79.0811 141.138 78.9626C141.124 78.9572 140.892 78.8196 141.047 78.9113C141.215 79.0085 140.983 78.8708 140.955 78.8601C140.836 78.7982 140.723 78.7225 140.609 78.6467C140.15 78.3576 139.714 78.0462 139.304 77.7126C139.232 77.6529 139.151 77.574 139.079 77.5143C139.043 77.4845 138.998 77.4355 138.962 77.4056C138.89 77.3459 138.839 77.231 139.007 77.4546C138.884 77.28 138.698 77.1446 138.556 76.9784C138.28 76.6653 138.024 76.3437 137.806 76.0051C137.744 75.9178 137.683 75.8305 137.627 75.7294C137.61 75.6911 137.579 75.6474 137.557 75.6229C137.456 75.4728 137.596 75.6858 137.604 75.7049C137.52 75.5134 137.388 75.3196 137.285 75.1365C137.088 74.7428 136.905 74.3544 136.746 73.9437C136.676 73.7575 136.605 73.5713 136.548 73.3905C136.519 73.3001 136.491 73.2096 136.454 73.1C136.414 72.9575 136.525 73.366 136.465 73.1522C136.445 73.0809 136.434 73.0288 136.414 72.9575C136.302 72.5491 136.223 72.1375 136.144 71.7259C136.071 71.3006 136.017 70.8667 135.976 70.4383C135.963 70.2267 135.95 70.0151 135.936 69.8036C135.938 69.7568 135.941 69.71 135.924 69.6717C135.933 69.9768 135.922 69.7982 135.922 69.7185C135.923 69.592 135.919 69.4793 135.92 69.3528C135.923 68.4014 136.015 67.4683 136.167 66.5428C136.208 66.2729 136.257 66.0221 136.312 65.7575C136.336 65.6555 136.365 65.5398 136.375 65.4324C136.393 65.3442 136.406 65.2698 136.438 65.187C136.422 65.2284 136.42 65.2752 136.403 65.3166C136.425 65.2614 136.427 65.2146 136.448 65.1594C136.586 64.6409 136.718 64.1363 136.882 63.6286C137.613 61.2916 138.638 59.0531 139.667 56.8476C139.892 56.3474 139.622 55.7345 139.165 55.4784C138.681 55.2115 138.089 55.3473 137.744 55.7855C135.312 58.8287 133.757 62.4341 131.579 65.6394C131.095 66.3569 130.583 67.0637 130.007 67.73C129.888 67.8742 129.755 68.0132 129.641 68.1437C129.581 68.2158 129.494 68.2773 129.429 68.3632C129.434 68.3494 129.616 68.166 129.488 68.2911C129.458 68.3272 129.409 68.3717 129.38 68.4078C129.099 68.6803 128.824 68.9391 128.536 69.1925C127.959 69.6993 127.337 70.1571 126.689 70.5574C126.651 70.5743 126.608 70.6051 126.583 70.6273C126.801 70.4737 126.728 70.5405 126.665 70.5797C126.583 70.6273 126.501 70.675 126.419 70.7226C126.255 70.8179 126.077 70.9079 125.9 70.9979C125.563 71.1693 125.219 71.3216 124.885 71.4462C124.679 71.5255 124.493 71.5963 124.279 71.6564C124.241 71.6733 124.208 71.6764 124.156 71.688C124.479 71.5909 124.246 71.6595 124.189 71.6849C124.085 71.7081 123.994 71.7365 123.89 71.7597C123.506 71.8492 123.114 71.9195 122.718 71.9569C122.619 71.9662 122.507 71.9702 122.408 71.9795C122.361 71.9773 122.328 71.9804 122.281 71.9782C122.056 71.9862 122.52 71.9756 122.314 71.9751C122.108 71.9746 121.902 71.9741 121.687 71.9545C121.472 71.9349 121.271 71.9206 121.062 71.8872C120.974 71.8689 120.867 71.8591 120.778 71.8408C120.69 71.8226 120.282 71.7281 120.657 71.8257C120.365 71.7602 120.087 71.7 119.808 71.8461C119.592 71.9529 119.42 72.1088 119.288 72.3275C119.037 72.7702 119.122 73.4539 119.595 73.7484C119.963 73.9863 120.326 74.2379 120.679 74.5173C120.837 74.642 120.976 74.7752 121.134 74.8999C121.215 74.9788 121.295 75.0576 121.381 75.1226C121.112 74.8754 121.412 75.1663 121.484 75.226C122.082 75.8545 122.626 76.5414 123.088 77.2759C123.104 77.3142 123.135 77.3579 123.158 77.3824C123.253 77.5463 123.118 77.3196 123.11 77.3004C123.152 77.3962 123.227 77.4888 123.283 77.59C123.396 77.7922 123.5 77.9753 123.598 78.1722C123.795 78.5659 123.986 78.9735 124.139 79.398C124.298 79.8087 124.443 80.214 124.582 80.6331C124.594 80.6852 124.605 80.7374 124.631 80.7948C124.622 80.7757 124.553 80.5427 124.61 80.7235C124.647 80.8331 124.671 80.9374 124.708 81.0469C124.768 81.2607 124.822 81.4883 124.869 81.6968C125.062 82.5498 125.185 83.4228 125.26 84.2935C125.274 84.5051 125.292 84.7029 125.306 84.9144C125.317 84.9666 125.31 85.0271 125.307 85.0739C125.318 85.2525 125.301 85.008 125.307 84.9942C125.3 85.1345 125.312 85.2663 125.311 85.3928C125.319 85.8244 125.307 86.2645 125.295 86.7045C125.218 88.6273 124.967 90.5465 124.627 92.4475C124.441 93.5026 124.236 94.5662 124.002 95.6191C123.89 96.1153 123.782 96.5977 123.67 97.0938C123.606 97.3392 123.562 97.5762 123.499 97.8216C123.481 97.9098 123.386 98.3178 123.465 97.9512C123.43 98.0808 123.401 98.1966 123.367 98.3262C123.296 98.6322 123.261 98.8883 123.387 99.1756C123.497 99.4246 123.734 99.675 124.002 99.7627C124.269 99.8505 124.591 99.88 124.851 99.7424C125.116 99.591 125.389 99.379 125.449 99.1006ZM125.449 99.1006C126.372 95.2823 127.242 91.3958 127.476 87.4695C127.687 83.725 127.164 79.8704 125.277 76.5836C124.203 74.723 122.783 73.0615 120.952 71.9241C120.594 72.5633 120.249 73.2077 119.89 73.8468C120.789 74.0678 121.662 74.1517 122.596 74.1166C123.418 74.0855 124.227 73.9226 125.022 73.6746C126.568 73.2094 128.013 72.3877 129.283 71.4031C130.617 70.3793 131.782 69.1318 132.771 67.7681C133.949 66.1604 134.942 64.4172 135.929 62.6878C137.035 60.7343 138.154 58.7863 139.565 57.0302C138.926 56.6716 138.281 56.3268 137.642 55.9681C135.797 59.9534 133.905 64.1426 133.762 68.6123C133.635 72.3421 134.694 76.2925 137.431 78.9403C139.268 80.7155 141.66 81.6734 144.018 82.5547C144.183 81.8407 144.362 81.1321 144.528 80.4181C140.861 79.5541 137.021 80.6551 133.922 82.6305C130.485 84.8242 128.013 88.2967 126.1 91.8428C124.984 93.9036 124.084 96.0637 123.397 98.2902C123.23 98.8447 123.441 99.5297 124.031 99.7267C124.561 99.916 125.266 99.6965 125.449 99.1006Z" stroke="black"/>
</g>
</svg>
